<svg xmlns="http://www.w3.org/2000/svg" width="66.382" height="21.584" viewBox="0 0 66.382 21.584">
  <g id="Gruppe_1375" data-name="Gruppe 1375" transform="translate(-40 -9.216)">
    <path id="Pfad_3989" data-name="Pfad 3989" d="M168.55.045h-3.881a.922.922,0,0,0-.922.691l-2.7,9.958h0l-1.643,6.069-1.1,4.116c-.1.385.116.455.242.465h3.881a.922.922,0,0,0,.922-.691l2.7-9.958h0L167.7,4.626l1.1-4.116c.1-.385-.116-.455-.242-.465" transform="translate(-62.438 9.171)" fill="#c0ea42"/>
    <path id="Pfad_3990" data-name="Pfad 3990" d="M145.794.045h-3.882a.923.923,0,0,0-.922.691l-2.7,9.958h0l-1.643,6.069-1.1,4.116c-.1.385.116.455.242.465h3.881a.922.922,0,0,0,.922-.691l2.7-9.958h0l1.644-6.069,1.1-4.116c.1-.385-.116-.455-.242-.465" transform="translate(-47.71 9.171)" fill="#59c1c4"/>
    <path id="Pfad_3991" data-name="Pfad 3991" d="M12.027,32.78H7.944L7.69,31.642a5.232,5.232,0,0,1-1.36,1.044,3.8,3.8,0,0,1-1.773.38,7.57,7.57,0,0,1-1.709-.19,3.485,3.485,0,0,1-1.456-.712A3.639,3.639,0,0,1,.38,30.755,5.927,5.927,0,0,1,0,28.445v-.823A4.223,4.223,0,0,1,.411,25.66,3.453,3.453,0,0,1,1.5,24.394a4.48,4.48,0,0,1,1.567-.681,8.242,8.242,0,0,1,1.867-.205,7.676,7.676,0,0,1,1.487.127,5.729,5.729,0,0,1,1.2.379v-.538a3.126,3.126,0,0,0-.127-.918,1.363,1.363,0,0,0-.506-.7,2.837,2.837,0,0,0-1.06-.443,7.966,7.966,0,0,0-1.756-.158,9.39,9.39,0,0,0-1.567.143q-.838.142-1.44.268V18.127a6.345,6.345,0,0,1,.839-.158q.491-.063,1.028-.126t1.029-.095q.49-.031.839-.032a12.9,12.9,0,0,1,3.592.411,5.05,5.05,0,0,1,2.168,1.2,4.079,4.079,0,0,1,1.076,1.978,11.641,11.641,0,0,1,.285,2.705Zm-6.2-2.943a1.709,1.709,0,0,0,1.836-1.646V26.768a2.348,2.348,0,0,0-1.551-.475,2.6,2.6,0,0,0-1.408.332,1.482,1.482,0,0,0-.522,1.345v.221a1.754,1.754,0,0,0,.38,1.25,1.7,1.7,0,0,0,1.266.4" transform="translate(40 -2.266)" fill="#0c5e69"/>
    <path id="Pfad_3992" data-name="Pfad 3992" d="M40.985,6.153q0-3.228,1.44-4.668A6.258,6.258,0,0,1,47,.045q.633,0,1.361.064A8.8,8.8,0,0,1,49.72.33V3.938a4.342,4.342,0,0,0-.87-.158c-.285-.02-.575-.032-.87-.032a3.071,3.071,0,0,0-1.551.38q-.664.38-.664,1.646v.7h3.1v3.8h-3.1V21.344H40.985V10.267H38.928V6.47h2.057Z" transform="translate(14.807 9.171)" fill="#0c5e69"/>
    <path id="Pfad_3993" data-name="Pfad 3993" d="M81.269,28.413a4.8,4.8,0,0,1-.364,1.9,3.483,3.483,0,0,1-1.187,1.456,6.166,6.166,0,0,1-2.136.934,13.3,13.3,0,0,1-3.212.332c-.233,0-.528-.011-.886-.032s-.728-.053-1.108-.095-.743-.085-1.092-.127a6.162,6.162,0,0,1-.87-.158V29.077q.6.127,1.519.269a10.842,10.842,0,0,0,1.646.142,7.213,7.213,0,0,0,2.184-.222.906.906,0,0,0,.6-.949.826.826,0,0,0-.411-.775,9.282,9.282,0,0,0-1.393-.586l-.728-.253a14.046,14.046,0,0,1-1.408-.585,3.574,3.574,0,0,1-1.06-.775,3.189,3.189,0,0,1-.681-1.187,5.862,5.862,0,0,1-.237-1.82,4.09,4.09,0,0,1,1.614-3.307A7.557,7.557,0,0,1,76.9,17.715c.232,0,.511.011.839.032s.669.053,1.028.095.7.085,1.028.127a6.368,6.368,0,0,1,.839.158v3.544a10.652,10.652,0,0,0-1.408-.285,11.231,11.231,0,0,0-1.6-.127,8.252,8.252,0,0,0-1.408.095,2.853,2.853,0,0,0-.791.237.712.712,0,0,0-.348.332A.981.981,0,0,0,75,22.3a.967.967,0,0,0,.126.538,1.034,1.034,0,0,0,.412.333,5.265,5.265,0,0,0,.728.284q.443.142,1.076.364l1.013.348A4.214,4.214,0,0,1,80.6,25.706a4.824,4.824,0,0,1,.664,2.706" transform="translate(-5.57 -2.265)" fill="#0c5e69"/>
    <path id="Pfad_3994" data-name="Pfad 3994" d="M110.749,18.254h4.81v5.063h-4.81Zm0,9.811h4.81v5.063h-4.81Z" transform="translate(-31.674 -2.614)" fill="#0c5e69"/>
  </g>
</svg>
