<svg xmlns="http://www.w3.org/2000/svg" xmlns:xlink="http://www.w3.org/1999/xlink" width="293.547" height="38.322" viewBox="0 0 293.547 38.322">
  <defs>
    <clipPath id="clip-path">
      <rect id="Rechteck_54" data-name="Rechteck 54" width="293.547" height="38.323" fill="none"/>
    </clipPath>
  </defs>
  <g id="Gruppe_86" data-name="Gruppe 86" clip-path="url(#clip-path)">
    <path id="Pfad_233" data-name="Pfad 233" d="M145.265.036h-6.886a1.638,1.638,0,0,0-1.637,1.226L131.958,18.93h0L129.043,29.7,127.1,37c-.182.683.206.807.43.825h6.886A1.636,1.636,0,0,0,136.05,36.6l4.785-17.668h0l2.916-10.767,1.946-7.3c.182-.683-.206-.807-.43-.825" transform="translate(-27.97 -0.008)" fill="#c0ea42"/>
    <path id="Pfad_234" data-name="Pfad 234" d="M127,.036h-6.886a1.638,1.638,0,0,0-1.637,1.226L113.692,18.93h0L110.777,29.7,108.832,37c-.182.683.206.807.43.825h6.886a1.636,1.636,0,0,0,1.637-1.226L122.57,18.93h0l2.916-10.767,1.946-7.3c.182-.683-.206-.807-.43-.825" transform="translate(-23.949 -0.008)" fill="#79c1c5"/>
    <path id="Pfad_235" data-name="Pfad 235" d="M21.337,40.947H14.093l-.449-2.021a9.255,9.255,0,0,1-2.414,1.853,6.722,6.722,0,0,1-3.144.675,13.438,13.438,0,0,1-3.032-.338,6.18,6.18,0,0,1-2.583-1.263,6.453,6.453,0,0,1-1.8-2.5A10.521,10.521,0,0,1,0,33.255v-1.46a7.491,7.491,0,0,1,.73-3.481,6.129,6.129,0,0,1,1.937-2.246A7.956,7.956,0,0,1,5.446,24.86,14.656,14.656,0,0,1,8.759,24.5a13.612,13.612,0,0,1,2.639.225,10.169,10.169,0,0,1,2.134.673v-.955a5.554,5.554,0,0,0-.225-1.628,2.418,2.418,0,0,0-.9-1.235,5.036,5.036,0,0,0-1.881-.785,14.122,14.122,0,0,0-3.116-.282,16.648,16.648,0,0,0-2.779.253q-1.488.252-2.555.476V14.95a11.308,11.308,0,0,1,1.488-.281q.87-.112,1.825-.225t1.825-.168q.87-.055,1.488-.056a22.875,22.875,0,0,1,6.373.73,8.949,8.949,0,0,1,3.846,2.134,7.236,7.236,0,0,1,1.909,3.509,20.644,20.644,0,0,1,.505,4.8ZM10.331,35.725a3.033,3.033,0,0,0,3.257-2.92V30.279a4.163,4.163,0,0,0-2.751-.842,4.614,4.614,0,0,0-2.5.589,2.63,2.63,0,0,0-.926,2.386v.393a3.114,3.114,0,0,0,.674,2.219,3.017,3.017,0,0,0,2.246.7" transform="translate(0 -3.13)" fill="#fefdfe"/>
    <path id="Pfad_236" data-name="Pfad 236" d="M34.9,10.874q0-5.727,2.555-8.282T45.565.037q1.123,0,2.414.112a15.611,15.611,0,0,1,2.414.393v6.4a7.691,7.691,0,0,0-1.544-.281c-.505-.037-1.021-.057-1.544-.057a5.44,5.44,0,0,0-2.751.675q-1.179.674-1.179,2.92v1.235h5.5v6.737h-5.5V37.825H34.9V18.172h-3.65V11.435H34.9Z" transform="translate(-6.879 -0.008)" fill="#fefdfe"/>
    <path id="Pfad_237" data-name="Pfad 237" d="M75.778,33.2a8.523,8.523,0,0,1-.646,3.368,6.177,6.177,0,0,1-2.106,2.584,10.932,10.932,0,0,1-3.79,1.656,23.591,23.591,0,0,1-5.7.59c-.413,0-.936-.02-1.572-.057s-1.291-.094-1.965-.168-1.32-.151-1.937-.225a10.937,10.937,0,0,1-1.544-.282V34.378q1.066.225,2.7.477a19.225,19.225,0,0,0,2.92.252,12.8,12.8,0,0,0,3.874-.393,1.608,1.608,0,0,0,1.067-1.684,1.466,1.466,0,0,0-.73-1.375,16.5,16.5,0,0,0-2.471-1.04l-1.291-.449a24.923,24.923,0,0,1-2.5-1.039A6.342,6.342,0,0,1,58.2,27.753,5.654,5.654,0,0,1,57,25.646a10.385,10.385,0,0,1-.421-3.228,7.257,7.257,0,0,1,2.864-5.868q2.864-2.329,8.591-2.33.618,0,1.488.056t1.825.168q.953.113,1.825.225a11.194,11.194,0,0,1,1.488.282v6.288a18.858,18.858,0,0,0-2.5-.5,19.825,19.825,0,0,0-2.836-.225,14.7,14.7,0,0,0-2.5.168,5.1,5.1,0,0,0-1.4.421,1.261,1.261,0,0,0-.618.59,1.741,1.741,0,0,0-.14.675,1.711,1.711,0,0,0,.225.954,1.838,1.838,0,0,0,.73.59,9.2,9.2,0,0,0,1.291.5q.786.253,1.909.646l1.8.618A7.467,7.467,0,0,1,74.6,28.4a8.551,8.551,0,0,1,1.179,4.8" transform="translate(-12.443 -3.13)" fill="#fefdfe"/>
    <path id="Pfad_238" data-name="Pfad 238" d="M88.9,14.653h8.535v8.984H88.9Zm0,17.406h8.535v8.984H88.9Z" transform="translate(-19.57 -3.226)" fill="#fefdfe"/>
    <path id="Pfad_239" data-name="Pfad 239" d="M153.842,45.8a.277.277,0,0,1-.3-.369l1.829-8.652a.445.445,0,0,1,.464-.382h3.781a.292.292,0,0,1,.3.382l-.068.3a.422.422,0,0,1-.451.369h-2.948l-.615,2.894h2.32a.291.291,0,0,1,.3.382l-.068.3a.421.421,0,0,1-.451.369h-2.32l-.86,4.04a.434.434,0,0,1-.463.369Z" transform="translate(-33.799 -8.012)" fill="#979797"/>
    <path id="Pfad_240" data-name="Pfad 240" d="M164.146,43.236a4.955,4.955,0,0,1,.109-.941l1.3-6.128a.446.446,0,0,1,.465-.382h.45a.292.292,0,0,1,.3.382l-1.3,6.1a4.706,4.706,0,0,0-.124.969c0,.737.328,1.065,1.093,1.065a3.561,3.561,0,0,0,2.211-.956l1.529-7.179a.444.444,0,0,1,.463-.382h.451a.291.291,0,0,1,.3.382l-1.828,8.652a.435.435,0,0,1-.464.369h-.109a.345.345,0,0,1-.382-.382V44.26a3.619,3.619,0,0,1-2.361,1.106,1.942,1.942,0,0,1-2.1-2.13m2.484-8.816a.778.778,0,1,1,.778.791.8.8,0,0,1-.778-.791m2.607,0a.778.778,0,1,1,.778.791.8.8,0,0,1-.778-.791" transform="translate(-36.137 -7.403)" fill="#979797"/>
    <path id="Pfad_241" data-name="Pfad 241" d="M176.478,45.8a.277.277,0,0,1-.3-.369l1.829-8.652a.447.447,0,0,1,.465-.382h1.8c1.693,0,2.621.873,2.621,2.265a2.589,2.589,0,0,1-2.307,2.866c.409.205.6.573.8,1.57l.478,2.333a.285.285,0,0,1-.3.369H181.1a.435.435,0,0,1-.464-.369l-.464-2.279c-.232-1.132-.629-1.378-1.283-1.378h-.724l-.778,3.657a.435.435,0,0,1-.465.369Zm3.248-5.05a1.8,1.8,0,0,0,1.378-.436,2.717,2.717,0,0,0,.5-1.638c0-.764-.4-1.2-1.46-1.2h-1.064l-.7,3.275Z" transform="translate(-38.783 -8.012)" fill="#979797"/>
    <path id="Pfad_242" data-name="Pfad 242" d="M193.5,45.8a.276.276,0,0,1-.3-.369l1.828-8.652a.447.447,0,0,1,.465-.382h3.781a.291.291,0,0,1,.3.382l-.068.3a.421.421,0,0,1-.45.369h-2.949l-.614,2.894h2.32a.291.291,0,0,1,.3.382l-.068.3a.422.422,0,0,1-.451.369h-2.321l-.859,4.04a.435.435,0,0,1-.464.369Z" transform="translate(-42.53 -8.012)" fill="#979797"/>
    <path id="Pfad_243" data-name="Pfad 243" d="M203.663,42.539a10.091,10.091,0,0,1,1.3-4.681,3.337,3.337,0,0,1,2.948-1.692c1.9,0,2.934,1.269,2.934,3.385a10,10,0,0,1-1.337,4.831,3.286,3.286,0,0,1-2.935,1.543c-1.8,0-2.908-1.228-2.908-3.385m5.023.806a12.392,12.392,0,0,0,.873-4.107c-.013-1.351-.559-2.088-1.679-2.088-.969,0-1.569.5-2.06,1.61a12.428,12.428,0,0,0-.887,4.067c0,1.433.586,2.129,1.691,2.129.969,0,1.583-.5,2.061-1.61" transform="translate(-44.837 -7.962)" fill="#979797"/>
    <path id="Pfad_244" data-name="Pfad 244" d="M216.205,45.8a.277.277,0,0,1-.3-.369l1.829-8.652a.447.447,0,0,1,.465-.382H220c1.693,0,2.621.873,2.621,2.265a2.589,2.589,0,0,1-2.307,2.866c.409.205.6.573.8,1.57l.478,2.333a.285.285,0,0,1-.3.369h-.464a.435.435,0,0,1-.464-.369l-.464-2.279c-.232-1.132-.629-1.378-1.283-1.378H217.9l-.778,3.657a.435.435,0,0,1-.465.369Zm3.248-5.05a1.8,1.8,0,0,0,1.378-.436,2.717,2.717,0,0,0,.5-1.638c0-.764-.4-1.2-1.46-1.2h-1.064l-.7,3.275Z" transform="translate(-47.529 -8.012)" fill="#979797"/>
    <path id="Pfad_245" data-name="Pfad 245" d="M228.981,45.8a.276.276,0,0,1-.3-.369l1.692-7.97h-1.8a.289.289,0,0,1-.314-.368l.069-.314a.446.446,0,0,1,.464-.382h4.763a.291.291,0,0,1,.3.382l-.068.314a.413.413,0,0,1-.451.368h-1.747l-1.693,7.97a.433.433,0,0,1-.463.369Z" transform="translate(-50.249 -8.012)" fill="#979797"/>
    <path id="Pfad_246" data-name="Pfad 246" d="M237.3,45.8a.277.277,0,0,1-.3-.369l1.829-8.652a.447.447,0,0,1,.465-.382h1.9c1.72,0,2.525.955,2.525,2.156a2.313,2.313,0,0,1-1.556,2.388,1.779,1.779,0,0,1,1.16,1.8,3.3,3.3,0,0,1-.887,2.321,3.525,3.525,0,0,1-2.471.737Zm2.674-1.024a1.8,1.8,0,0,0,1.679-.7,2.977,2.977,0,0,0,.382-1.488c0-.737-.423-1.16-1.447-1.16h-1.529l-.71,3.344Zm.806-4.381A1.51,1.51,0,0,0,242,39.942a2.183,2.183,0,0,0,.423-1.378c0-.7-.409-1.146-1.352-1.146H239.9l-.641,2.975Z" transform="translate(-52.173 -8.012)" fill="#979797"/>
    <path id="Pfad_247" data-name="Pfad 247" d="M248.1,45.8a.225.225,0,0,1-.246-.286.433.433,0,0,1,.382-.369l.641-.082,1.692-7.916-.614-.082a.279.279,0,0,1-.232-.369.356.356,0,0,1,.369-.3h2.47a.23.23,0,0,1,.246.286.406.406,0,0,1-.368.369l-.668.1-1.679,7.916.614.082a.279.279,0,0,1,.232.369.356.356,0,0,1-.369.286Z" transform="translate(-54.562 -8.012)" fill="#979797"/>
    <path id="Pfad_248" data-name="Pfad 248" d="M256.423,45.8a.277.277,0,0,1-.3-.369l1.828-8.652a.447.447,0,0,1,.465-.382h.45a.292.292,0,0,1,.3.382l-1.679,7.957h2.729a.293.293,0,0,1,.3.381l-.069.314a.435.435,0,0,1-.464.369Z" transform="translate(-56.383 -8.012)" fill="#979797"/>
    <path id="Pfad_249" data-name="Pfad 249" d="M266.184,45.8a.277.277,0,0,1-.3-.369l1.829-8.652a.445.445,0,0,1,.464-.382h1.747c1.939,0,3.043.873,3.043,2.962a11.832,11.832,0,0,1-.845,4.136,3.484,3.484,0,0,1-3.7,2.306Zm2.4-1.037a2.144,2.144,0,0,0,2.388-1.706,13.523,13.523,0,0,0,.71-3.725c0-1.324-.519-1.924-1.72-1.924H268.8l-1.57,7.356Z" transform="translate(-58.532 -8.012)" fill="#979797"/>
    <path id="Pfad_250" data-name="Pfad 250" d="M278.468,43.845a4.967,4.967,0,0,1,.109-.942l1.3-6.127a.445.445,0,0,1,.464-.382h.451a.291.291,0,0,1,.3.382l-1.3,6.1a4.685,4.685,0,0,0-.122.969c0,.737.327,1.065,1.092,1.065a3.563,3.563,0,0,0,2.21-.956l1.529-7.179a.445.445,0,0,1,.463-.382h.451a.292.292,0,0,1,.3.382l-1.829,8.652a.436.436,0,0,1-.465.369h-.109a.345.345,0,0,1-.382-.382v-.547a3.613,3.613,0,0,1-2.361,1.106,1.942,1.942,0,0,1-2.1-2.129" transform="translate(-61.305 -8.012)" fill="#979797"/>
    <path id="Pfad_251" data-name="Pfad 251" d="M290.8,45.8a.276.276,0,0,1-.3-.369l1.828-8.652a.447.447,0,0,1,.465-.382h.464a.461.461,0,0,1,.478.368l1.282,5.131a16.414,16.414,0,0,1,.409,2.334c.1-.628.232-1.691.451-2.716l1-4.735a.447.447,0,0,1,.465-.382h.355a.291.291,0,0,1,.3.382l-1.829,8.652a.433.433,0,0,1-.463.369h-.505a.447.447,0,0,1-.477-.369l-1.161-4.708a19.018,19.018,0,0,1-.491-2.62c-.081.668-.259,1.747-.491,2.852l-.941,4.476a.435.435,0,0,1-.464.369Z" transform="translate(-63.951 -8.012)" fill="#979797"/>
    <path id="Pfad_252" data-name="Pfad 252" d="M308.645,45.378a.435.435,0,0,1-.464.369H308.1a.346.346,0,0,1-.383-.382v-.259a2.672,2.672,0,0,1-1.9.8c-1.733,0-2.62-1.2-2.634-3.194a10.982,10.982,0,0,1,1-4.367,3.548,3.548,0,0,1,3.357-2.183,3.416,3.416,0,0,1,2.075.641.4.4,0,0,1,.1.546l-.191.3a.322.322,0,0,1-.519.082,2.387,2.387,0,0,0-1.529-.533,2.127,2.127,0,0,0-2.128,1.57,12.827,12.827,0,0,0-.86,4.122c0,1.3.464,2.007,1.556,2.007a2.3,2.3,0,0,0,1.693-.792l.478-2.307h-1.338a.276.276,0,0,1-.3-.368l.069-.3a.445.445,0,0,1,.464-.382h2.142a.291.291,0,0,1,.3.382Z" transform="translate(-66.747 -7.962)" fill="#979797"/>
    <path id="Pfad_253" data-name="Pfad 253" d="M320.045,45.8a.225.225,0,0,1-.246-.286.433.433,0,0,1,.382-.369l.641-.082,1.692-7.916-.614-.082a.279.279,0,0,1-.232-.369.356.356,0,0,1,.369-.3h2.47a.23.23,0,0,1,.246.286.406.406,0,0,1-.368.369l-.668.1-1.679,7.916.614.082a.279.279,0,0,1,.232.369.356.356,0,0,1-.369.286Z" transform="translate(-70.402 -8.012)" fill="#979797"/>
    <path id="Pfad_254" data-name="Pfad 254" d="M328.376,45.8a.276.276,0,0,1-.3-.369l1.828-8.652a.447.447,0,0,1,.465-.382h.464a.461.461,0,0,1,.478.368l1.282,5.131A16.405,16.405,0,0,1,333,44.227c.1-.628.232-1.691.451-2.716l1-4.735a.447.447,0,0,1,.465-.382h.355a.291.291,0,0,1,.3.382l-1.829,8.652a.433.433,0,0,1-.463.369h-.506a.447.447,0,0,1-.476-.369l-1.161-4.708a19.008,19.008,0,0,1-.491-2.62c-.081.668-.259,1.747-.491,2.852l-.941,4.476a.435.435,0,0,1-.464.369Z" transform="translate(-72.223 -8.012)" fill="#979797"/>
    <path id="Pfad_255" data-name="Pfad 255" d="M345.591,45.091a.424.424,0,0,1-.123-.56l.15-.273a.3.3,0,0,1,.491-.122,3.484,3.484,0,0,0,2.1.737,1.6,1.6,0,0,0,1.76-1.678c0-.9-.4-1.27-1.46-1.911-1.228-.737-1.665-1.351-1.665-2.524a2.454,2.454,0,0,1,2.689-2.593,4.363,4.363,0,0,1,2.224.572.408.408,0,0,1,.177.547l-.122.273a.3.3,0,0,1-.478.163,3.78,3.78,0,0,0-1.856-.519,1.333,1.333,0,0,0-1.446,1.488c0,.724.218,1.038,1.2,1.61,1.16.683,1.993,1.406,1.993,2.825a2.622,2.622,0,0,1-2.921,2.8,4.749,4.749,0,0,1-2.716-.833" transform="translate(-76.043 -7.962)" fill="#979797"/>
    <path id="Pfad_256" data-name="Pfad 256" d="M356.784,45.8a.276.276,0,0,1-.3-.369l1.828-8.652a.445.445,0,0,1,.464-.382h3.9a.292.292,0,0,1,.3.382l-.055.286a.435.435,0,0,1-.464.369h-3.071l-.615,2.935h2.334a.291.291,0,0,1,.3.381l-.055.273a.435.435,0,0,1-.464.369h-2.321l-.722,3.358h3.234a.291.291,0,0,1,.3.382l-.068.3a.422.422,0,0,1-.451.369Z" transform="translate(-78.477 -8.012)" fill="#979797"/>
    <path id="Pfad_257" data-name="Pfad 257" d="M367.209,42.539a10.1,10.1,0,0,1,1.3-4.681,3.339,3.339,0,0,1,2.949-1.692c1.9,0,2.934,1.269,2.934,3.385a10,10,0,0,1-1.337,4.831,3.286,3.286,0,0,1-2.935,1.543c-1.8,0-2.908-1.228-2.908-3.385m5.023.806a12.391,12.391,0,0,0,.873-4.107c-.013-1.351-.559-2.088-1.679-2.088-.969,0-1.569.5-2.06,1.61a12.428,12.428,0,0,0-.887,4.067c0,1.433.586,2.129,1.691,2.129.969,0,1.583-.5,2.061-1.61" transform="translate(-80.841 -7.962)" fill="#979797"/>
    <path id="Pfad_258" data-name="Pfad 258" d="M159.243,19.7a.84.84,0,0,1-.82-1.075L163.4,1.111A1.521,1.521,0,0,1,164.847.036h2.122a1.477,1.477,0,0,1,1.415,1.1l4.755,17.46a.883.883,0,0,1-.849,1.1h-2.236a1.421,1.421,0,0,1-1.386-1.1l-.651-2.886H163.4L162.7,18.6a1.423,1.423,0,0,1-1.387,1.1Zm5.773-10.5-.82,3.311h3.084L166.516,9.2a32.186,32.186,0,0,1-.707-4.1h-.029a31.188,31.188,0,0,1-.763,4.1" transform="translate(-34.868 -0.008)" fill="#fefdfe"/>
    <path id="Pfad_259" data-name="Pfad 259" d="M181.966,19.7a1.135,1.135,0,0,1-1.132-1.132V1.169A1.135,1.135,0,0,1,181.966.036h1.982a1.135,1.135,0,0,1,1.132,1.133V8.837l4.075-7.81a1.93,1.93,0,0,1,1.67-.991h2.263a.656.656,0,0,1,.567.991l-4.528,7.979,5.064,9.706a.667.667,0,0,1-.593.991h-2.518a1.834,1.834,0,0,1-1.614-1.018L185.079,9.4v9.169a1.135,1.135,0,0,1-1.132,1.132Z" transform="translate(-39.811 -0.008)" fill="#fefdfe"/>
    <path id="Pfad_260" data-name="Pfad 260" d="M200.779,19.7a.841.841,0,0,1-.822-1.075l4.981-17.518A1.521,1.521,0,0,1,206.382.036H208.5a1.477,1.477,0,0,1,1.415,1.1l4.755,17.46a.884.884,0,0,1-.849,1.1h-2.236a1.421,1.421,0,0,1-1.386-1.1l-.651-2.886h-4.613l-.707,2.886a1.422,1.422,0,0,1-1.387,1.1Zm5.772-10.5-.82,3.311h3.084L208.051,9.2a32.186,32.186,0,0,1-.707-4.1h-.029a31.186,31.186,0,0,1-.763,4.1" transform="translate(-44.012 -0.008)" fill="#fefdfe"/>
    <path id="Pfad_261" data-name="Pfad 261" d="M223.392,19.7a1.135,1.135,0,0,1-1.132-1.132V1.168A1.135,1.135,0,0,1,223.392.036H228.6c4.981,0,7.641,2.462,7.641,9.621,0,6.481-1.868,10.047-7.47,10.047Zm3.113-3.622h2.009c2.292,0,3.141-1.047,3.141-6.565,0-4.9-.905-5.915-3.226-5.915h-1.924Z" transform="translate(-48.931 -0.008)" fill="#fefdfe"/>
    <path id="Pfad_262" data-name="Pfad 262" d="M245.648,19.7a1.135,1.135,0,0,1-1.132-1.132V1.169A1.135,1.135,0,0,1,245.648.036h8.264a1.135,1.135,0,0,1,1.132,1.133V2.5a1.135,1.135,0,0,1-1.132,1.132h-5.151v4.1h3.877a1.135,1.135,0,0,1,1.132,1.133v1.217a1.135,1.135,0,0,1-1.132,1.131h-3.877v4.868h5.631a1.135,1.135,0,0,1,1.132,1.132v1.359a1.135,1.135,0,0,1-1.132,1.132Z" transform="translate(-53.83 -0.008)" fill="#fefdfe"/>
    <path id="Pfad_263" data-name="Pfad 263" d="M263.62,19.7a1.135,1.135,0,0,1-1.132-1.132V1.169A1.135,1.135,0,0,1,263.62.036h3.367a1.481,1.481,0,0,1,1.416,1.1l1.868,7.329a23.049,23.049,0,0,1,.707,4.5h.027a25.694,25.694,0,0,1,.68-4.5l1.7-7.329a1.423,1.423,0,0,1,1.387-1.1h3.679a1.135,1.135,0,0,1,1.132,1.133v17.4a1.135,1.135,0,0,1-1.132,1.132h-1.812a1.135,1.135,0,0,1-1.131-1.132V11.13c0-3.227.169-6,.282-7.416h-.057a55.836,55.836,0,0,1-1.358,6.764l-1.358,4.866a1.538,1.538,0,0,1-1.444,1.1h-1.585a1.522,1.522,0,0,1-1.444-1.075l-1.3-4.613a68.483,68.483,0,0,1-1.358-7.047h-.027c.112,1.472.31,4.727.31,7.5v7.359a1.135,1.135,0,0,1-1.131,1.132Z" transform="translate(-57.787 -0.008)" fill="#fefdfe"/>
    <path id="Pfad_264" data-name="Pfad 264" d="M300.61,19.7a1.135,1.135,0,0,1-1.132-1.132V1.169A1.135,1.135,0,0,1,300.61.036h8.264a1.135,1.135,0,0,1,1.132,1.133V2.5a1.135,1.135,0,0,1-1.132,1.132h-5.151v4.1H307.6a1.135,1.135,0,0,1,1.132,1.133v1.217a1.135,1.135,0,0,1-1.132,1.131h-3.877v4.868h5.631a1.135,1.135,0,0,1,1.132,1.132v1.359a1.135,1.135,0,0,1-1.132,1.132Z" transform="translate(-65.93 -0.008)" fill="#fefdfe"/>
    <path id="Pfad_265" data-name="Pfad 265" d="M292.33,0h-1.874a1.135,1.135,0,0,0-1.132,1.132v17.4a1.135,1.135,0,0,0,1.132,1.132h1.874a1.135,1.135,0,0,0,1.132-1.133V1.132A1.135,1.135,0,0,0,292.33,0" transform="translate(-63.695 0)" fill="#fefdfe"/>
  </g>
</svg>
