<svg xmlns="http://www.w3.org/2000/svg" xmlns:xlink="http://www.w3.org/1999/xlink" width="387" height="480" viewBox="0 0 387 480">
  <defs>
    <clipPath id="clip-Nutzerzahlen">
      <rect width="387" height="480"/>
    </clipPath>
  </defs>
  <g id="Nutzerzahlen" clip-path="url(#clip-Nutzerzahlen)">
    <rect width="387" height="480" fill="#fff"/>
    <rect id="Rechteck_966" data-name="Rechteck 966" width="55" height="13.268" transform="translate(50 371)" fill="#59c1c4"/>
    <rect id="Rechteck_967" data-name="Rechteck 967" width="55" height="93.659" transform="translate(127 290)" fill="#59c1c4"/>
    <rect id="Rechteck_968" data-name="Rechteck 968" width="55" height="149.854" transform="translate(205 234)" fill="#59c1c4"/>
    <rect id="Rechteck_969" data-name="Rechteck 969" width="55" height="224" transform="translate(282 160)" fill="#59c1c4"/>
    <path id="Pfad_4099" data-name="Pfad 4099" d="M10.62,15.52c0-2.86-1.64-4.48-4.18-4.48a3.937,3.937,0,0,0-2.6.9c.52-2.6,1.86-3.42,4.58-4.28a.631.631,0,0,0,.44-.76l-.14-.58a.694.694,0,0,0-.76-.46C3.34,6.9,1.08,9.58,1.08,14.5c0,3.8,1.98,5.76,4.88,5.76A4.409,4.409,0,0,0,10.62,15.52Zm-2.48.04c0,1.84-.76,2.82-2.18,2.82-1.62,0-2.36-1.02-2.36-3.58,0-.36,0-.7.02-1.02a3.338,3.338,0,0,1,2.32-.88C7.4,12.9,8.14,13.82,8.14,15.56Zm14.94-1.98c0-4.52-1.98-6.6-5.18-6.6-3.14,0-5.18,2.18-5.18,6.68,0,4.54,2,6.58,5.2,6.58C21.14,20.24,23.08,18.16,23.08,13.58Zm-7.82,0c0-3.42.74-4.76,2.64-4.76s2.64,1.34,2.64,4.82c0,3.46-.74,4.76-2.64,4.76S15.26,17.06,15.26,13.58Zm20.36,0c0-4.52-1.98-6.6-5.18-6.6-3.14,0-5.18,2.18-5.18,6.68,0,4.54,2,6.58,5.2,6.58C33.68,20.24,35.62,18.16,35.62,13.58Zm-7.82,0c0-3.42.74-4.76,2.64-4.76s2.64,1.34,2.64,4.82c0,3.46-.74,4.76-2.64,4.76S27.8,17.06,27.8,13.58Z" transform="translate(64.5 361) rotate(-90)" fill="#22283c"/>
    <rect id="Rechteck_965" data-name="Rechteck 965" width="55" height="30" rx="15" transform="translate(50 400)" fill="#ddf2f3"/>
    <path id="Pfad_4097" data-name="Pfad 4097" d="M5.992,0a.436.436,0,0,0,.434-.434v-.5a.436.436,0,0,0-.434-.434H2.52c2.94-2.2,3.752-3.346,3.752-5.054,0-1.834-1.162-2.688-2.926-2.688a4.784,4.784,0,0,0-2.408.588.485.485,0,0,0-.21.6l.2.434a.408.408,0,0,0,.56.2,3.509,3.509,0,0,1,1.68-.42c.882,0,1.344.42,1.344,1.442,0,1.246-.672,2.128-3.556,4.522a.939.939,0,0,0-.336.714v.6A.436.436,0,0,0,1.05,0Zm9.156-4.494c0-3.164-1.386-4.62-3.626-4.62-2.2,0-3.626,1.526-3.626,4.676C7.9-1.26,9.3.168,11.536.168S15.148-1.288,15.148-4.494Zm-5.474,0c0-2.394.518-3.332,1.848-3.332s1.848.938,1.848,3.374S12.852-1.12,11.522-1.12,9.674-2.058,9.674-4.494ZM21.84,0a.436.436,0,0,0,.434-.434v-.5a.436.436,0,0,0-.434-.434H18.368c2.94-2.2,3.752-3.346,3.752-5.054,0-1.834-1.162-2.688-2.926-2.688a4.784,4.784,0,0,0-2.408.588.485.485,0,0,0-.21.6l.2.434a.408.408,0,0,0,.56.2,3.509,3.509,0,0,1,1.68-.42c.882,0,1.344.42,1.344,1.442,0,1.246-.672,2.128-3.556,4.522a.939.939,0,0,0-.336.714v.6A.436.436,0,0,0,16.9,0Zm7.63-2.156A2.3,2.3,0,0,0,27.8-4.48a2.144,2.144,0,0,0,1.358-2.226c0-1.47-1.05-2.408-2.8-2.408A5.839,5.839,0,0,0,24-8.638a.465.465,0,0,0-.238.588l.14.392a.44.44,0,0,0,.56.252,4.566,4.566,0,0,1,1.61-.308c1.008,0,1.386.392,1.386,1.2,0,.966-.392,1.4-1.554,1.4h-.392a.371.371,0,0,0-.364.364v.616a.317.317,0,0,0,.322.322H25.8c1.316,0,1.862.35,1.862,1.54,0,1.26-.476,1.75-1.848,1.75a8.555,8.555,0,0,1-1.638-.2.439.439,0,0,0-.518.336l-.1.462A.462.462,0,0,0,23.87.63,7.587,7.587,0,0,0,26,.924C28.49.924,29.47-.308,29.47-2.156Z" transform="translate(63 419)" fill="#0c5e69"/>
    <rect id="Rechteck_972" data-name="Rechteck 972" width="55" height="30" rx="15" transform="translate(127 400)" fill="#ddf2f3"/>
    <path id="Pfad_4096" data-name="Pfad 4096" d="M17.882,14a.436.436,0,0,0,.434-.434v-.5a.436.436,0,0,0-.434-.434H14.41c2.94-2.2,3.752-3.346,3.752-5.054,0-1.834-1.162-2.688-2.926-2.688a4.784,4.784,0,0,0-2.408.588.485.485,0,0,0-.21.6l.2.434a.408.408,0,0,0,.56.2,3.509,3.509,0,0,1,1.68-.42c.882,0,1.344.42,1.344,1.442,0,1.246-.672,2.128-3.556,4.522a.939.939,0,0,0-.336.714v.6A.436.436,0,0,0,12.94,14Zm9.156-4.494c0-3.164-1.386-4.62-3.626-4.62-2.2,0-3.626,1.526-3.626,4.676,0,3.178,1.4,4.606,3.64,4.606S27.038,12.712,27.038,9.506Zm-5.474,0c0-2.394.518-3.332,1.848-3.332s1.848.938,1.848,3.374-.518,3.332-1.848,3.332S21.564,11.942,21.564,9.506ZM33.73,14a.436.436,0,0,0,.434-.434v-.5a.436.436,0,0,0-.434-.434H30.258c2.94-2.2,3.752-3.346,3.752-5.054,0-1.834-1.162-2.688-2.926-2.688a4.784,4.784,0,0,0-2.408.588.485.485,0,0,0-.21.6l.2.434a.408.408,0,0,0,.56.2,3.509,3.509,0,0,1,1.68-.42c.882,0,1.344.42,1.344,1.442,0,1.246-.672,2.128-3.556,4.522a.939.939,0,0,0-.336.714v.6a.436.436,0,0,0,.434.434Zm6.146-1.316v1.624a.436.436,0,0,0,.434.434h.784a.436.436,0,0,0,.434-.434V12.684h.546a.436.436,0,0,0,.434-.434v-.518a.436.436,0,0,0-.434-.434h-.546V7.938a.373.373,0,0,0-.434-.364l-.784.14a.511.511,0,0,0-.434.5V11.3H37.188L39.736,5.46a.281.281,0,0,0-.266-.392h-.854a.645.645,0,0,0-.6.392l-2.3,5.32a2.35,2.35,0,0,0-.168.826v.644a.436.436,0,0,0,.434.434Z" transform="translate(127 405)" fill="#0c5e69"/>
    <rect id="Rechteck_972-2" data-name="Rechteck 972" width="55" height="30" rx="15" transform="translate(205 400)" fill="#ddf2f3"/>
    <path id="Pfad_4095" data-name="Pfad 4095" d="M16.328,14a.436.436,0,0,0,.434-.434v-.5a.436.436,0,0,0-.434-.434H12.856c2.94-2.2,3.752-3.346,3.752-5.054,0-1.834-1.162-2.688-2.926-2.688a4.784,4.784,0,0,0-2.408.588.485.485,0,0,0-.21.6l.2.434a.408.408,0,0,0,.56.2,3.509,3.509,0,0,1,1.68-.42c.882,0,1.344.42,1.344,1.442,0,1.246-.672,2.128-3.556,4.522a.939.939,0,0,0-.336.714v.6a.436.436,0,0,0,.434.434Zm9.156-4.494c0-3.164-1.386-4.62-3.626-4.62-2.2,0-3.626,1.526-3.626,4.676,0,3.178,1.4,4.606,3.64,4.606S25.484,12.712,25.484,9.506Zm-5.474,0c0-2.394.518-3.332,1.848-3.332s1.848.938,1.848,3.374-.518,3.332-1.848,3.332S20.01,11.942,20.01,9.506ZM32.176,14a.436.436,0,0,0,.434-.434v-.5a.436.436,0,0,0-.434-.434H28.7c2.94-2.2,3.752-3.346,3.752-5.054,0-1.834-1.162-2.688-2.926-2.688a4.784,4.784,0,0,0-2.408.588.485.485,0,0,0-.21.6l.2.434a.408.408,0,0,0,.56.2,3.509,3.509,0,0,1,1.68-.42c.882,0,1.344.42,1.344,1.442,0,1.246-.672,2.128-3.556,4.522a.939.939,0,0,0-.336.714v.6a.436.436,0,0,0,.434.434Zm7.77-2.534A2.839,2.839,0,0,0,36.8,8.54a3.972,3.972,0,0,0-.756.07l.182-2.128h2.912a.436.436,0,0,0,.434-.434V5.5a.436.436,0,0,0-.434-.434h-3.85a.5.5,0,0,0-.476.448l-.336,4.2a.3.3,0,0,0,.378.322,4.957,4.957,0,0,1,1.33-.154c1.358,0,1.988.42,1.988,1.694s-.63,1.932-2.086,1.932a5.725,5.725,0,0,1-1.47-.2.421.421,0,0,0-.518.308l-.112.462a.462.462,0,0,0,.308.546,6.018,6.018,0,0,0,1.89.294C38.7,14.924,39.946,13.65,39.946,11.466Zm2.751-5.9.514.743a.242.242,0,0,0,.343.065l.171-.114a.257.257,0,0,0,.057-.351l-.572-.776.849-.269a.248.248,0,0,0,.163-.31l-.073-.2a.242.242,0,0,0-.318-.147l-.776.286V3.569a.254.254,0,0,0-.253-.253h-.22a.254.254,0,0,0-.253.253v.923l-.768-.31a.232.232,0,0,0-.318.139l-.073.2a.252.252,0,0,0,.155.318l.849.3-.563.768a.257.257,0,0,0,.057.351l.171.114a.242.242,0,0,0,.343-.065Z" transform="translate(205 405)" fill="#0c5e69"/>
    <rect id="Rechteck_972-3" data-name="Rechteck 972" width="55" height="30" rx="15" transform="translate(282 400)" fill="#ddf2f3"/>
    <path id="Pfad_4094" data-name="Pfad 4094" d="M15.9,14a.436.436,0,0,0,.434-.434v-.5a.436.436,0,0,0-.434-.434H12.429c2.94-2.2,3.752-3.346,3.752-5.054,0-1.834-1.162-2.688-2.926-2.688a4.784,4.784,0,0,0-2.408.588.485.485,0,0,0-.21.6l.2.434a.408.408,0,0,0,.56.2,3.509,3.509,0,0,1,1.68-.42c.882,0,1.344.42,1.344,1.442,0,1.246-.672,2.128-3.556,4.522a.939.939,0,0,0-.336.714v.6a.436.436,0,0,0,.434.434Zm9.156-4.494c0-3.164-1.386-4.62-3.626-4.62-2.2,0-3.626,1.526-3.626,4.676,0,3.178,1.4,4.606,3.64,4.606S25.057,12.712,25.057,9.506Zm-5.474,0c0-2.394.518-3.332,1.848-3.332s1.848.938,1.848,3.374-.518,3.332-1.848,3.332S19.583,11.942,19.583,9.506ZM31.749,14a.436.436,0,0,0,.434-.434v-.5a.436.436,0,0,0-.434-.434H28.277c2.94-2.2,3.752-3.346,3.752-5.054,0-1.834-1.162-2.688-2.926-2.688a4.784,4.784,0,0,0-2.408.588.485.485,0,0,0-.21.6l.2.434a.408.408,0,0,0,.56.2,3.509,3.509,0,0,1,1.68-.42c.882,0,1.344.42,1.344,1.442,0,1.246-.672,2.128-3.556,4.522a.939.939,0,0,0-.336.714v.6a.436.436,0,0,0,.434.434ZM40.4,10.864a2.8,2.8,0,0,0-2.926-3.136,2.756,2.756,0,0,0-1.82.63c.364-1.82,1.3-2.394,3.206-3a.442.442,0,0,0,.308-.532l-.1-.406a.486.486,0,0,0-.532-.322c-3.234.728-4.816,2.6-4.816,6.048,0,2.66,1.386,4.032,3.416,4.032A3.086,3.086,0,0,0,40.4,10.864Zm-1.736.028c0,1.288-.532,1.974-1.526,1.974-1.134,0-1.652-.714-1.652-2.506,0-.252,0-.49.014-.714a2.337,2.337,0,0,1,1.624-.616C38.147,9.03,38.665,9.674,38.665,10.892Zm4.459-5.33.514.743a.242.242,0,0,0,.343.065l.171-.114a.257.257,0,0,0,.057-.351l-.572-.776.849-.269a.248.248,0,0,0,.163-.31l-.073-.2a.242.242,0,0,0-.318-.147l-.776.286V3.569a.254.254,0,0,0-.253-.253h-.22a.254.254,0,0,0-.253.253v.923l-.768-.31a.232.232,0,0,0-.318.139l-.073.2a.252.252,0,0,0,.155.318l.849.3-.563.768a.257.257,0,0,0,.057.351l.171.114a.242.242,0,0,0,.343-.065Z" transform="translate(282 405)" fill="#0c5e69"/>
    <path id="Pfad_4100" data-name="Pfad 4100" d="M9.46,16.38c0-2.74-1.94-4.18-4.5-4.18a5.675,5.675,0,0,0-1.08.1l.26-3.04H8.3a.623.623,0,0,0,.62-.62V7.86a.623.623,0,0,0-.62-.62H2.8a.71.71,0,0,0-.68.64l-.48,6a.431.431,0,0,0,.54.46,7.081,7.081,0,0,1,1.9-.22c1.94,0,2.84.6,2.84,2.42s-.9,2.76-2.98,2.76a8.178,8.178,0,0,1-2.1-.28.6.6,0,0,0-.74.44l-.16.66a.661.661,0,0,0,.44.78,8.6,8.6,0,0,0,2.7.42C7.68,21.32,9.46,19.5,9.46,16.38Zm5.44,2.24a1.58,1.58,0,1,0-3.16,0,1.58,1.58,0,0,0,3.16,0Zm12.66-5.04c0-4.52-1.98-6.6-5.18-6.6-3.14,0-5.18,2.18-5.18,6.68,0,4.54,2,6.58,5.2,6.58C25.62,20.24,27.56,18.16,27.56,13.58Zm-7.82,0c0-3.42.74-4.76,2.64-4.76s2.64,1.34,2.64,4.82c0,3.46-.74,4.76-2.64,4.76S19.74,17.06,19.74,13.58Zm20.36,0c0-4.52-1.98-6.6-5.18-6.6-3.14,0-5.18,2.18-5.18,6.68,0,4.54,2,6.58,5.2,6.58C38.16,20.24,40.1,18.16,40.1,13.58Zm-7.82,0c0-3.42.74-4.76,2.64-4.76s2.64,1.34,2.64,4.82c0,3.46-.74,4.76-2.64,4.76S32.28,17.06,32.28,13.58Zm20.36,0c0-4.52-1.98-6.6-5.18-6.6-3.14,0-5.18,2.18-5.18,6.68,0,4.54,2,6.58,5.2,6.58C50.7,20.24,52.64,18.16,52.64,13.58Zm-7.82,0c0-3.42.74-4.76,2.64-4.76s2.64,1.34,2.64,4.82c0,3.46-.74,4.76-2.64,4.76S44.82,17.06,44.82,13.58Z" transform="translate(138 280) rotate(-90)" fill="#22283c"/>
    <path id="Pfad_4101" data-name="Pfad 4101" d="M10.46,16.36c0-1.64-.66-2.86-2.72-3.72,1.68-.76,2.32-1.78,2.32-3.2,0-2.16-1.66-3.54-4.22-3.54-2.62,0-4.28,1.32-4.28,3.62a3.484,3.484,0,0,0,2,3.36,3.527,3.527,0,0,0-2.52,3.48c0,2.12,1.42,3.9,4.66,3.9C8.68,20.26,10.46,18.84,10.46,16.36Zm-2.48.2c0,1.18-.74,1.92-2.24,1.92-1.46,0-2.34-.58-2.34-2.22a2.656,2.656,0,0,1,1.64-2.54l1.12.44C7.64,14.74,7.98,15.46,7.98,16.56ZM5.8,7.7c1.24,0,1.9.58,1.9,1.74,0,1.02-.3,1.68-1.66,2.36l-.44-.18c-1.38-.6-1.64-1.2-1.64-2.16C3.96,8.28,4.58,7.7,5.8,7.7Zm10,10.92a1.58,1.58,0,1,0-3.16,0,1.58,1.58,0,0,0,3.16,0Zm12.66-5.04c0-4.52-1.98-6.6-5.18-6.6-3.14,0-5.18,2.18-5.18,6.68,0,4.54,2,6.58,5.2,6.58C26.52,20.24,28.46,18.16,28.46,13.58Zm-7.82,0c0-3.42.74-4.76,2.64-4.76s2.64,1.34,2.64,4.82c0,3.46-.74,4.76-2.64,4.76S20.64,17.06,20.64,13.58Zm20.36,0c0-4.52-1.98-6.6-5.18-6.6-3.14,0-5.18,2.18-5.18,6.68,0,4.54,2,6.58,5.2,6.58C39.06,20.24,41,18.16,41,13.58Zm-7.82,0c0-3.42.74-4.76,2.64-4.76s2.64,1.34,2.64,4.82c0,3.46-.74,4.76-2.64,4.76S33.18,17.06,33.18,13.58Zm20.36,0c0-4.52-1.98-6.6-5.18-6.6-3.14,0-5.18,2.18-5.18,6.68,0,4.54,2,6.58,5.2,6.58C51.6,20.24,53.54,18.16,53.54,13.58Zm-7.82,0c0-3.42.74-4.76,2.64-4.76S51,10.16,51,13.64c0,3.46-.74,4.76-2.64,4.76S45.72,17.06,45.72,13.58Z" transform="translate(218 224) rotate(-90)" fill="#22283c"/>
    <path id="Pfad_4102" data-name="Pfad 4102" d="M7.82,20a.623.623,0,0,0,.62-.62v-.64a.623.623,0,0,0-.62-.62H6.28V7.76a.623.623,0,0,0-.62-.62H5.18a1.95,1.95,0,0,0-1.12.4L1.38,9.7a.767.767,0,0,0-.2.94l.12.2a.611.611,0,0,0,.84.28l1.78-.88v7.88H2.08a.623.623,0,0,0-.62.62v.64a.623.623,0,0,0,.62.62ZM17.9,20a.623.623,0,0,0,.62-.62v-.72a.623.623,0,0,0-.62-.62H12.94c4.2-3.14,5.36-4.78,5.36-7.22,0-2.62-1.66-3.84-4.18-3.84a6.834,6.834,0,0,0-3.44.84.693.693,0,0,0-.3.86l.28.62a.583.583,0,0,0,.8.28,5.013,5.013,0,0,1,2.4-.6c1.26,0,1.92.6,1.92,2.06,0,1.78-.96,3.04-5.08,6.46a1.342,1.342,0,0,0-.48,1.02v.86a.623.623,0,0,0,.62.62Zm6.02-1.38a1.58,1.58,0,1,0-3.16,0,1.58,1.58,0,0,0,3.16,0Zm12.66-5.04c0-4.52-1.98-6.6-5.18-6.6-3.14,0-5.18,2.18-5.18,6.68,0,4.54,2,6.58,5.2,6.58C34.64,20.24,36.58,18.16,36.58,13.58Zm-7.82,0c0-3.42.74-4.76,2.64-4.76s2.64,1.34,2.64,4.82c0,3.46-.74,4.76-2.64,4.76S28.76,17.06,28.76,13.58Zm20.36,0c0-4.52-1.98-6.6-5.18-6.6-3.14,0-5.18,2.18-5.18,6.68,0,4.54,2,6.58,5.2,6.58C47.18,20.24,49.12,18.16,49.12,13.58Zm-7.82,0c0-3.42.74-4.76,2.64-4.76s2.64,1.34,2.64,4.82c0,3.46-.74,4.76-2.64,4.76S41.3,17.06,41.3,13.58Zm20.36,0c0-4.52-1.98-6.6-5.18-6.6-3.14,0-5.18,2.18-5.18,6.68,0,4.54,2,6.58,5.2,6.58C59.72,20.24,61.66,18.16,61.66,13.58Zm-7.82,0c0-3.42.74-4.76,2.64-4.76s2.64,1.34,2.64,4.82c0,3.46-.74,4.76-2.64,4.76S53.84,17.06,53.84,13.58Z" transform="translate(297 150) rotate(-90)" fill="#22283c"/>
    <path id="Pfad_4098" data-name="Pfad 4098" d="M-70.994-5.88l-.56-.406.8-1.316-1.358-.56.21-.644,1.428.35.126-1.512h.686l.126,1.5,1.442-.336.21.644-1.358.56.784,1.316-.546.406L-70-7.084ZM-65.814,0V-9.184h1.162v4.606h.042l3.822-4.606h1.316l-2.87,3.5L-59.024,0h-1.3L-63.07-4.774l-1.582,1.862V0Zm10.542.168a3.022,3.022,0,0,1-1.547-.42A3.113,3.113,0,0,1-57.981-1.47a3.91,3.91,0,0,1-.441-1.918,3.972,3.972,0,0,1,.441-1.946,3.113,3.113,0,0,1,1.162-1.218,3.022,3.022,0,0,1,1.547-.42,3.011,3.011,0,0,1,1.554.42,3.13,3.13,0,0,1,1.155,1.218,3.972,3.972,0,0,1,.441,1.946,3.91,3.91,0,0,1-.441,1.918A3.13,3.13,0,0,1-53.718-.252,3.011,3.011,0,0,1-55.272.168Zm0-.952A1.69,1.69,0,0,0-53.851-1.5a3.065,3.065,0,0,0,.539-1.883,3.121,3.121,0,0,0-.539-1.9,1.685,1.685,0,0,0-1.421-.728,1.691,1.691,0,0,0-1.414.728,3.092,3.092,0,0,0-.546,1.9A3.037,3.037,0,0,0-56.686-1.5,1.7,1.7,0,0,0-55.272-.784ZM-50.33,0V-6.8h.952l.1.98h.042A5.433,5.433,0,0,1-48.2-6.643a2.367,2.367,0,0,1,1.246-.329,1.821,1.821,0,0,1,1.575.679,3.327,3.327,0,0,1,.5,1.981V0h-1.148V-4.158a2.436,2.436,0,0,0-.308-1.386,1.118,1.118,0,0,0-.98-.434,1.682,1.682,0,0,0-.931.266,5.877,5.877,0,0,0-.931.784V0Zm9.436.168A3.581,3.581,0,0,1-42.28-.1,4.72,4.72,0,0,1-43.428-.77l.574-.77a5.164,5.164,0,0,0,.924.581,2.438,2.438,0,0,0,1.078.231,1.426,1.426,0,0,0,1.008-.315.993.993,0,0,0,.336-.749.811.811,0,0,0-.231-.588,1.891,1.891,0,0,0-.588-.4q-.357-.161-.735-.3-.476-.182-.938-.413a2.206,2.206,0,0,1-.756-.6,1.475,1.475,0,0,1-.294-.945,1.768,1.768,0,0,1,.623-1.379A2.515,2.515,0,0,1-40.7-6.972a3.068,3.068,0,0,1,1.176.224,3.647,3.647,0,0,1,.938.546l-.56.728a3.657,3.657,0,0,0-.728-.434,2.011,2.011,0,0,0-.826-.168,1.31,1.31,0,0,0-.945.294.93.93,0,0,0-.3.686.7.7,0,0,0,.21.525,1.835,1.835,0,0,0,.546.35q.336.147.714.3.49.182.966.413a2.307,2.307,0,0,1,.791.616A1.575,1.575,0,0,1-38.4-1.862a1.874,1.874,0,0,1-.287,1.008,2.046,2.046,0,0,1-.84.742A3,3,0,0,1-40.894.168Zm6.846,0A3.252,3.252,0,0,1-35.7-.259a3.068,3.068,0,0,1-1.176-1.225,3.93,3.93,0,0,1-.434-1.9,3.91,3.91,0,0,1,.441-1.918,3.276,3.276,0,0,1,1.141-1.232,2.747,2.747,0,0,1,1.47-.434,2.443,2.443,0,0,1,2.009.868,3.569,3.569,0,0,1,.707,2.324q0,.182-.007.357a1.725,1.725,0,0,1-.035.3h-4.592A2.668,2.668,0,0,0-35.5-1.4a2.087,2.087,0,0,0,1.589.644,2.675,2.675,0,0,0,.9-.147,4,4,0,0,0,.791-.385l.406.756a5.26,5.26,0,0,1-.987.49A3.51,3.51,0,0,1-34.048.168ZM-36.19-3.948h3.64a2.437,2.437,0,0,0-.441-1.575,1.511,1.511,0,0,0-1.239-.539,1.789,1.789,0,0,0-1.281.553A2.484,2.484,0,0,0-36.19-3.948ZM-29.862,0V-6.8h.952l.1,1.232h.042a3.1,3.1,0,0,1,.854-1.022,1.764,1.764,0,0,1,1.078-.378,1.809,1.809,0,0,1,.728.14l-.224,1.008a2.589,2.589,0,0,0-.308-.084,1.828,1.828,0,0,0-.35-.028,1.525,1.525,0,0,0-.9.35,2.785,2.785,0,0,0-.819,1.218V0Zm6.678,0-2.45-6.8h1.19l1.288,3.864q.154.5.315,1.008t.315.994h.056q.154-.49.315-.994t.3-1.008L-20.566-6.8h1.134L-21.84,0Zm6.356.168a2.043,2.043,0,0,1-1.421-.511,1.815,1.815,0,0,1-.567-1.421,1.887,1.887,0,0,1,1-1.715,8.242,8.242,0,0,1,3.171-.833,2.828,2.828,0,0,0-.119-.826,1.279,1.279,0,0,0-.42-.637,1.333,1.333,0,0,0-.861-.245A2.756,2.756,0,0,0-17.15-5.8a5.4,5.4,0,0,0-.924.5l-.448-.8a7.322,7.322,0,0,1,1.169-.595,3.9,3.9,0,0,1,1.505-.287,2.09,2.09,0,0,1,1.806.763,3.367,3.367,0,0,1,.56,2.037V0h-.952l-.1-.812h-.042a5.924,5.924,0,0,1-1.043.686A2.593,2.593,0,0,1-16.828.168Zm.336-.924a1.893,1.893,0,0,0,.924-.238,5.188,5.188,0,0,0,.924-.672v-1.89a6.334,6.334,0,0,0-2.373.63A1.241,1.241,0,0,0-17.7-1.848a.968.968,0,0,0,.35.833A1.4,1.4,0,0,0-16.492-.756Zm7.1.924a1.7,1.7,0,0,1-1.519-.63A2.865,2.865,0,0,1-11.34-2.1V-5.866h-1.008v-.868l1.064-.07.14-1.9h.966v1.9h1.834v.938h-1.834v3.78a1.733,1.733,0,0,0,.231.973.915.915,0,0,0,.819.343,1.369,1.369,0,0,0,.392-.063q.21-.063.378-.119l.224.868a5.952,5.952,0,0,1-.609.175A2.849,2.849,0,0,1-9.394.168ZM-6.8,0V-6.8h1.148V0Zm.588-8.2a.777.777,0,0,1-.553-.2.721.721,0,0,1-.217-.553.726.726,0,0,1,.217-.546.763.763,0,0,1,.553-.21.763.763,0,0,1,.553.21.726.726,0,0,1,.217.546.721.721,0,0,1-.217.553A.777.777,0,0,1-6.216-8.2ZM-1.89,0-4.34-6.8h1.19L-1.862-2.94q.154.5.315,1.008t.315.994h.056q.154-.49.315-.994t.3-1.008L.728-6.8H1.862L-.546,0ZM5.88.168A3.252,3.252,0,0,1,4.228-.259,3.068,3.068,0,0,1,3.052-1.484a3.93,3.93,0,0,1-.434-1.9,3.91,3.91,0,0,1,.441-1.918A3.276,3.276,0,0,1,4.2-6.538a2.747,2.747,0,0,1,1.47-.434A2.443,2.443,0,0,1,7.679-6.1,3.569,3.569,0,0,1,8.386-3.78q0,.182-.007.357a1.725,1.725,0,0,1-.035.3H3.752A2.668,2.668,0,0,0,4.431-1.4,2.087,2.087,0,0,0,6.02-.756a2.675,2.675,0,0,0,.9-.147,4,4,0,0,0,.791-.385l.406.756a5.26,5.26,0,0,1-.987.49A3.51,3.51,0,0,1,5.88.168ZM3.738-3.948h3.64a2.437,2.437,0,0,0-.441-1.575A1.511,1.511,0,0,0,5.7-6.062a1.789,1.789,0,0,0-1.281.553A2.484,2.484,0,0,0,3.738-3.948ZM15.526.168A4.323,4.323,0,0,1,13.734-.2a4.621,4.621,0,0,1-1.428-.987l.7-.812a3.831,3.831,0,0,0,1.155.833,3.186,3.186,0,0,0,1.379.315,2.173,2.173,0,0,0,1.414-.413,1.335,1.335,0,0,0,.5-1.085,1.263,1.263,0,0,0-.2-.756,1.707,1.707,0,0,0-.546-.476q-.343-.2-.777-.392L14.616-4.55a4.782,4.782,0,0,1-.861-.476,2.517,2.517,0,0,1-.714-.756,2.11,2.11,0,0,1-.287-1.134,2.2,2.2,0,0,1,.371-1.253,2.514,2.514,0,0,1,1.029-.868,3.394,3.394,0,0,1,1.484-.315,3.675,3.675,0,0,1,1.526.315,3.83,3.83,0,0,1,1.19.819l-.63.756a3.273,3.273,0,0,0-.931-.637,2.774,2.774,0,0,0-1.155-.231,1.966,1.966,0,0,0-1.239.364,1.176,1.176,0,0,0-.469.98,1.113,1.113,0,0,0,.231.721,1.8,1.8,0,0,0,.581.469q.35.182.714.336l1.3.56a4.641,4.641,0,0,1,.959.539,2.382,2.382,0,0,1,.679.77,2.332,2.332,0,0,1,.252,1.141,2.416,2.416,0,0,1-.378,1.323,2.639,2.639,0,0,1-1.078.945A3.687,3.687,0,0,1,15.526.168Zm7.5,0a3.191,3.191,0,0,1-1.624-.42A2.957,2.957,0,0,1,20.258-1.47a4.07,4.07,0,0,1-.42-1.918,3.873,3.873,0,0,1,.455-1.946,3.147,3.147,0,0,1,1.2-1.218,3.252,3.252,0,0,1,1.617-.42,2.589,2.589,0,0,1,1.155.238,3.515,3.515,0,0,1,.833.56l-.588.756a2.882,2.882,0,0,0-.623-.434,1.593,1.593,0,0,0-.735-.168,1.906,1.906,0,0,0-1.1.329,2.193,2.193,0,0,0-.756.924,3.276,3.276,0,0,0-.273,1.379A2.909,2.909,0,0,0,21.609-1.5a1.858,1.858,0,0,0,1.519.721,1.944,1.944,0,0,0,.882-.2,3.144,3.144,0,0,0,.714-.483l.5.77a3.644,3.644,0,0,1-1.022.637A3.054,3.054,0,0,1,23.03.168ZM26.726,0V-9.968h1.148v2.716l-.042,1.4a6.24,6.24,0,0,1,1.029-.791A2.33,2.33,0,0,1,30.1-6.972a1.821,1.821,0,0,1,1.575.679,3.327,3.327,0,0,1,.5,1.981V0H31.024V-4.158a2.436,2.436,0,0,0-.308-1.386,1.118,1.118,0,0,0-.98-.434,1.682,1.682,0,0,0-.931.266,5.877,5.877,0,0,0-.931.784V0ZM35.91.168a2.043,2.043,0,0,1-1.421-.511,1.815,1.815,0,0,1-.567-1.421,1.887,1.887,0,0,1,1-1.715,8.242,8.242,0,0,1,3.171-.833,2.828,2.828,0,0,0-.119-.826,1.279,1.279,0,0,0-.42-.637,1.333,1.333,0,0,0-.861-.245,2.756,2.756,0,0,0-1.106.224,5.4,5.4,0,0,0-.924.5l-.448-.8a7.322,7.322,0,0,1,1.169-.595,3.9,3.9,0,0,1,1.5-.287,2.09,2.09,0,0,1,1.806.763,3.367,3.367,0,0,1,.56,2.037V0H38.3l-.1-.812h-.042a5.924,5.924,0,0,1-1.043.686A2.593,2.593,0,0,1,35.91.168Zm.336-.924a1.893,1.893,0,0,0,.924-.238,5.188,5.188,0,0,0,.924-.672v-1.89a6.334,6.334,0,0,0-2.373.63,1.241,1.241,0,0,0-.679,1.078.968.968,0,0,0,.35.833A1.4,1.4,0,0,0,36.246-.756Zm-.658-7.462a.67.67,0,0,1-.5-.2.688.688,0,0,1-.2-.5.688.688,0,0,1,.2-.5.67.67,0,0,1,.5-.2.653.653,0,0,1,.49.2.688.688,0,0,1,.2.5.688.688,0,0,1-.2.5A.653.653,0,0,1,35.588-8.218Zm2.688,0a.653.653,0,0,1-.49-.2.688.688,0,0,1-.2-.5.688.688,0,0,1,.2-.5.653.653,0,0,1,.49-.2.67.67,0,0,1,.5.2.688.688,0,0,1,.2.5.688.688,0,0,1-.2.5A.67.67,0,0,1,38.276-8.218ZM43.344.168a1.7,1.7,0,0,1-1.519-.63A2.865,2.865,0,0,1,41.4-2.1V-5.866H40.39v-.868l1.064-.07.14-1.9h.966v1.9h1.834v.938H42.56v3.78a1.733,1.733,0,0,0,.231.973.915.915,0,0,0,.819.343A1.369,1.369,0,0,0,44-.833q.21-.063.378-.119l.224.868A5.952,5.952,0,0,1,44,.091,2.85,2.85,0,0,1,43.344.168ZM45.22,0V-.616L48.8-5.866H45.612V-6.8H50.26v.616L46.676-.938h3.7V0Zm8.512.168A1.84,1.84,0,0,1,52.15-.511a3.292,3.292,0,0,1-.5-1.981V-6.8h1.162v4.158a2.482,2.482,0,0,0,.3,1.386,1.1,1.1,0,0,0,.973.434,1.675,1.675,0,0,0,.945-.273,4.063,4.063,0,0,0,.889-.875V-6.8h1.148V0h-.952l-.1-1.064h-.042a4.463,4.463,0,0,1-1.008.9A2.258,2.258,0,0,1,53.732.168ZM59.36,0V-6.8h.952l.1.98h.042a5.433,5.433,0,0,1,1.036-.819,2.367,2.367,0,0,1,1.246-.329,1.821,1.821,0,0,1,1.575.679,3.327,3.327,0,0,1,.5,1.981V0H63.658V-4.158a2.436,2.436,0,0,0-.308-1.386,1.118,1.118,0,0,0-.98-.434,1.682,1.682,0,0,0-.931.266,5.877,5.877,0,0,0-.931.784V0Zm9.954,3.136a3.867,3.867,0,0,1-2.03-.476A1.5,1.5,0,0,1,66.5,1.3a1.48,1.48,0,0,1,.266-.833,2.573,2.573,0,0,1,.728-.707V-.294a1.311,1.311,0,0,1-.427-.434,1.243,1.243,0,0,1-.175-.672,1.237,1.237,0,0,1,.238-.756,2.147,2.147,0,0,1,.5-.5v-.056a2.752,2.752,0,0,1-.609-.756,2.128,2.128,0,0,1-.273-1.078,2.335,2.335,0,0,1,.35-1.288,2.331,2.331,0,0,1,.938-.84,2.809,2.809,0,0,1,1.274-.294,2.784,2.784,0,0,1,.532.049,2.6,2.6,0,0,1,.434.119h2.366v.882h-1.4a1.773,1.773,0,0,1,.4.6,2,2,0,0,1,.161.8,2.31,2.31,0,0,1-.336,1.26,2.261,2.261,0,0,1-.9.819,2.722,2.722,0,0,1-1.26.287,2.254,2.254,0,0,1-1.022-.238,1.641,1.641,0,0,0-.308.343.827.827,0,0,0-.126.469.656.656,0,0,0,.259.532,1.556,1.556,0,0,0,.945.21h1.316a3.325,3.325,0,0,1,1.785.385,1.366,1.366,0,0,1,.6,1.239,1.835,1.835,0,0,1-.42,1.162,2.956,2.956,0,0,1-1.19.861A4.649,4.649,0,0,1,69.314,3.136Zm0-6.062a1.365,1.365,0,0,0,1.015-.441,1.628,1.628,0,0,0,.427-1.183,1.57,1.57,0,0,0-.42-1.162,1.391,1.391,0,0,0-1.022-.42,1.391,1.391,0,0,0-1.022.42,1.57,1.57,0,0,0-.42,1.162A1.628,1.628,0,0,0,68.3-3.367,1.365,1.365,0,0,0,69.314-2.926Zm.168,5.264a2.612,2.612,0,0,0,1.568-.427,1.2,1.2,0,0,0,.588-.959.672.672,0,0,0-.357-.658A2.281,2.281,0,0,0,70.266.112H69.09a3.566,3.566,0,0,1-.427-.028A3.719,3.719,0,0,1,68.208,0a1.859,1.859,0,0,0-.532.56,1.176,1.176,0,0,0-.168.588.98.98,0,0,0,.525.868A2.767,2.767,0,0,0,69.482,2.338Z" transform="translate(194 455)" fill="#22283c" opacity="0.349"/>
  </g>
</svg>
