<svg xmlns="http://www.w3.org/2000/svg" xmlns:xlink="http://www.w3.org/1999/xlink" width="387" height="480" viewBox="0 0 387 480">
  <defs>
    <clipPath id="clip-Unternehmen_nach_Umsatz">
      <rect width="387" height="480"/>
    </clipPath>
  </defs>
  <g id="Unternehmen_nach_Umsatz" data-name="Unternehmen nach Umsatz" clip-path="url(#clip-Unternehmen_nach_Umsatz)">
    <rect width="387" height="480" fill="#fff"/>
    <rect id="Rechteck_965" data-name="Rechteck 965" width="98" height="50" transform="translate(50 140)" fill="#ddf2f3"/>
    <rect id="Rechteck_989" data-name="Rechteck 989" width="260" height="51" transform="translate(50 199)" fill="#ddf2f3"/>
    <rect id="Rechteck_990" data-name="Rechteck 990" width="196" height="50" transform="translate(50 260)" fill="#ddf2f3"/>
    <rect id="Rechteck_991" data-name="Rechteck 991" width="264" height="50" transform="translate(50 320)" fill="#ddf2f3"/>
    <rect id="Rechteck_992" data-name="Rechteck 992" width="287" height="50" transform="translate(50 380)" fill="#ddf2f3"/>
    <path id="Pfad_4105" data-name="Pfad 4105" d="M10.62,15.52c0-2.86-1.64-4.48-4.18-4.48a3.937,3.937,0,0,0-2.6.9c.52-2.6,1.86-3.42,4.58-4.28a.631.631,0,0,0,.44-.76l-.14-.58a.694.694,0,0,0-.76-.46C3.34,6.9,1.08,9.58,1.08,14.5c0,3.8,1.98,5.76,4.88,5.76A4.409,4.409,0,0,0,10.62,15.52Zm-2.48.04c0,1.84-.76,2.82-2.18,2.82-1.62,0-2.36-1.02-2.36-3.58,0-.36,0-.7.02-1.02a3.338,3.338,0,0,1,2.32-.88C7.4,12.9,8.14,13.82,8.14,15.56Zm19.2,1.24c0-2.18-1.28-3.48-3.2-3.48s-3.2,1.28-3.2,3.44c0,2.18,1.28,3.48,3.2,3.48A3.1,3.1,0,0,0,27.34,16.8Zm-8.72-6.32C18.62,8.3,17.34,7,15.42,7c-1.9,0-3.2,1.28-3.2,3.46,0,2.16,1.28,3.46,3.2,3.46A3.1,3.1,0,0,0,18.62,10.48ZM16.26,20a1.117,1.117,0,0,0,.94-.52L24.36,7.76a.342.342,0,0,0-.3-.52H23.3a1.117,1.117,0,0,0-.94.52L15.2,19.48a.342.342,0,0,0,.3.52Zm6.68-3.3c0-1.38.34-1.94,1.2-1.94.84,0,1.18.48,1.18,2.08,0,1.36-.34,1.94-1.18,1.94S22.94,18.28,22.94,16.7Zm-8.7-6.3c0-1.4.32-1.96,1.18-1.96.84,0,1.18.48,1.18,2.08,0,1.38-.34,1.94-1.18,1.94S14.24,11.98,14.24,10.4Z" transform="translate(163 152)" fill="#22283c"/>
    <path id="Pfad_4103" data-name="Pfad 4103" d="M39.6,20a.623.623,0,0,0,.62-.62v-.72a.623.623,0,0,0-.62-.62H34.64C38.84,14.9,40,13.26,40,10.82c0-2.62-1.66-3.84-4.18-3.84a6.834,6.834,0,0,0-3.44.84.693.693,0,0,0-.3.86l.28.62a.583.583,0,0,0,.8.28,5.013,5.013,0,0,1,2.4-.6c1.26,0,1.92.6,1.92,2.06,0,1.78-.96,3.04-5.08,6.46a1.342,1.342,0,0,0-.48,1.02v.86a.623.623,0,0,0,.62.62Zm8.78-1.88v2.32a.623.623,0,0,0,.62.62h1.12a.623.623,0,0,0,.62-.62V18.12h.78a.623.623,0,0,0,.62-.62v-.74a.623.623,0,0,0-.62-.62h-.78v-4.8a.533.533,0,0,0-.62-.52l-1.12.2a.73.73,0,0,0-.62.72v4.4H44.54L48.18,7.8a.4.4,0,0,0-.38-.56H46.58a.922.922,0,0,0-.86.56l-3.28,7.6a3.357,3.357,0,0,0-.24,1.18v.92a.623.623,0,0,0,.62.62ZM69,16.8c0-2.18-1.28-3.48-3.2-3.48s-3.2,1.28-3.2,3.44c0,2.18,1.28,3.48,3.2,3.48A3.1,3.1,0,0,0,69,16.8Zm-8.72-6.32C60.28,8.3,59,7,57.08,7c-1.9,0-3.2,1.28-3.2,3.46,0,2.16,1.28,3.46,3.2,3.46A3.1,3.1,0,0,0,60.28,10.48ZM57.92,20a1.117,1.117,0,0,0,.94-.52L66.02,7.76a.342.342,0,0,0-.3-.52h-.76a1.117,1.117,0,0,0-.94.52L56.86,19.48a.342.342,0,0,0,.3.52Zm6.68-3.3c0-1.38.34-1.94,1.2-1.94.84,0,1.18.48,1.18,2.08,0,1.36-.34,1.94-1.18,1.94S64.6,18.28,64.6,16.7Zm-8.7-6.3c0-1.4.32-1.96,1.18-1.96.84,0,1.18.48,1.18,2.08,0,1.38-.34,1.94-1.18,1.94S55.9,11.98,55.9,10.4Z" transform="translate(220 212)" fill="#22283c"/>
    <path id="Pfad_4104" data-name="Pfad 4104" d="M7.82,20a.623.623,0,0,0,.62-.62v-.64a.623.623,0,0,0-.62-.62H6.28V7.76a.623.623,0,0,0-.62-.62H5.18a1.95,1.95,0,0,0-1.12.4L1.38,9.7a.767.767,0,0,0-.2.94l.12.2a.611.611,0,0,0,.84.28l1.78-.88v7.88H2.08a.623.623,0,0,0-.62.62v.64a.623.623,0,0,0,.62.62ZM19.8,16.36c0-1.64-.66-2.86-2.72-3.72,1.68-.76,2.32-1.78,2.32-3.2,0-2.16-1.66-3.54-4.22-3.54-2.62,0-4.28,1.32-4.28,3.62a3.484,3.484,0,0,0,2,3.36,3.527,3.527,0,0,0-2.52,3.48c0,2.12,1.42,3.9,4.66,3.9C18.02,20.26,19.8,18.84,19.8,16.36Zm-2.48.2c0,1.18-.74,1.92-2.24,1.92-1.46,0-2.34-.58-2.34-2.22a2.656,2.656,0,0,1,1.64-2.54l1.12.44C16.98,14.74,17.32,15.46,17.32,16.56ZM15.14,7.7c1.24,0,1.9.58,1.9,1.74,0,1.02-.3,1.68-1.66,2.36l-.44-.18c-1.38-.6-1.64-1.2-1.64-2.16C13.3,8.28,13.92,7.7,15.14,7.7Zm21.72,9.1c0-2.18-1.28-3.48-3.2-3.48s-3.2,1.28-3.2,3.44c0,2.18,1.28,3.48,3.2,3.48A3.1,3.1,0,0,0,36.86,16.8Zm-8.72-6.32C28.14,8.3,26.86,7,24.94,7c-1.9,0-3.2,1.28-3.2,3.46,0,2.16,1.28,3.46,3.2,3.46A3.1,3.1,0,0,0,28.14,10.48ZM25.78,20a1.117,1.117,0,0,0,.94-.52L33.88,7.76a.342.342,0,0,0-.3-.52h-.76a1.117,1.117,0,0,0-.94.52L24.72,19.48a.342.342,0,0,0,.3.52Zm6.68-3.3c0-1.38.34-1.94,1.2-1.94.84,0,1.18.48,1.18,2.08,0,1.36-.34,1.94-1.18,1.94S32.46,18.28,32.46,16.7Zm-8.7-6.3c0-1.4.32-1.96,1.18-1.96.84,0,1.18.48,1.18,2.08,0,1.38-.34,1.94-1.18,1.94S23.76,11.98,23.76,10.4Z" transform="translate(261 272)" fill="#22283c"/>
    <path id="Pfad_4106" data-name="Pfad 4106" d="M40.84,20a.623.623,0,0,0,.62-.62v-.72a.623.623,0,0,0-.62-.62H35.88c4.2-3.14,5.36-4.78,5.36-7.22,0-2.62-1.66-3.84-4.18-3.84a6.834,6.834,0,0,0-3.44.84.693.693,0,0,0-.3.86l.28.62a.583.583,0,0,0,.8.28,5.013,5.013,0,0,1,2.4-.6c1.26,0,1.92.6,1.92,2.06,0,1.78-.96,3.04-5.08,6.46a1.342,1.342,0,0,0-.48,1.02v.86a.623.623,0,0,0,.62.62Zm11.1-3.62c0-2.74-1.94-4.18-4.5-4.18a5.675,5.675,0,0,0-1.08.1l.26-3.04h4.16a.623.623,0,0,0,.62-.62V7.86a.623.623,0,0,0-.62-.62h-5.5a.71.71,0,0,0-.68.64l-.48,6a.431.431,0,0,0,.54.46,7.081,7.081,0,0,1,1.9-.22c1.94,0,2.84.6,2.84,2.42s-.9,2.76-2.98,2.76a8.178,8.178,0,0,1-2.1-.28.6.6,0,0,0-.74.44l-.16.66a.661.661,0,0,0,.44.78,8.6,8.6,0,0,0,2.7.42C50.16,21.32,51.94,19.5,51.94,16.38ZM69,16.8c0-2.18-1.28-3.48-3.2-3.48s-3.2,1.28-3.2,3.44c0,2.18,1.28,3.48,3.2,3.48A3.1,3.1,0,0,0,69,16.8Zm-8.72-6.32C60.28,8.3,59,7,57.08,7c-1.9,0-3.2,1.28-3.2,3.46,0,2.16,1.28,3.46,3.2,3.46A3.1,3.1,0,0,0,60.28,10.48ZM57.92,20a1.117,1.117,0,0,0,.94-.52L66.02,7.76a.342.342,0,0,0-.3-.52h-.76a1.117,1.117,0,0,0-.94.52L56.86,19.48a.342.342,0,0,0,.3.52Zm6.68-3.3c0-1.38.34-1.94,1.2-1.94.84,0,1.18.48,1.18,2.08,0,1.36-.34,1.94-1.18,1.94S64.6,18.28,64.6,16.7Zm-8.7-6.3c0-1.4.32-1.96,1.18-1.96.84,0,1.18.48,1.18,2.08,0,1.38-.34,1.94-1.18,1.94S55.9,11.98,55.9,10.4Z" transform="translate(224 332)" fill="#22283c"/>
    <path id="Pfad_4111" data-name="Pfad 4111" d="M41.12,20a.623.623,0,0,0,.62-.62v-.72a.623.623,0,0,0-.62-.62H36.16c4.2-3.14,5.36-4.78,5.36-7.22,0-2.62-1.66-3.84-4.18-3.84a6.834,6.834,0,0,0-3.44.84.693.693,0,0,0-.3.86l.28.62a.583.583,0,0,0,.8.28,5.013,5.013,0,0,1,2.4-.6c1.26,0,1.92.6,1.92,2.06,0,1.78-.96,3.04-5.08,6.46a1.342,1.342,0,0,0-.48,1.02v.86a.623.623,0,0,0,.62.62ZM51.52,9.92a2.021,2.021,0,0,0,.4-1.14V7.86a.623.623,0,0,0-.62-.62H44.22a.623.623,0,0,0-.62.62V8.7a.623.623,0,0,0,.62.62h5.44a19.748,19.748,0,0,0-4.62,11.06.629.629,0,0,0,.54.7l1.2.18a.591.591,0,0,0,.66-.54A20.428,20.428,0,0,1,51.52,9.92ZM69,16.8c0-2.18-1.28-3.48-3.2-3.48s-3.2,1.28-3.2,3.44c0,2.18,1.28,3.48,3.2,3.48A3.1,3.1,0,0,0,69,16.8Zm-8.72-6.32C60.28,8.3,59,7,57.08,7c-1.9,0-3.2,1.28-3.2,3.46,0,2.16,1.28,3.46,3.2,3.46A3.1,3.1,0,0,0,60.28,10.48ZM57.92,20a1.117,1.117,0,0,0,.94-.52L66.02,7.76a.342.342,0,0,0-.3-.52h-.76a1.117,1.117,0,0,0-.94.52L56.86,19.48a.342.342,0,0,0,.3.52Zm6.68-3.3c0-1.38.34-1.94,1.2-1.94.84,0,1.18.48,1.18,2.08,0,1.36-.34,1.94-1.18,1.94S64.6,18.28,64.6,16.7Zm-8.7-6.3c0-1.4.32-1.96,1.18-1.96.84,0,1.18.48,1.18,2.08,0,1.38-.34,1.94-1.18,1.94S55.9,11.98,55.9,10.4Z" transform="translate(247 391)" fill="#22283c"/>
    <path id="Pfad_4112" data-name="Pfad 4112" d="M4.718-3.458a.938.938,0,0,0,.322-.686v-.028a.933.933,0,0,0-.322-.672L1.89-7.182a.428.428,0,0,0-.28-.1.447.447,0,0,0-.336.154L.938-6.72A.441.441,0,0,0,.994-6.1l2.352,1.96L.994-2.2a.441.441,0,0,0-.056.616l.336.406a.441.441,0,0,0,.616.056Zm11.172.924A2.839,2.839,0,0,0,12.74-5.46a3.973,3.973,0,0,0-.756.07l.182-2.128h2.912a.436.436,0,0,0,.434-.434V-8.5a.436.436,0,0,0-.434-.434h-3.85a.5.5,0,0,0-.476.448l-.336,4.2a.3.3,0,0,0,.378.322,4.957,4.957,0,0,1,1.33-.154c1.358,0,1.988.42,1.988,1.694S13.482-.49,12.026-.49a5.725,5.725,0,0,1-1.47-.2.421.421,0,0,0-.518.308L9.926.084a.462.462,0,0,0,.308.546,6.018,6.018,0,0,0,1.89.294C14.644.924,15.89-.35,15.89-2.534Zm8.75-1.96c0-3.164-1.386-4.62-3.626-4.62-2.2,0-3.626,1.526-3.626,4.676,0,3.178,1.4,4.606,3.64,4.606S24.64-1.288,24.64-4.494Zm-5.474,0c0-2.394.518-3.332,1.848-3.332s1.848.938,1.848,3.374S22.344-1.12,21.014-1.12,19.166-2.058,19.166-4.494ZM31.108,0a.436.436,0,0,0,.434-.434V-4.942c0-1.4-.07-2.828-.112-3.346h.028a26.292,26.292,0,0,0,.7,3.234l.952,2.94a.62.62,0,0,0,.574.406h.686a.579.579,0,0,0,.56-.42l.98-3.08a25.782,25.782,0,0,0,.728-3.08h.028c-.042.532-.112,1.708-.112,3.318V-.434A.436.436,0,0,0,36.988,0h.784a.436.436,0,0,0,.434-.434v-8.82a.436.436,0,0,0-.434-.434H36.218a.584.584,0,0,0-.56.42L34.5-5.18a11.284,11.284,0,0,0-.378,2.2H34.09a10.309,10.309,0,0,0-.392-2.2l-1.19-4.088a.584.584,0,0,0-.56-.42h-1.47a.436.436,0,0,0-.434.434v8.82A.436.436,0,0,0,30.478,0ZM41.972,0a.436.436,0,0,0,.434-.434V-6.65a.436.436,0,0,0-.434-.434H40.334a.436.436,0,0,0-.434.434v.168a.527.527,0,0,0,.42.518l.5.084V-.434A.436.436,0,0,0,41.258,0Zm.658-9.17a1.013,1.013,0,0,0-1.022-1.036A1.022,1.022,0,0,0,40.586-9.17a1.007,1.007,0,0,0,1.008,1.022A1.013,1.013,0,0,0,42.63-9.17Zm7.476,5.628c0-2.66-1.162-3.724-3-3.724s-2.968,1.036-2.968,3.71S45.29.182,47.124.182,50.106-.882,50.106-3.542Zm-4.27,0c0-2.03.35-2.52,1.274-2.52S48.4-5.586,48.4-3.556c0,2-.35,2.534-1.274,2.534S45.836-1.54,45.836-3.542Zm7.84,2.576a1.111,1.111,0,0,0-1.106-1.12,1.111,1.111,0,0,0-1.106,1.12A1.1,1.1,0,0,0,52.57.14,1.1,1.1,0,0,0,53.676-.966ZM64.008,0a.436.436,0,0,0,.434-.434v-.588a.436.436,0,0,0-.434-.434h-3.15v-2.9h2.268a.436.436,0,0,0,.434-.434v-.546a.436.436,0,0,0-.434-.434H60.858V-8.246H63.8a.436.436,0,0,0,.434-.434v-.574a.436.436,0,0,0-.434-.434H59.6a.436.436,0,0,0-.434.434v8.82A.436.436,0,0,0,59.6,0Zm7.126-.784.126.364a.584.584,0,0,0,.56.42h.364a.436.436,0,0,0,.434-.434v-8.82a.436.436,0,0,0-.434-.434h-.826a.436.436,0,0,0-.434.434v7.308a2.56,2.56,0,0,1-1.736.672c-1.064,0-1.288-.532-1.288-1.708V-9.254a.436.436,0,0,0-.434-.434H66.64a.436.436,0,0,0-.434.434V-3c0,2.352,1.176,3.178,2.716,3.178A2.91,2.91,0,0,0,71.134-.784ZM76.258,0a.436.436,0,0,0,.434-.434V-4.046h.672c.686,0,1.022.224,1.358,1.3L79.45-.42a.584.584,0,0,0,.56.42h.966a.309.309,0,0,0,.294-.406l-.742-2.3c-.322-.98-.686-1.512-1.246-1.708A2.25,2.25,0,0,0,81.06-6.958c0-1.806-1.036-2.73-3.206-2.73H75.432A.436.436,0,0,0,75-9.254v8.82A.436.436,0,0,0,75.432,0Zm.434-8.26h1.176c1.036,0,1.414.392,1.414,1.372,0,1.05-.336,1.54-1.4,1.54h-1.19Z" transform="translate(63 409)" fill="#0c5e69"/>
    <path id="Pfad_4107" data-name="Pfad 4107" d="M5.474,0a.436.436,0,0,0,.434-.434V-.882a.436.436,0,0,0-.434-.434H4.4V-8.568A.436.436,0,0,0,3.962-9H3.626a1.365,1.365,0,0,0-.784.28L.966-7.21a.537.537,0,0,0-.14.658l.084.14a.428.428,0,0,0,.588.2l1.246-.616v5.516H1.456a.436.436,0,0,0-.434.434v.448A.436.436,0,0,0,1.456,0Zm9.072-4.494c0-3.164-1.386-4.62-3.626-4.62-2.2,0-3.626,1.526-3.626,4.676,0,3.178,1.4,4.606,3.64,4.606S14.546-1.288,14.546-4.494Zm-5.474,0c0-2.394.518-3.332,1.848-3.332s1.848.938,1.848,3.374S12.25-1.12,10.92-1.12,9.072-2.058,9.072-4.494ZM21.966-3.15a.436.436,0,0,0,.434-.434v-.532a.436.436,0,0,0-.434-.434H16.45a.436.436,0,0,0-.434.434v.532a.436.436,0,0,0,.434.434Zm7.714.616A2.839,2.839,0,0,0,26.53-5.46a3.973,3.973,0,0,0-.756.07l.182-2.128h2.912a.436.436,0,0,0,.434-.434V-8.5a.436.436,0,0,0-.434-.434h-3.85a.5.5,0,0,0-.476.448l-.336,4.2a.3.3,0,0,0,.378.322,4.957,4.957,0,0,1,1.33-.154c1.358,0,1.988.42,1.988,1.694S27.272-.49,25.816-.49a5.725,5.725,0,0,1-1.47-.2.421.421,0,0,0-.518.308l-.112.462a.462.462,0,0,0,.308.546,6.018,6.018,0,0,0,1.89.294C28.434.924,29.68-.35,29.68-2.534Zm8.75-1.96c0-3.164-1.386-4.62-3.626-4.62-2.2,0-3.626,1.526-3.626,4.676,0,3.178,1.4,4.606,3.64,4.606S38.43-1.288,38.43-4.494Zm-5.474,0c0-2.394.518-3.332,1.848-3.332s1.848.938,1.848,3.374S36.134-1.12,34.8-1.12,32.956-2.058,32.956-4.494ZM44.9,0a.436.436,0,0,0,.434-.434V-4.942c0-1.4-.07-2.828-.112-3.346h.028a26.292,26.292,0,0,0,.7,3.234l.952,2.94a.62.62,0,0,0,.574.406h.686a.579.579,0,0,0,.56-.42l.98-3.08a25.782,25.782,0,0,0,.728-3.08h.028c-.042.532-.112,1.708-.112,3.318V-.434A.436.436,0,0,0,50.778,0h.784A.436.436,0,0,0,52-.434v-8.82a.436.436,0,0,0-.434-.434H50.008a.584.584,0,0,0-.56.42L48.286-5.18a11.284,11.284,0,0,0-.378,2.2H47.88a10.309,10.309,0,0,0-.392-2.2L46.3-9.268a.584.584,0,0,0-.56-.42h-1.47a.436.436,0,0,0-.434.434v8.82A.436.436,0,0,0,44.268,0ZM55.762,0A.436.436,0,0,0,56.2-.434V-6.65a.436.436,0,0,0-.434-.434H54.124a.436.436,0,0,0-.434.434v.168a.527.527,0,0,0,.42.518l.5.084V-.434A.436.436,0,0,0,55.048,0Zm.658-9.17A1.013,1.013,0,0,0,55.4-10.206,1.022,1.022,0,0,0,54.376-9.17a1.007,1.007,0,0,0,1.008,1.022A1.013,1.013,0,0,0,56.42-9.17ZM63.9-3.542c0-2.66-1.162-3.724-3-3.724s-2.968,1.036-2.968,3.71S59.08.182,60.914.182,63.9-.882,63.9-3.542Zm-4.27,0c0-2.03.35-2.52,1.274-2.52s1.288.476,1.288,2.506c0,2-.35,2.534-1.274,2.534S59.626-1.54,59.626-3.542Zm7.84,2.576a1.111,1.111,0,0,0-1.106-1.12,1.111,1.111,0,0,0-1.106,1.12A1.1,1.1,0,0,0,66.36.14,1.1,1.1,0,0,0,67.466-.966ZM77.8,0a.436.436,0,0,0,.434-.434v-.588a.436.436,0,0,0-.434-.434h-3.15v-2.9h2.268a.436.436,0,0,0,.434-.434v-.546a.436.436,0,0,0-.434-.434H74.648V-8.246h2.94a.436.436,0,0,0,.434-.434v-.574a.436.436,0,0,0-.434-.434h-4.2a.436.436,0,0,0-.434.434v8.82A.436.436,0,0,0,73.388,0Zm7.126-.784.126.364a.584.584,0,0,0,.56.42h.364a.436.436,0,0,0,.434-.434v-8.82a.436.436,0,0,0-.434-.434h-.826a.436.436,0,0,0-.434.434v7.308a2.56,2.56,0,0,1-1.736.672c-1.064,0-1.288-.532-1.288-1.708V-9.254a.436.436,0,0,0-.434-.434H80.43A.436.436,0,0,0,80-9.254V-3C80-.644,81.172.182,82.712.182A2.91,2.91,0,0,0,84.924-.784ZM90.048,0a.436.436,0,0,0,.434-.434V-4.046h.672c.686,0,1.022.224,1.358,1.3L93.24-.42A.584.584,0,0,0,93.8,0h.966a.309.309,0,0,0,.294-.406l-.742-2.3c-.322-.98-.686-1.512-1.246-1.708A2.25,2.25,0,0,0,94.85-6.958c0-1.806-1.036-2.73-3.206-2.73H89.222a.436.436,0,0,0-.434.434v8.82A.436.436,0,0,0,89.222,0Zm.434-8.26h1.176c1.036,0,1.414.392,1.414,1.372,0,1.05-.336,1.54-1.4,1.54h-1.19Z" transform="translate(63 350)" fill="#0c5e69"/>
    <path id="Pfad_4108" data-name="Pfad 4108" d="M5.992,0a.436.436,0,0,0,.434-.434v-.5a.436.436,0,0,0-.434-.434H2.52c2.94-2.2,3.752-3.346,3.752-5.054,0-1.834-1.162-2.688-2.926-2.688a4.784,4.784,0,0,0-2.408.588.485.485,0,0,0-.21.6l.2.434a.408.408,0,0,0,.56.2,3.509,3.509,0,0,1,1.68-.42c.882,0,1.344.42,1.344,1.442,0,1.246-.672,2.128-3.556,4.522a.939.939,0,0,0-.336.714v.6A.436.436,0,0,0,1.05,0Zm7.8-3.15a.436.436,0,0,0,.434-.434v-.532a.436.436,0,0,0-.434-.434H8.274a.436.436,0,0,0-.434.434v.532a.436.436,0,0,0,.434.434ZM20.426,0a.436.436,0,0,0,.434-.434V-.882a.436.436,0,0,0-.434-.434H19.348V-8.568A.436.436,0,0,0,18.914-9h-.336a1.365,1.365,0,0,0-.784.28L15.918-7.21a.537.537,0,0,0-.14.658l.084.14a.428.428,0,0,0,.588.2L17.7-6.832v5.516H16.408a.436.436,0,0,0-.434.434v.448A.436.436,0,0,0,16.408,0ZM29.5-4.494c0-3.164-1.386-4.62-3.626-4.62-2.2,0-3.626,1.526-3.626,4.676,0,3.178,1.4,4.606,3.64,4.606S29.5-1.288,29.5-4.494Zm-5.474,0c0-2.394.518-3.332,1.848-3.332s1.848.938,1.848,3.374S27.2-1.12,25.872-1.12,24.024-2.058,24.024-4.494ZM35.966,0A.436.436,0,0,0,36.4-.434V-4.942c0-1.4-.07-2.828-.112-3.346h.028a26.292,26.292,0,0,0,.7,3.234l.952,2.94a.62.62,0,0,0,.574.406h.686a.579.579,0,0,0,.56-.42l.98-3.08a25.782,25.782,0,0,0,.728-3.08h.028c-.042.532-.112,1.708-.112,3.318V-.434A.436.436,0,0,0,41.846,0h.784a.436.436,0,0,0,.434-.434v-8.82a.436.436,0,0,0-.434-.434H41.076a.584.584,0,0,0-.56.42L39.354-5.18a11.284,11.284,0,0,0-.378,2.2h-.028a10.309,10.309,0,0,0-.392-2.2l-1.19-4.088a.584.584,0,0,0-.56-.42h-1.47a.436.436,0,0,0-.434.434v8.82A.436.436,0,0,0,35.336,0ZM46.83,0a.436.436,0,0,0,.434-.434V-6.65a.436.436,0,0,0-.434-.434H45.192a.436.436,0,0,0-.434.434v.168a.527.527,0,0,0,.42.518l.5.084V-.434A.436.436,0,0,0,46.116,0Zm.658-9.17a1.013,1.013,0,0,0-1.022-1.036A1.022,1.022,0,0,0,45.444-9.17a1.007,1.007,0,0,0,1.008,1.022A1.013,1.013,0,0,0,47.488-9.17Zm7.476,5.628c0-2.66-1.162-3.724-3-3.724S49-6.23,49-3.556,50.148.182,51.982.182,54.964-.882,54.964-3.542Zm-4.27,0c0-2.03.35-2.52,1.274-2.52s1.288.476,1.288,2.506c0,2-.35,2.534-1.274,2.534S50.694-1.54,50.694-3.542Zm7.84,2.576a1.111,1.111,0,0,0-1.106-1.12,1.111,1.111,0,0,0-1.106,1.12A1.1,1.1,0,0,0,57.428.14,1.1,1.1,0,0,0,58.534-.966ZM68.866,0A.436.436,0,0,0,69.3-.434v-.588a.436.436,0,0,0-.434-.434h-3.15v-2.9h2.268a.436.436,0,0,0,.434-.434v-.546a.436.436,0,0,0-.434-.434H65.716V-8.246h2.94a.436.436,0,0,0,.434-.434v-.574a.436.436,0,0,0-.434-.434h-4.2a.436.436,0,0,0-.434.434v8.82A.436.436,0,0,0,64.456,0Zm7.126-.784.126.364a.584.584,0,0,0,.56.42h.364a.436.436,0,0,0,.434-.434v-8.82a.436.436,0,0,0-.434-.434h-.826a.436.436,0,0,0-.434.434v7.308a2.56,2.56,0,0,1-1.736.672c-1.064,0-1.288-.532-1.288-1.708V-9.254a.436.436,0,0,0-.434-.434H71.5a.436.436,0,0,0-.434.434V-3C71.064-.644,72.24.182,73.78.182A2.91,2.91,0,0,0,75.992-.784ZM81.116,0a.436.436,0,0,0,.434-.434V-4.046h.672c.686,0,1.022.224,1.358,1.3L84.308-.42a.584.584,0,0,0,.56.42h.966a.309.309,0,0,0,.294-.406l-.742-2.3c-.322-.98-.686-1.512-1.246-1.708a2.25,2.25,0,0,0,1.778-2.548c0-1.806-1.036-2.73-3.206-2.73H80.29a.436.436,0,0,0-.434.434v8.82A.436.436,0,0,0,80.29,0Zm.434-8.26h1.176c1.036,0,1.414.392,1.414,1.372,0,1.05-.336,1.54-1.4,1.54H81.55Z" transform="translate(63 290)" fill="#0c5e69"/>
    <path id="Pfad_4109" data-name="Pfad 4109" d="M4.872-1.582A.441.441,0,0,0,4.816-2.2L2.464-4.158,4.816-6.1a.441.441,0,0,0,.056-.616l-.336-.406A.447.447,0,0,0,4.2-7.28a.428.428,0,0,0-.28.1L1.092-4.844a.933.933,0,0,0-.322.672v.028a.938.938,0,0,0,.322.686L3.92-1.12a.441.441,0,0,0,.616-.056ZM15.26,0a.436.436,0,0,0,.434-.434v-.5a.436.436,0,0,0-.434-.434H11.788c2.94-2.2,3.752-3.346,3.752-5.054,0-1.834-1.162-2.688-2.926-2.688a4.784,4.784,0,0,0-2.408.588.485.485,0,0,0-.21.6l.2.434a.408.408,0,0,0,.56.2,3.509,3.509,0,0,1,1.68-.42c.882,0,1.344.42,1.344,1.442,0,1.246-.672,2.128-3.556,4.522a.939.939,0,0,0-.336.714v.6A.436.436,0,0,0,10.318,0Zm6.846,0a.436.436,0,0,0,.434-.434V-4.942c0-1.4-.07-2.828-.112-3.346h.028a26.292,26.292,0,0,0,.7,3.234l.952,2.94a.62.62,0,0,0,.574.406h.686a.579.579,0,0,0,.56-.42l.98-3.08a25.781,25.781,0,0,0,.728-3.08h.028c-.042.532-.112,1.708-.112,3.318V-.434A.436.436,0,0,0,27.986,0h.784A.436.436,0,0,0,29.2-.434v-8.82a.436.436,0,0,0-.434-.434H27.216a.584.584,0,0,0-.56.42L25.494-5.18a11.284,11.284,0,0,0-.378,2.2h-.028a10.309,10.309,0,0,0-.392-2.2l-1.19-4.088a.584.584,0,0,0-.56-.42h-1.47a.436.436,0,0,0-.434.434v8.82A.436.436,0,0,0,21.476,0ZM32.97,0A.436.436,0,0,0,33.4-.434V-6.65a.436.436,0,0,0-.434-.434H31.332a.436.436,0,0,0-.434.434v.168a.527.527,0,0,0,.42.518l.5.084V-.434A.436.436,0,0,0,32.256,0Zm.658-9.17a1.013,1.013,0,0,0-1.022-1.036A1.022,1.022,0,0,0,31.584-9.17a1.007,1.007,0,0,0,1.008,1.022A1.013,1.013,0,0,0,33.628-9.17ZM41.1-3.542c0-2.66-1.162-3.724-3-3.724S35.14-6.23,35.14-3.556,36.288.182,38.122.182,41.1-.882,41.1-3.542Zm-4.27,0c0-2.03.35-2.52,1.274-2.52S39.4-5.586,39.4-3.556c0,2-.35,2.534-1.274,2.534S36.834-1.54,36.834-3.542Zm7.84,2.576a1.111,1.111,0,0,0-1.106-1.12,1.111,1.111,0,0,0-1.106,1.12A1.1,1.1,0,0,0,43.568.14,1.1,1.1,0,0,0,44.674-.966ZM55.006,0a.436.436,0,0,0,.434-.434v-.588a.436.436,0,0,0-.434-.434h-3.15v-2.9h2.268a.436.436,0,0,0,.434-.434v-.546a.436.436,0,0,0-.434-.434H51.856V-8.246H54.8a.436.436,0,0,0,.434-.434v-.574a.436.436,0,0,0-.434-.434H50.6a.436.436,0,0,0-.434.434v8.82A.436.436,0,0,0,50.6,0Zm7.126-.784.126.364a.584.584,0,0,0,.56.42h.364a.436.436,0,0,0,.434-.434v-8.82a.436.436,0,0,0-.434-.434h-.826a.436.436,0,0,0-.434.434v7.308a2.56,2.56,0,0,1-1.736.672c-1.064,0-1.288-.532-1.288-1.708V-9.254a.436.436,0,0,0-.434-.434h-.826a.436.436,0,0,0-.434.434V-3C57.2-.644,58.38.182,59.92.182A2.91,2.91,0,0,0,62.132-.784ZM67.256,0a.436.436,0,0,0,.434-.434V-4.046h.672c.686,0,1.022.224,1.358,1.3L70.448-.42a.584.584,0,0,0,.56.42h.966a.309.309,0,0,0,.294-.406l-.742-2.3c-.322-.98-.686-1.512-1.246-1.708a2.25,2.25,0,0,0,1.778-2.548c0-1.806-1.036-2.73-3.206-2.73H66.43A.436.436,0,0,0,66-9.254v8.82A.436.436,0,0,0,66.43,0Zm.434-8.26h1.176c1.036,0,1.414.392,1.414,1.372,0,1.05-.336,1.54-1.4,1.54H67.69Z" transform="translate(63 230)" fill="#0c5e69"/>
    <path id="Pfad_4110" data-name="Pfad 4110" d="M6.748-2.744c0-2.044-1.246-2.576-2.772-3.108-1.022-.35-1.33-.63-1.33-1.442,0-.784.49-1.148,1.316-1.148a2.8,2.8,0,0,1,1.344.308.419.419,0,0,0,.574-.182l.252-.518a.444.444,0,0,0-.2-.588,4.29,4.29,0,0,0-2.1-.448C2.1-9.87.952-9,.952-7.2c0,1.764.868,2.394,2.478,2.954C4.452-3.878,5-3.6,5-2.618c0,.84-.462,1.358-1.582,1.358A3.3,3.3,0,0,1,1.54-1.792a.4.4,0,0,0-.56.168l-.252.5A.472.472,0,0,0,.91-.5,5.249,5.249,0,0,0,3.556.182C5.964.182,6.748-1.106,6.748-2.744ZM8.722-5.852v4.4c0,1.232.756,1.638,1.848,1.638A2.7,2.7,0,0,0,11.4.056a.474.474,0,0,0,.322-.56l-.084-.364a.325.325,0,0,0-.406-.238,1.533,1.533,0,0,1-.378.056c-.364,0-.546-.168-.546-.7v-4.1h.952a.436.436,0,0,0,.434-.434V-6.65a.436.436,0,0,0-.434-.434H10.3V-8.736a.358.358,0,0,0-.42-.35l-.742.14a.527.527,0,0,0-.42.518v1.344H8.386a.436.436,0,0,0-.434.434v.364a.436.436,0,0,0,.434.434ZM17.08-.784l.084.364a.527.527,0,0,0,.518.42h.406a.436.436,0,0,0,.434-.434V-6.65a.436.436,0,0,0-.434-.434h-.714a.436.436,0,0,0-.434.434v4.858a2.161,2.161,0,0,1-1.358.644c-.518,0-.8-.224-.8-.98V-6.65a.436.436,0,0,0-.434-.434h-.728a.436.436,0,0,0-.434.434v4.9A1.755,1.755,0,0,0,15.078.182,2.653,2.653,0,0,0,17.08-.784ZM24.556-.7l.07.28a.584.584,0,0,0,.546.42h.406a.436.436,0,0,0,.434-.434V-9.758a.436.436,0,0,0-.434-.434H24.85a.436.436,0,0,0-.434.434V-6.51a2.608,2.608,0,0,0-1.75-.756c-1.624,0-2.394.966-2.394,3.78C20.272-.63,21.28.182,22.708.182A2.432,2.432,0,0,0,24.556-.7ZM21.98-3.542c0-2.03.308-2.422,1.19-2.422a1.874,1.874,0,0,1,1.246.588v3.668a1.806,1.806,0,0,1-1.344.574C22.246-1.134,21.98-1.526,21.98-3.542ZM32.872-.378a.431.431,0,0,0,.112-.6l-.266-.378a.444.444,0,0,0-.6-.126,2.25,2.25,0,0,1-1.274.378c-1.008,0-1.4-.364-1.456-1.988h3.738a.248.248,0,0,0,.238-.252v-.266c0-2.59-.9-3.654-2.8-3.654-1.778,0-2.87,1.022-2.87,3.71,0,2.66,1.05,3.738,3.164,3.738A3.571,3.571,0,0,0,32.872-.378Zm-1.148-3.85H29.4c.084-1.484.462-1.848,1.176-1.848C31.458-6.076,31.71-5.6,31.724-4.228ZM36.2,0a.436.436,0,0,0,.434-.434V-5.306A2.079,2.079,0,0,1,38-5.936c.518,0,.756.182.756.924V-.434A.436.436,0,0,0,39.186,0h.728a.436.436,0,0,0,.434-.434V-5.418c0-1.33-.658-1.848-1.778-1.848a2.893,2.893,0,0,0-2.086.952l-.07-.35a.555.555,0,0,0-.532-.42h-.406a.436.436,0,0,0-.434.434V-.434A.436.436,0,0,0,35.476,0Zm6.342-5.852v4.4c0,1.232.756,1.638,1.848,1.638A2.7,2.7,0,0,0,45.22.056a.474.474,0,0,0,.322-.56l-.084-.364a.325.325,0,0,0-.406-.238,1.533,1.533,0,0,1-.378.056c-.364,0-.546-.168-.546-.7v-4.1h.952a.436.436,0,0,0,.434-.434V-6.65a.436.436,0,0,0-.434-.434h-.952V-8.736a.358.358,0,0,0-.42-.35l-.742.14a.527.527,0,0,0-.42.518v1.344H42.21a.436.436,0,0,0-.434.434v.364a.436.436,0,0,0,.434.434Zm9.31,5.474a.431.431,0,0,0,.112-.6L51.7-1.358a.444.444,0,0,0-.6-.126,2.25,2.25,0,0,1-1.274.378c-1.008,0-1.4-.364-1.456-1.988h3.738a.248.248,0,0,0,.238-.252v-.266c0-2.59-.9-3.654-2.8-3.654-1.778,0-2.87,1.022-2.87,3.71,0,2.66,1.05,3.738,3.164,3.738A3.571,3.571,0,0,0,51.856-.378Zm-1.148-3.85H48.384c.084-1.484.462-1.848,1.176-1.848C50.442-6.076,50.694-5.6,50.708-4.228ZM55.188,0a.436.436,0,0,0,.434-.434V-5.306a2.079,2.079,0,0,1,1.358-.63c.518,0,.756.182.756.924V-.434A.436.436,0,0,0,58.17,0H58.9a.436.436,0,0,0,.434-.434V-5.418c0-1.33-.658-1.848-1.778-1.848a2.893,2.893,0,0,0-2.086.952l-.07-.35a.555.555,0,0,0-.532-.42H54.46a.436.436,0,0,0-.434.434V-.434A.436.436,0,0,0,54.46,0Z" transform="translate(63 170)" fill="#0c5e69"/>
  </g>
</svg>
