<svg xmlns="http://www.w3.org/2000/svg" xmlns:xlink="http://www.w3.org/1999/xlink" width="811" height="390" viewBox="0 0 811 390">
  <defs>
    <clipPath id="clip-Unternehmensart">
      <rect width="811" height="390"/>
    </clipPath>
  </defs>
  <g id="Unternehmensart" clip-path="url(#clip-Unternehmensart)">
    <rect width="811" height="390" fill="#fff"/>
    <rect id="Rechteck_936" data-name="Rechteck 936" width="138" height="30" rx="15" transform="translate(50 84)" fill="#ddf2f3"/>
    <path id="Pfad_4113" data-name="Pfad 4113" d="M6.748-2.744c0-2.044-1.246-2.576-2.772-3.108-1.022-.35-1.33-.63-1.33-1.442,0-.784.49-1.148,1.316-1.148a2.8,2.8,0,0,1,1.344.308.419.419,0,0,0,.574-.182l.252-.518a.444.444,0,0,0-.2-.588,4.29,4.29,0,0,0-2.1-.448C2.1-9.87.952-9,.952-7.2c0,1.764.868,2.394,2.478,2.954C4.452-3.878,5-3.6,5-2.618c0,.84-.462,1.358-1.582,1.358A3.3,3.3,0,0,1,1.54-1.792a.4.4,0,0,0-.56.168l-.252.5A.472.472,0,0,0,.91-.5,5.249,5.249,0,0,0,3.556.182C5.964.182,6.748-1.106,6.748-2.744ZM13.342-.378a.431.431,0,0,0,.112-.6l-.266-.378a.444.444,0,0,0-.6-.126,2.25,2.25,0,0,1-1.274.378c-1.008,0-1.4-.364-1.456-1.988h3.738a.248.248,0,0,0,.238-.252v-.266c0-2.59-.9-3.654-2.8-3.654-1.778,0-2.87,1.022-2.87,3.71C8.162-.9,9.212.182,11.326.182A3.571,3.571,0,0,0,13.342-.378Zm-1.148-3.85H9.87c.084-1.484.462-1.848,1.176-1.848C11.928-6.076,12.18-5.6,12.194-4.228ZM17.626.084a.4.4,0,0,0,.336-.462L17.92-.672c-.042-.28-.224-.364-.5-.448-.2-.056-.294-.21-.294-.518v-8.12a.436.436,0,0,0-.434-.434H15.96a.436.436,0,0,0-.434.434v7.924c0,1.386.308,1.988,1.512,1.988A2.7,2.7,0,0,0,17.626.084ZM25.2-3.64c0-2.842-.966-3.626-2.394-3.626a2.456,2.456,0,0,0-1.75.8v-3.29a.436.436,0,0,0-.434-.434h-.728a.436.436,0,0,0-.434.434V-.434A.436.436,0,0,0,19.894,0H20.3a.567.567,0,0,0,.546-.42l.07-.238a2.565,2.565,0,0,0,1.862.84C24.4.182,25.2-.826,25.2-3.64ZM21.056-1.666V-5.334a1.826,1.826,0,0,1,1.33-.63c.84,0,1.106.406,1.106,2.408,0,2.044-.308,2.422-1.2,2.422A1.818,1.818,0,0,1,21.056-1.666Zm10.262-.378c0-1.554-.924-1.988-2.016-2.282-.882-.238-1.134-.364-1.134-.924,0-.49.308-.714.91-.714a2.924,2.924,0,0,1,1.106.2.425.425,0,0,0,.546-.252l.154-.406A.451.451,0,0,0,30.632-7a4.4,4.4,0,0,0-1.68-.266c-1.54,0-2.31.826-2.31,2.044a2.074,2.074,0,0,0,1.736,2.2c1.022.28,1.358.406,1.358,1.05,0,.56-.294.84-1.106.84a3.019,3.019,0,0,1-1.4-.364.413.413,0,0,0-.574.2l-.2.406a.449.449,0,0,0,.21.588,4.789,4.789,0,0,0,2.1.49C30.492.182,31.318-.574,31.318-2.044Zm1.82-3.808v4.4c0,1.232.756,1.638,1.848,1.638a2.7,2.7,0,0,0,.826-.126.474.474,0,0,0,.322-.56L36.05-.868a.325.325,0,0,0-.406-.238,1.533,1.533,0,0,1-.378.056c-.364,0-.546-.168-.546-.7v-4.1h.952a.436.436,0,0,0,.434-.434V-6.65a.436.436,0,0,0-.434-.434H34.72V-8.736a.358.358,0,0,0-.42-.35l-.742.14a.527.527,0,0,0-.42.518v1.344H32.8a.436.436,0,0,0-.434.434v.364a.436.436,0,0,0,.434.434Zm8.9,3.808c0-1.554-.924-1.988-2.016-2.282-.882-.238-1.134-.364-1.134-.924,0-.49.308-.714.91-.714a2.924,2.924,0,0,1,1.106.2.425.425,0,0,0,.546-.252l.154-.406A.451.451,0,0,0,41.356-7a4.4,4.4,0,0,0-1.68-.266c-1.54,0-2.31.826-2.31,2.044a2.074,2.074,0,0,0,1.736,2.2c1.022.28,1.358.406,1.358,1.05,0,.56-.294.84-1.106.84a3.019,3.019,0,0,1-1.4-.364.413.413,0,0,0-.574.2l-.2.406a.449.449,0,0,0,.21.588,4.789,4.789,0,0,0,2.1.49C41.216.182,42.042-.574,42.042-2.044Zm1.82-3.808v4.4c0,1.232.756,1.638,1.848,1.638a2.7,2.7,0,0,0,.826-.126.474.474,0,0,0,.322-.56l-.084-.364a.325.325,0,0,0-.406-.238,1.533,1.533,0,0,1-.378.056c-.364,0-.546-.168-.546-.7v-4.1H46.4a.436.436,0,0,0,.434-.434V-6.65a.436.436,0,0,0-.434-.434h-.952V-8.736a.358.358,0,0,0-.42-.35l-.742.14a.527.527,0,0,0-.42.518v1.344h-.336a.436.436,0,0,0-.434.434v.364a.436.436,0,0,0,.434.434Zm7.91,5.236.07.2A.584.584,0,0,0,52.4,0h.378a.436.436,0,0,0,.434-.434v-4.62c0-1.6-.742-2.212-2.324-2.212a4.627,4.627,0,0,0-2.338.6.451.451,0,0,0-.182.6l.182.364a.438.438,0,0,0,.588.182,3.717,3.717,0,0,1,1.582-.434c.8,0,.9.406.9,1.148V-4.4h-.5c-2.212,0-3.164.714-3.164,2.338A1.951,1.951,0,0,0,50.064.182,2.285,2.285,0,0,0,51.772-.616Zm-2.2-1.456c0-.9.266-1.288,1.792-1.288h.252v1.792a1.715,1.715,0,0,1-1.2.588C49.812-.98,49.574-1.26,49.574-2.072Zm.742-6.8a.962.962,0,0,0-.952-.952.95.95,0,0,0-.938.952.962.962,0,0,0,.952.952A.959.959,0,0,0,50.316-8.876Zm2.842,0a.962.962,0,0,0-.952-.952.95.95,0,0,0-.938.952.962.962,0,0,0,.952.952A.959.959,0,0,0,53.158-8.876ZM56.406,0a.436.436,0,0,0,.434-.434V-5.306a2.079,2.079,0,0,1,1.358-.63c.518,0,.756.182.756.924V-.434A.436.436,0,0,0,59.388,0h.728a.436.436,0,0,0,.434-.434V-5.418c0-1.33-.658-1.848-1.778-1.848a2.893,2.893,0,0,0-2.086.952l-.07-.35a.555.555,0,0,0-.532-.42h-.406a.436.436,0,0,0-.434.434V-.434A.436.436,0,0,0,55.678,0ZM66.528-.7l.07.28a.584.584,0,0,0,.546.42h.406a.436.436,0,0,0,.434-.434V-9.758a.436.436,0,0,0-.434-.434h-.728a.436.436,0,0,0-.434.434V-6.51a2.608,2.608,0,0,0-1.75-.756c-1.624,0-2.394.966-2.394,3.78C62.244-.63,63.252.182,64.68.182A2.432,2.432,0,0,0,66.528-.7ZM63.952-3.542c0-2.03.308-2.422,1.19-2.422a1.875,1.875,0,0,1,1.246.588v3.668a1.806,1.806,0,0,1-1.344.574C64.218-1.134,63.952-1.526,63.952-3.542ZM71.6,0a.436.436,0,0,0,.434-.434V-6.65a.436.436,0,0,0-.434-.434H69.958a.436.436,0,0,0-.434.434v.168a.527.527,0,0,0,.42.518l.5.084V-.434A.436.436,0,0,0,70.882,0Zm.658-9.17a1.013,1.013,0,0,0-1.022-1.036A1.022,1.022,0,0,0,70.21-9.17a1.007,1.007,0,0,0,1.008,1.022A1.013,1.013,0,0,0,72.254-9.17ZM79.73.336c0-1.414-1.008-2.016-2.492-2.016H75.95c-.336,0-.476-.154-.476-.35a1.173,1.173,0,0,1,.308-.686,4.916,4.916,0,0,0,.826.07c1.764,0,2.646-.714,2.646-2.212a2.547,2.547,0,0,0-.238-1.092l.406-.14a.571.571,0,0,0,.406-.546v-.028a.431.431,0,0,0-.42-.42h-1.68a3.438,3.438,0,0,0-1.134-.182c-1.736,0-2.66.812-2.66,2.31A2.119,2.119,0,0,0,74.8-3.08a1.688,1.688,0,0,0-.77,1.442,1.233,1.233,0,0,0,.56,1.078A1.555,1.555,0,0,0,73.668.826c0,1.176.882,1.862,2.912,1.862C78.764,2.688,79.73,1.862,79.73.336Zm-2.814-.63c.812,0,1.218.154,1.218.8,0,.686-.518,1.064-1.526,1.064-1.26,0-1.47-.336-1.47-.952a1.367,1.367,0,0,1,.308-.91ZM75.516-4.9c0-.84.322-1.19,1.078-1.19.826,0,1.106.35,1.106,1.19,0,.812-.308,1.162-1.106,1.162C75.824-3.738,75.516-4.1,75.516-4.9ZM86.03-.378a.431.431,0,0,0,.112-.6l-.266-.378a.444.444,0,0,0-.6-.126A2.25,2.25,0,0,1,84-1.106c-1.008,0-1.4-.364-1.456-1.988h3.738a.248.248,0,0,0,.238-.252v-.266c0-2.59-.9-3.654-2.8-3.654-1.778,0-2.87,1.022-2.87,3.71C80.85-.9,81.9.182,84.014.182A3.571,3.571,0,0,0,86.03-.378Zm-1.148-3.85H82.558c.084-1.484.462-1.848,1.176-1.848C84.616-6.076,84.868-5.6,84.882-4.228Z" transform="translate(86 103)" fill="#0c5e69"/>
    <g id="Ellipse_43" data-name="Ellipse 43" transform="translate(55 89)" fill="#fff" stroke="#dedede" stroke-width="1">
      <circle cx="10" cy="10" r="10" stroke="none"/>
      <circle cx="10" cy="10" r="9.5" fill="none"/>
    </g>
    <rect id="Rechteck_960" data-name="Rechteck 960" width="113" height="30" rx="15" transform="translate(50 197)" fill="#ddf2f3"/>
    <path id="Pfad_4116" data-name="Pfad 4116" d="M1.6,0a.567.567,0,0,0,.546-.42l.532-1.974H5.306L5.81-.42A.584.584,0,0,0,6.356,0h.952A.332.332,0,0,0,7.63-.42L5.1-9.268a.567.567,0,0,0-.546-.42H3.626a.584.584,0,0,0-.56.42L.434-.42A.318.318,0,0,0,.742,0ZM4.018-7.784h.028a22.176,22.176,0,0,0,.5,2.408l.42,1.652H3.038l.448-1.652A18.939,18.939,0,0,0,4.018-7.784ZM14.672.336c0-1.414-1.008-2.016-2.492-2.016H10.892c-.336,0-.476-.154-.476-.35a1.173,1.173,0,0,1,.308-.686,4.915,4.915,0,0,0,.826.07c1.764,0,2.646-.714,2.646-2.212a2.547,2.547,0,0,0-.238-1.092l.406-.14a.571.571,0,0,0,.406-.546v-.028a.431.431,0,0,0-.42-.42H12.67a3.438,3.438,0,0,0-1.134-.182c-1.736,0-2.66.812-2.66,2.31A2.119,2.119,0,0,0,9.744-3.08a1.688,1.688,0,0,0-.77,1.442A1.233,1.233,0,0,0,9.534-.56,1.555,1.555,0,0,0,8.61.826c0,1.176.882,1.862,2.912,1.862C13.706,2.688,14.672,1.862,14.672.336Zm-2.814-.63c.812,0,1.218.154,1.218.8,0,.686-.518,1.064-1.526,1.064-1.26,0-1.47-.336-1.47-.952a1.367,1.367,0,0,1,.308-.91ZM10.458-4.9c0-.84.322-1.19,1.078-1.19.826,0,1.106.35,1.106,1.19,0,.812-.308,1.162-1.106,1.162C10.766-3.738,10.458-4.1,10.458-4.9ZM20.972-.378a.431.431,0,0,0,.112-.6l-.266-.378a.444.444,0,0,0-.6-.126,2.25,2.25,0,0,1-1.274.378c-1.008,0-1.4-.364-1.456-1.988h3.738a.248.248,0,0,0,.238-.252v-.266c0-2.59-.9-3.654-2.8-3.654-1.778,0-2.87,1.022-2.87,3.71,0,2.66,1.05,3.738,3.164,3.738A3.571,3.571,0,0,0,20.972-.378Zm-1.148-3.85H17.5c.084-1.484.462-1.848,1.176-1.848C19.558-6.076,19.81-5.6,19.824-4.228ZM24.3,0a.436.436,0,0,0,.434-.434V-5.306a2.079,2.079,0,0,1,1.358-.63c.518,0,.756.182.756.924V-.434A.436.436,0,0,0,27.286,0h.728a.436.436,0,0,0,.434-.434V-5.418c0-1.33-.658-1.848-1.778-1.848a2.893,2.893,0,0,0-2.086.952l-.07-.35a.555.555,0,0,0-.532-.42h-.406a.436.436,0,0,0-.434.434V-.434A.436.436,0,0,0,23.576,0Zm6.342-5.852v4.4c0,1.232.756,1.638,1.848,1.638A2.7,2.7,0,0,0,33.32.056a.474.474,0,0,0,.322-.56l-.084-.364a.325.325,0,0,0-.406-.238,1.533,1.533,0,0,1-.378.056c-.364,0-.546-.168-.546-.7v-4.1h.952a.436.436,0,0,0,.434-.434V-6.65a.436.436,0,0,0-.434-.434h-.952V-8.736a.358.358,0,0,0-.42-.35l-.742.14a.527.527,0,0,0-.42.518v1.344H30.31a.436.436,0,0,0-.434.434v.364a.436.436,0,0,0,.434.434ZM39-.784l.084.364a.527.527,0,0,0,.518.42h.406a.436.436,0,0,0,.434-.434V-6.65a.436.436,0,0,0-.434-.434H39.3a.436.436,0,0,0-.434.434v4.858a2.161,2.161,0,0,1-1.358.644c-.518,0-.8-.224-.8-.98V-6.65a.436.436,0,0,0-.434-.434h-.728a.436.436,0,0,0-.434.434v4.9A1.755,1.755,0,0,0,37,.182,2.653,2.653,0,0,0,39-.784ZM43.694,0a.436.436,0,0,0,.434-.434v-4.69a1.807,1.807,0,0,1,1.3-.518,1.93,1.93,0,0,1,.308.028.253.253,0,0,0,.308-.21l.182-1.148A.181.181,0,0,0,46.06-7.2a1.2,1.2,0,0,0-.224-.014,2.35,2.35,0,0,0-1.848,1.022l-.1-.476a.527.527,0,0,0-.518-.42h-.406a.436.436,0,0,0-.434.434V-.434A.436.436,0,0,0,42.966,0Zm8.68-.378a.431.431,0,0,0,.112-.6l-.266-.378a.444.444,0,0,0-.6-.126,2.25,2.25,0,0,1-1.274.378c-1.008,0-1.4-.364-1.456-1.988h3.738a.248.248,0,0,0,.238-.252v-.266c0-2.59-.9-3.654-2.8-3.654-1.778,0-2.87,1.022-2.87,3.71,0,2.66,1.05,3.738,3.164,3.738A3.571,3.571,0,0,0,52.374-.378Zm-1.148-3.85H48.9c.084-1.484.462-1.848,1.176-1.848C50.96-6.076,51.212-5.6,51.226-4.228ZM55.706,0a.436.436,0,0,0,.434-.434V-5.306a2.079,2.079,0,0,1,1.358-.63c.518,0,.756.182.756.924V-.434A.436.436,0,0,0,58.688,0h.728a.436.436,0,0,0,.434-.434V-5.418c0-1.33-.658-1.848-1.778-1.848a2.893,2.893,0,0,0-2.086.952l-.07-.35a.555.555,0,0,0-.532-.42h-.406a.436.436,0,0,0-.434.434V-.434A.436.436,0,0,0,54.978,0Z" transform="translate(86 216)" fill="#0c5e69"/>
    <g id="Ellipse_44" data-name="Ellipse 44" transform="translate(55 202)" fill="#59c1c4" stroke="#fff" stroke-width="1">
      <circle cx="10" cy="10" r="10" stroke="none"/>
      <circle cx="10" cy="10" r="9.5" fill="none"/>
    </g>
    <rect id="Rechteck_961" data-name="Rechteck 961" width="107" height="30" rx="15" transform="translate(50 122)" fill="#ddf2f3"/>
    <path id="Pfad_4114" data-name="Pfad 4114" d="M6.748-2.744c0-2.044-1.246-2.576-2.772-3.108-1.022-.35-1.33-.63-1.33-1.442,0-.784.49-1.148,1.316-1.148a2.8,2.8,0,0,1,1.344.308.419.419,0,0,0,.574-.182l.252-.518a.444.444,0,0,0-.2-.588,4.29,4.29,0,0,0-2.1-.448C2.1-9.87.952-9,.952-7.2c0,1.764.868,2.394,2.478,2.954C4.452-3.878,5-3.6,5-2.618c0,.84-.462,1.358-1.582,1.358A3.3,3.3,0,0,1,1.54-1.792a.4.4,0,0,0-.56.168l-.252.5A.472.472,0,0,0,.91-.5,5.249,5.249,0,0,0,3.556.182C5.964.182,6.748-1.106,6.748-2.744ZM8.722-5.852v4.4c0,1.232.756,1.638,1.848,1.638A2.7,2.7,0,0,0,11.4.056a.474.474,0,0,0,.322-.56l-.084-.364a.325.325,0,0,0-.406-.238,1.533,1.533,0,0,1-.378.056c-.364,0-.546-.168-.546-.7v-4.1h.952a.436.436,0,0,0,.434-.434V-6.65a.436.436,0,0,0-.434-.434H10.3V-8.736a.358.358,0,0,0-.42-.35l-.742.14a.527.527,0,0,0-.42.518v1.344H8.386a.436.436,0,0,0-.434.434v.364a.436.436,0,0,0,.434.434Zm7.91,5.236.07.2a.584.584,0,0,0,.56.42h.378a.436.436,0,0,0,.434-.434v-4.62c0-1.6-.742-2.212-2.324-2.212a4.627,4.627,0,0,0-2.338.6.451.451,0,0,0-.182.6l.182.364A.438.438,0,0,0,14-5.516a3.717,3.717,0,0,1,1.582-.434c.8,0,.9.406.9,1.148V-4.4h-.5c-2.212,0-3.164.714-3.164,2.338A1.951,1.951,0,0,0,14.924.182,2.285,2.285,0,0,0,16.632-.616Zm-2.2-1.456c0-.9.266-1.288,1.792-1.288h.252v1.792a1.715,1.715,0,0,1-1.2.588C14.672-.98,14.434-1.26,14.434-2.072ZM21.266,0A.436.436,0,0,0,21.7-.434v-4.69A1.807,1.807,0,0,1,23-5.642a1.93,1.93,0,0,1,.308.028.253.253,0,0,0,.308-.21L23.8-6.972a.181.181,0,0,0-.168-.224,1.2,1.2,0,0,0-.224-.014A2.35,2.35,0,0,0,21.56-6.188l-.1-.476a.527.527,0,0,0-.518-.42h-.406a.436.436,0,0,0-.434.434V-.434A.436.436,0,0,0,20.538,0Zm4.2-5.852v4.4c0,1.232.756,1.638,1.848,1.638A2.7,2.7,0,0,0,28.14.056a.474.474,0,0,0,.322-.56l-.084-.364a.325.325,0,0,0-.406-.238,1.533,1.533,0,0,1-.378.056c-.364,0-.546-.168-.546-.7v-4.1H28a.436.436,0,0,0,.434-.434V-6.65A.436.436,0,0,0,28-7.084h-.952V-8.736a.358.358,0,0,0-.42-.35l-.742.14a.527.527,0,0,0-.42.518v1.344H25.13a.436.436,0,0,0-.434.434v.364a.436.436,0,0,0,.434.434Zm6.5,2.842a.436.436,0,0,0,.434-.434V-4.2a.436.436,0,0,0-.434-.434H29.876a.436.436,0,0,0-.434.434v.756a.436.436,0,0,0,.434.434ZM39.13-.784l.126.364a.584.584,0,0,0,.56.42h.364a.436.436,0,0,0,.434-.434v-8.82a.436.436,0,0,0-.434-.434h-.826a.436.436,0,0,0-.434.434v7.308a2.56,2.56,0,0,1-1.736.672c-1.064,0-1.288-.532-1.288-1.708V-9.254a.436.436,0,0,0-.434-.434h-.826a.436.436,0,0,0-.434.434V-3C34.2-.644,35.378.182,36.918.182A2.91,2.91,0,0,0,39.13-.784ZM44,2.758a.436.436,0,0,0,.434-.434V-.532a2.584,2.584,0,0,0,1.75.714C47.81.182,48.58-.826,48.58-3.64c0-2.842-.966-3.626-2.394-3.626a2.563,2.563,0,0,0-1.89.924l-.084-.322a.555.555,0,0,0-.532-.42h-.406a.436.436,0,0,0-.434.434V2.324a.436.436,0,0,0,.434.434Zm.434-4.424V-5.334a1.826,1.826,0,0,1,1.33-.63c.84,0,1.106.406,1.106,2.408,0,2.044-.308,2.422-1.2,2.422A1.818,1.818,0,0,1,44.436-1.666ZM54.7-2.044c0-1.554-.924-1.988-2.016-2.282-.882-.238-1.134-.364-1.134-.924,0-.49.308-.714.91-.714a2.924,2.924,0,0,1,1.106.2.425.425,0,0,0,.546-.252l.154-.406A.451.451,0,0,0,54.012-7a4.4,4.4,0,0,0-1.68-.266c-1.54,0-2.31.826-2.31,2.044a2.074,2.074,0,0,0,1.736,2.2c1.022.28,1.358.406,1.358,1.05,0,.56-.294.84-1.106.84a3.019,3.019,0,0,1-1.4-.364.413.413,0,0,0-.574.2l-.2.406a.449.449,0,0,0,.21.588,4.789,4.789,0,0,0,2.1.49C53.872.182,54.7-.574,54.7-2.044Z" transform="translate(86 141)" fill="#0c5e69"/>
    <g id="Ellipse_45" data-name="Ellipse 45" transform="translate(55 127)" fill="#c0ea42" stroke="#fff" stroke-width="1">
      <circle cx="10" cy="10" r="10" stroke="none"/>
      <circle cx="10" cy="10" r="9.5" fill="none"/>
    </g>
    <rect id="Rechteck_962" data-name="Rechteck 962" width="85" height="30" rx="15" transform="translate(50 272)" fill="#ddf2f3"/>
    <path id="Pfad_4118" data-name="Pfad 4118" d="M2.45,0a.436.436,0,0,0,.434-.434V-5.208l2.6,4.83A.753.753,0,0,0,6.132,0H7.168a.254.254,0,0,0,.224-.378L4.634-5.306,7.182-9.324a.234.234,0,0,0-.2-.364H6.034a.782.782,0,0,0-.658.364L2.884-5.25v-4a.436.436,0,0,0-.434-.434H1.624a.436.436,0,0,0-.434.434v8.82A.436.436,0,0,0,1.624,0Zm7.658,0a.436.436,0,0,0,.434-.434V-4.942c0-1.4-.07-2.828-.112-3.346h.028a26.292,26.292,0,0,0,.7,3.234l.952,2.94a.62.62,0,0,0,.574.406h.686a.579.579,0,0,0,.56-.42l.98-3.08a25.781,25.781,0,0,0,.728-3.08h.028c-.042.532-.112,1.708-.112,3.318V-.434A.436.436,0,0,0,15.988,0h.784a.436.436,0,0,0,.434-.434v-8.82a.436.436,0,0,0-.434-.434H15.218a.584.584,0,0,0-.56.42L13.5-5.18a11.284,11.284,0,0,0-.378,2.2H13.09a10.309,10.309,0,0,0-.392-2.2l-1.19-4.088a.584.584,0,0,0-.56-.42H9.478a.436.436,0,0,0-.434.434v8.82A.436.436,0,0,0,9.478,0ZM24.43-.784l.126.364a.584.584,0,0,0,.56.42h.364a.436.436,0,0,0,.434-.434v-8.82a.436.436,0,0,0-.434-.434h-.826a.436.436,0,0,0-.434.434v7.308a2.56,2.56,0,0,1-1.736.672c-1.064,0-1.288-.532-1.288-1.708V-9.254a.436.436,0,0,0-.434-.434h-.826a.436.436,0,0,0-.434.434V-3C19.5-.644,20.678.182,22.218.182A2.91,2.91,0,0,0,24.43-.784Zm8.092-1.26c0-1.554-.924-1.988-2.016-2.282-.882-.238-1.134-.364-1.134-.924,0-.49.308-.714.91-.714a2.924,2.924,0,0,1,1.106.2.425.425,0,0,0,.546-.252l.154-.406A.451.451,0,0,0,31.836-7a4.4,4.4,0,0,0-1.68-.266c-1.54,0-2.31.826-2.31,2.044a2.074,2.074,0,0,0,1.736,2.2c1.022.28,1.358.406,1.358,1.05,0,.56-.294.84-1.106.84a3.019,3.019,0,0,1-1.4-.364.413.413,0,0,0-.574.2l-.2.406a.449.449,0,0,0,.21.588,4.789,4.789,0,0,0,2.1.49C31.7.182,32.522-.574,32.522-2.044Z" transform="translate(86 291)" fill="#0c5e69"/>
    <g id="Ellipse_46" data-name="Ellipse 46" transform="translate(55 277)" fill="#55c57c" stroke="#fff" stroke-width="1">
      <circle cx="10" cy="10" r="10" stroke="none"/>
      <circle cx="10" cy="10" r="9.5" fill="none"/>
    </g>
    <rect id="Rechteck_963" data-name="Rechteck 963" width="106" height="30" rx="15" transform="translate(50 159)" fill="#ddf2f3"/>
    <path id="Pfad_4115" data-name="Pfad 4115" d="M2.45,0a.436.436,0,0,0,.434-.434V-5.208l2.6,4.83A.753.753,0,0,0,6.132,0H7.168a.254.254,0,0,0,.224-.378L4.634-5.306,7.182-9.324a.234.234,0,0,0-.2-.364H6.034a.782.782,0,0,0-.658.364L2.884-5.25v-4a.436.436,0,0,0-.434-.434H1.624a.436.436,0,0,0-.434.434v8.82A.436.436,0,0,0,1.624,0ZM14.182-3.542c0-2.66-1.162-3.724-3-3.724S8.218-6.23,8.218-3.556,9.366.182,11.2.182,14.182-.882,14.182-3.542Zm-4.27,0c0-2.03.35-2.52,1.274-2.52s1.288.476,1.288,2.506c0,2-.35,2.534-1.274,2.534S9.912-1.54,9.912-3.542ZM17.024,0a.436.436,0,0,0,.434-.434V-5.306a2.079,2.079,0,0,1,1.358-.63c.518,0,.756.182.756.924V-.434A.436.436,0,0,0,20.006,0h.728a.436.436,0,0,0,.434-.434V-5.418c0-1.33-.658-1.848-1.778-1.848a2.893,2.893,0,0,0-2.086.952l-.07-.35a.555.555,0,0,0-.532-.42H16.3a.436.436,0,0,0-.434.434V-.434A.436.436,0,0,0,16.3,0ZM27.146,0a.436.436,0,0,0,.434-.434V-.84a.436.436,0,0,0-.434-.434H24.528L27.272-5.46a1.609,1.609,0,0,0,.238-.8V-6.65a.436.436,0,0,0-.434-.434H23.464a.436.436,0,0,0-.434.434v.392a.436.436,0,0,0,.434.434h2.31L22.988-1.6a1.609,1.609,0,0,0-.238.8v.364A.436.436,0,0,0,23.184,0Zm6.832-.378a.431.431,0,0,0,.112-.6l-.266-.378a.444.444,0,0,0-.6-.126,2.25,2.25,0,0,1-1.274.378c-1.008,0-1.4-.364-1.456-1.988H34.23a.248.248,0,0,0,.238-.252v-.266c0-2.59-.9-3.654-2.8-3.654-1.778,0-2.87,1.022-2.87,3.71C28.8-.9,29.848.182,31.962.182A3.571,3.571,0,0,0,33.978-.378ZM32.83-4.228H30.506c.084-1.484.462-1.848,1.176-1.848C32.564-6.076,32.816-5.6,32.83-4.228ZM37.31,0a.436.436,0,0,0,.434-.434v-4.69a1.807,1.807,0,0,1,1.3-.518,1.93,1.93,0,0,1,.308.028.253.253,0,0,0,.308-.21l.182-1.148a.181.181,0,0,0-.168-.224,1.2,1.2,0,0,0-.224-.014A2.35,2.35,0,0,0,37.6-6.188l-.1-.476a.527.527,0,0,0-.518-.42h-.406a.436.436,0,0,0-.434.434V-.434A.436.436,0,0,0,36.582,0Zm5.054,0A.436.436,0,0,0,42.8-.434V-5.306a2.079,2.079,0,0,1,1.358-.63c.518,0,.756.182.756.924V-.434A.436.436,0,0,0,45.346,0h.728a.436.436,0,0,0,.434-.434V-5.418c0-1.33-.658-1.848-1.778-1.848a2.893,2.893,0,0,0-2.086.952l-.07-.35a.555.555,0,0,0-.532-.42h-.406a.436.436,0,0,0-.434.434V-.434A.436.436,0,0,0,41.636,0ZM53.326-.378a.431.431,0,0,0,.112-.6l-.266-.378a.444.444,0,0,0-.6-.126,2.25,2.25,0,0,1-1.274.378c-1.008,0-1.4-.364-1.456-1.988h3.738a.248.248,0,0,0,.238-.252v-.266c0-2.59-.9-3.654-2.8-3.654-1.778,0-2.87,1.022-2.87,3.71C48.146-.9,49.2.182,51.31.182A3.571,3.571,0,0,0,53.326-.378Zm-1.148-3.85H49.854c.084-1.484.462-1.848,1.176-1.848C51.912-6.076,52.164-5.6,52.178-4.228Z" transform="translate(86 178)" fill="#0c5e69"/>
    <g id="Pfad_4044" data-name="Pfad 4044" transform="translate(55 164)" fill="#158b9b">
      <path d="M 10 19.5 C 4.761680126190186 19.5 0.5 15.23832035064697 0.5 10 C 0.5 4.761680126190186 4.761680126190186 0.5 10 0.5 C 15.23832035064697 0.5 19.5 4.761680126190186 19.5 10 C 19.5 15.23832035064697 15.23832035064697 19.5 10 19.5 Z" stroke="none"/>
      <path d="M 10 1 C 5.037380218505859 1 1 5.037380218505859 1 10 C 1 14.96261978149414 5.037380218505859 19 10 19 C 14.96261978149414 19 19 14.96261978149414 19 10 C 19 5.037380218505859 14.96261978149414 1 10 1 M 10 0 C 15.52285003662109 0 20 4.477149963378906 20 10 C 20 15.52285003662109 15.52285003662109 20 10 20 C 4.477149963378906 20 0 15.52285003662109 0 10 C 0 4.477149963378906 4.477149963378906 0 10 0 Z" stroke="none" fill="#fff"/>
    </g>
    <rect id="Rechteck_964" data-name="Rechteck 964" width="112" height="30" rx="15" transform="translate(50 235)" fill="#ddf2f3"/>
    <path id="Pfad_4117" data-name="Pfad 4117" d="M6.748-2.744c0-2.044-1.246-2.576-2.772-3.108-1.022-.35-1.33-.63-1.33-1.442,0-.784.49-1.148,1.316-1.148a2.8,2.8,0,0,1,1.344.308.419.419,0,0,0,.574-.182l.252-.518a.444.444,0,0,0-.2-.588,4.29,4.29,0,0,0-2.1-.448C2.1-9.87.952-9,.952-7.2c0,1.764.868,2.394,2.478,2.954C4.452-3.878,5-3.6,5-2.618c0,.84-.462,1.358-1.582,1.358A3.3,3.3,0,0,1,1.54-1.792a.4.4,0,0,0-.56.168l-.252.5A.472.472,0,0,0,.91-.5,5.249,5.249,0,0,0,3.556.182C5.964.182,6.748-1.106,6.748-2.744ZM8.722-5.852v4.4c0,1.232.756,1.638,1.848,1.638A2.7,2.7,0,0,0,11.4.056a.474.474,0,0,0,.322-.56l-.084-.364a.325.325,0,0,0-.406-.238,1.533,1.533,0,0,1-.378.056c-.364,0-.546-.168-.546-.7v-4.1h.952a.436.436,0,0,0,.434-.434V-6.65a.436.436,0,0,0-.434-.434H10.3V-8.736a.358.358,0,0,0-.42-.35l-.742.14a.527.527,0,0,0-.42.518v1.344H8.386a.436.436,0,0,0-.434.434v.364a.436.436,0,0,0,.434.434ZM17.08-.784l.084.364a.527.527,0,0,0,.518.42h.406a.436.436,0,0,0,.434-.434V-6.65a.436.436,0,0,0-.434-.434h-.714a.436.436,0,0,0-.434.434v4.858a2.161,2.161,0,0,1-1.358.644c-.518,0-.8-.224-.8-.98V-6.65a.436.436,0,0,0-.434-.434h-.728a.436.436,0,0,0-.434.434v4.9A1.755,1.755,0,0,0,15.078.182,2.653,2.653,0,0,0,17.08-.784ZM24.556-.7l.07.28a.584.584,0,0,0,.546.42h.406a.436.436,0,0,0,.434-.434V-9.758a.436.436,0,0,0-.434-.434H24.85a.436.436,0,0,0-.434.434V-6.51a2.608,2.608,0,0,0-1.75-.756c-1.624,0-2.394.966-2.394,3.78C20.272-.63,21.28.182,22.708.182A2.432,2.432,0,0,0,24.556-.7ZM21.98-3.542c0-2.03.308-2.422,1.19-2.422a1.874,1.874,0,0,1,1.246.588v3.668a1.806,1.806,0,0,1-1.344.574C22.246-1.134,21.98-1.526,21.98-3.542ZM32.872-.378a.431.431,0,0,0,.112-.6l-.266-.378a.444.444,0,0,0-.6-.126,2.25,2.25,0,0,1-1.274.378c-1.008,0-1.4-.364-1.456-1.988h3.738a.248.248,0,0,0,.238-.252v-.266c0-2.59-.9-3.654-2.8-3.654-1.778,0-2.87,1.022-2.87,3.71,0,2.66,1.05,3.738,3.164,3.738A3.571,3.571,0,0,0,32.872-.378Zm-1.148-3.85H29.4c.084-1.484.462-1.848,1.176-1.848C31.458-6.076,31.71-5.6,31.724-4.228ZM36.2,0a.436.436,0,0,0,.434-.434V-5.306A2.079,2.079,0,0,1,38-5.936c.518,0,.756.182.756.924V-.434A.436.436,0,0,0,39.186,0h.728a.436.436,0,0,0,.434-.434V-5.418c0-1.33-.658-1.848-1.778-1.848a2.893,2.893,0,0,0-2.086.952l-.07-.35a.555.555,0,0,0-.532-.42h-.406a.436.436,0,0,0-.434.434V-.434A.436.436,0,0,0,35.476,0Zm6.342-5.852v4.4c0,1.232.756,1.638,1.848,1.638A2.7,2.7,0,0,0,45.22.056a.474.474,0,0,0,.322-.56l-.084-.364a.325.325,0,0,0-.406-.238,1.533,1.533,0,0,1-.378.056c-.364,0-.546-.168-.546-.7v-4.1h.952a.436.436,0,0,0,.434-.434V-6.65a.436.436,0,0,0-.434-.434h-.952V-8.736a.358.358,0,0,0-.42-.35l-.742.14a.527.527,0,0,0-.42.518v1.344H42.21a.436.436,0,0,0-.434.434v.364a.436.436,0,0,0,.434.434Zm9.31,5.474a.431.431,0,0,0,.112-.6L51.7-1.358a.444.444,0,0,0-.6-.126,2.25,2.25,0,0,1-1.274.378c-1.008,0-1.4-.364-1.456-1.988h3.738a.248.248,0,0,0,.238-.252v-.266c0-2.59-.9-3.654-2.8-3.654-1.778,0-2.87,1.022-2.87,3.71,0,2.66,1.05,3.738,3.164,3.738A3.571,3.571,0,0,0,51.856-.378Zm-1.148-3.85H48.384c.084-1.484.462-1.848,1.176-1.848C50.442-6.076,50.694-5.6,50.708-4.228ZM55.188,0a.436.436,0,0,0,.434-.434V-5.306a2.079,2.079,0,0,1,1.358-.63c.518,0,.756.182.756.924V-.434A.436.436,0,0,0,58.17,0H58.9a.436.436,0,0,0,.434-.434V-5.418c0-1.33-.658-1.848-1.778-1.848a2.893,2.893,0,0,0-2.086.952l-.07-.35a.555.555,0,0,0-.532-.42H54.46a.436.436,0,0,0-.434.434V-.434A.436.436,0,0,0,54.46,0Z" transform="translate(86 254)" fill="#0c5e69"/>
    <g id="Ellipse_48" data-name="Ellipse 48" transform="translate(55 240)" fill="#f4cf45" stroke="#fff" stroke-width="1">
      <circle cx="10" cy="10" r="10" stroke="none"/>
      <circle cx="10" cy="10" r="9.5" fill="none"/>
    </g>
    <rect id="Rechteck_965" data-name="Rechteck 965" width="126" height="30" rx="15" transform="translate(50 310)" fill="#ddf2f3"/>
    <text id="Toolanbieter" transform="translate(86 329)" fill="#0c5e69" font-size="14" font-family="UnitRoundedPro-Medium, Unit Rounded Pro" font-weight="500"><tspan x="0" y="0">Toolanbieter</tspan></text>
    <g id="Ellipse_49" data-name="Ellipse 49" transform="translate(55 315)" fill="#a4b700" stroke="#fff" stroke-width="1">
      <circle cx="10" cy="10" r="10" stroke="none"/>
      <circle cx="10" cy="10" r="9.5" fill="none"/>
    </g>
    <g id="Gruppe_1427" data-name="Gruppe 1427" transform="translate(-1532.009 730.287) rotate(-65)">
      <circle id="Ellipse_50" data-name="Ellipse 50" cx="135.5" cy="135.5" r="135.5" transform="translate(1241 1551)" fill="#ddf2f3" style="mix-blend-mode: multiply;isolation: isolate"/>
      <g id="Gruppe_1426" data-name="Gruppe 1426" transform="translate(-46.047 23.665)">
        <path id="Pfad_4036" data-name="Pfad 4036" d="M-68.326-136.651A121.335,121.335,0,0,0,53.009-257.986,121.335,121.335,0,0,0-68.326-379.32,121.334,121.334,0,0,0-189.66-257.986,121.334,121.334,0,0,0-68.326-136.651" transform="translate(1490.708 1920.321)" fill="#fff"/>
        <path id="Pfad_4037" data-name="Pfad 4037" d="M-136.652-68.326a121.234,121.234,0,0,0-55.659-102.037L-257.986-68.289l.04-121.371h-.04A121.335,121.335,0,0,0-379.321-68.326,121.335,121.335,0,0,0-257.986,53.009,121.335,121.335,0,0,0-136.652-68.326" transform="translate(1680.368 1730.661)" fill="#59c1c4"/>
        <path id="Pfad_4038" data-name="Pfad 4038" d="M-68.326,0A121.335,121.335,0,0,0-189.66,121.334,121.335,121.335,0,0,0-68.326,242.669,121.137,121.137,0,0,0,28.314,194.7l-96.639-73.33Z" transform="translate(1490.708 1541)" fill="#c0ea42"/>
        <path id="Pfad_4039" data-name="Pfad 4039" d="M-68.326,0h0A121.335,121.335,0,0,0-189.66,121.334a121.322,121.322,0,0,0,65.841,107.925l55.494-107.925Z" transform="translate(1490.708 1541)" fill="#55c57c"/>
        <path id="Pfad_4040" data-name="Pfad 4040" d="M-65.226,0A121.387,121.387,0,0,0-181.055,85.1l115.829,36.273L-65.186,0Z" transform="translate(1487.608 1541)" fill="#158b9b"/>
        <path id="Pfad_4041" data-name="Pfad 4041" d="M-33.271,0A120.781,120.781,0,0,0-92.354,15.341l59.083,105.993Z" transform="translate(1455.653 1541)" fill="#f4cf45"/>
        <g id="Gruppe_1402" data-name="Gruppe 1402" transform="translate(1406.38 1541)">
          <path id="Pfad_4042" data-name="Pfad 4042" d="M-9.011,0a122.382,122.382,0,0,0-16,1.051l16,120.283Z" transform="translate(25.013)" fill="#a4b700"/>
        </g>
        <path id="Pfad_4043" data-name="Pfad 4043" d="M0-136.652H242.669V-379.321H0Z" transform="translate(1301.047 1920.321)" fill="none"/>
      </g>
    </g>
    <path id="Pfad_4045" data-name="Pfad 4045" d="M4191.7,1592l13.328-48.311h63.008" transform="translate(-3585.287 -1491)" fill="none" stroke="#0b4b53" stroke-linecap="round" stroke-width="1"/>
    <path id="Pfad_4124" data-name="Pfad 4124" d="M6.848,0a.5.5,0,0,0,.5-.5v-.576a.5.5,0,0,0-.5-.5H2.88C6.24-4.08,7.168-5.392,7.168-7.344c0-2.1-1.328-3.072-3.344-3.072a5.467,5.467,0,0,0-2.752.672.554.554,0,0,0-.24.688l.224.5a.466.466,0,0,0,.64.224,4.01,4.01,0,0,1,1.92-.48c1.008,0,1.536.48,1.536,1.648,0,1.424-.768,2.432-4.064,5.168A1.073,1.073,0,0,0,.7-1.184V-.5a.5.5,0,0,0,.5.5Zm9.888-3.584c0-2.288-1.312-3.584-3.344-3.584a3.149,3.149,0,0,0-2.08.72c.416-2.08,1.488-2.736,3.664-3.424a.505.505,0,0,0,.352-.608l-.112-.464a.555.555,0,0,0-.608-.368c-3.7.832-5.5,2.976-5.5,6.912,0,3.04,1.584,4.608,3.9,4.608A3.527,3.527,0,0,0,16.736-3.584Zm-1.984.032c0,1.472-.608,2.256-1.744,2.256-1.3,0-1.888-.816-1.888-2.864,0-.288,0-.56.016-.816a2.67,2.67,0,0,1,1.856-.7C14.16-5.68,14.752-4.944,14.752-3.552Zm15.36.992a2.493,2.493,0,0,0-2.56-2.784,2.475,2.475,0,0,0-2.56,2.752A2.493,2.493,0,0,0,27.552.192,2.483,2.483,0,0,0,30.112-2.56ZM23.136-7.616a2.493,2.493,0,0,0-2.56-2.784,2.488,2.488,0,0,0-2.56,2.768,2.488,2.488,0,0,0,2.56,2.768A2.483,2.483,0,0,0,23.136-7.616ZM21.248,0A.893.893,0,0,0,22-.416l5.728-9.376a.274.274,0,0,0-.24-.416H26.88a.893.893,0,0,0-.752.416L20.4-.416A.274.274,0,0,0,20.64,0Zm5.344-2.64c0-1.1.272-1.552.96-1.552.672,0,.944.384.944,1.664,0,1.088-.272,1.552-.944,1.552S26.592-1.376,26.592-2.64Zm-6.96-5.04c0-1.12.256-1.568.944-1.568.672,0,.944.384.944,1.664,0,1.1-.272,1.552-.944,1.552S19.632-6.416,19.632-7.68Z" transform="translate(659.713 48)" fill="#0b4b53"/>
    <path id="Pfad_4125" data-name="Pfad 4125" d="M6.848,0a.5.5,0,0,0,.5-.5v-.576a.5.5,0,0,0-.5-.5H2.88C6.24-4.08,7.168-5.392,7.168-7.344c0-2.1-1.328-3.072-3.344-3.072a5.467,5.467,0,0,0-2.752.672.554.554,0,0,0-.24.688l.224.5a.466.466,0,0,0,.64.224,4.01,4.01,0,0,1,1.92-.48c1.008,0,1.536.48,1.536,1.648,0,1.424-.768,2.432-4.064,5.168A1.073,1.073,0,0,0,.7-1.184V-.5a.5.5,0,0,0,.5.5Zm8.16,0a.5.5,0,0,0,.5-.5v-.576a.5.5,0,0,0-.5-.5H11.04c3.36-2.512,4.288-3.824,4.288-5.776,0-2.1-1.328-3.072-3.344-3.072a5.467,5.467,0,0,0-2.752.672.554.554,0,0,0-.24.688l.224.5a.466.466,0,0,0,.64.224,4.01,4.01,0,0,1,1.92-.48c1.008,0,1.536.48,1.536,1.648,0,1.424-.768,2.432-4.064,5.168a1.073,1.073,0,0,0-.384.816V-.5a.5.5,0,0,0,.5.5ZM29.2-2.56a2.493,2.493,0,0,0-2.56-2.784,2.475,2.475,0,0,0-2.56,2.752A2.493,2.493,0,0,0,26.64.192,2.483,2.483,0,0,0,29.2-2.56ZM22.224-7.616a2.493,2.493,0,0,0-2.56-2.784A2.488,2.488,0,0,0,17.1-7.632a2.488,2.488,0,0,0,2.56,2.768A2.483,2.483,0,0,0,22.224-7.616ZM20.336,0a.893.893,0,0,0,.752-.416l5.728-9.376a.274.274,0,0,0-.24-.416h-.608a.893.893,0,0,0-.752.416L19.488-.416a.274.274,0,0,0,.24.416ZM25.68-2.64c0-1.1.272-1.552.96-1.552.672,0,.944.384.944,1.664,0,1.088-.272,1.552-.944,1.552S25.68-1.376,25.68-2.64ZM18.72-7.68c0-1.12.256-1.568.944-1.568.672,0,.944.384.944,1.664,0,1.1-.272,1.552-.944,1.552S18.72-6.416,18.72-7.68Z" transform="translate(730.713 224)" fill="#0b4b53"/>
    <path id="Pfad_4047" data-name="Pfad 4047" d="M4160.539,1784.138v45.557H4289.8" transform="translate(-3585.287 -1491)" fill="none" stroke="#0b4b53" stroke-linecap="round" stroke-width="1"/>
    <path id="Pfad_4126" data-name="Pfad 4126" d="M-23.152,0a.5.5,0,0,0,.5-.5v-.576a.5.5,0,0,0-.5-.5H-27.12c3.36-2.512,4.288-3.824,4.288-5.776,0-2.1-1.328-3.072-3.344-3.072a5.467,5.467,0,0,0-2.752.672.554.554,0,0,0-.24.688l.224.5a.466.466,0,0,0,.64.224,4.01,4.01,0,0,1,1.92-.48c1.008,0,1.536.48,1.536,1.648,0,1.424-.768,2.432-4.064,5.168a1.073,1.073,0,0,0-.384.816V-.5a.5.5,0,0,0,.5.5Zm8.16,0a.5.5,0,0,0,.5-.5v-.576a.5.5,0,0,0-.5-.5H-18.96c3.36-2.512,4.288-3.824,4.288-5.776,0-2.1-1.328-3.072-3.344-3.072a5.467,5.467,0,0,0-2.752.672.554.554,0,0,0-.24.688l.224.5a.466.466,0,0,0,.64.224,4.01,4.01,0,0,1,1.92-.48c1.008,0,1.536.48,1.536,1.648,0,1.424-.768,2.432-4.064,5.168a1.073,1.073,0,0,0-.384.816V-.5a.5.5,0,0,0,.5.5ZM-.8-2.56A2.493,2.493,0,0,0-3.36-5.344,2.475,2.475,0,0,0-5.92-2.592,2.493,2.493,0,0,0-3.36.192,2.483,2.483,0,0,0-.8-2.56ZM-7.776-7.616a2.493,2.493,0,0,0-2.56-2.784A2.488,2.488,0,0,0-12.9-7.632a2.488,2.488,0,0,0,2.56,2.768A2.483,2.483,0,0,0-7.776-7.616ZM-9.664,0a.893.893,0,0,0,.752-.416l5.728-9.376a.274.274,0,0,0-.24-.416h-.608a.893.893,0,0,0-.752.416L-10.512-.416a.274.274,0,0,0,.24.416ZM-4.32-2.64c0-1.1.272-1.552.96-1.552.672,0,.944.384.944,1.664,0,1.088-.272,1.552-.944,1.552S-4.32-1.376-4.32-2.64Zm-6.96-5.04c0-1.12.256-1.568.944-1.568.672,0,.944.384.944,1.664,0,1.1-.272,1.552-.944,1.552S-11.28-6.416-11.28-7.68Z" transform="translate(705.713 334)" fill="#0b4b53"/>
    <path id="Pfad_4048" data-name="Pfad 4048" d="M4074.617,1728.685l-56.86,23.28H3942.3" transform="translate(-3585.287 -1491)" fill="none" stroke="#0b4b53" stroke-linecap="round" stroke-width="1"/>
    <path id="Pfad_4120" data-name="Pfad 4120" d="M6.256,0a.5.5,0,0,0,.5-.5v-.512a.5.5,0,0,0-.5-.5H5.024V-9.792a.5.5,0,0,0-.5-.5H4.144a1.56,1.56,0,0,0-.9.32L1.1-8.24a.614.614,0,0,0-.16.752l.1.16a.489.489,0,0,0,.672.224l1.424-.7v6.3H1.664a.5.5,0,0,0-.5.5V-.5a.5.5,0,0,0,.5.5ZM14.32,0a.5.5,0,0,0,.5-.5v-.576a.5.5,0,0,0-.5-.5H10.352c3.36-2.512,4.288-3.824,4.288-5.776,0-2.1-1.328-3.072-3.344-3.072a5.467,5.467,0,0,0-2.752.672.554.554,0,0,0-.24.688l.224.5a.466.466,0,0,0,.64.224,4.01,4.01,0,0,1,1.92-.48c1.008,0,1.536.48,1.536,1.648,0,1.424-.768,2.432-4.064,5.168a1.073,1.073,0,0,0-.384.816V-.5a.5.5,0,0,0,.5.5ZM28.512-2.56a2.493,2.493,0,0,0-2.56-2.784,2.475,2.475,0,0,0-2.56,2.752A2.493,2.493,0,0,0,25.952.192,2.483,2.483,0,0,0,28.512-2.56ZM21.536-7.616a2.493,2.493,0,0,0-2.56-2.784,2.488,2.488,0,0,0-2.56,2.768,2.488,2.488,0,0,0,2.56,2.768A2.483,2.483,0,0,0,21.536-7.616ZM19.648,0A.893.893,0,0,0,20.4-.416l5.728-9.376a.274.274,0,0,0-.24-.416H25.28a.893.893,0,0,0-.752.416L18.8-.416A.274.274,0,0,0,19.04,0Zm5.344-2.64c0-1.1.272-1.552.96-1.552.672,0,.944.384.944,1.664,0,1.088-.272,1.552-.944,1.552S24.992-1.376,24.992-2.64Zm-6.96-5.04c0-1.12.256-1.568.944-1.568.672,0,.944.384.944,1.664,0,1.1-.272,1.552-.944,1.552S18.032-6.416,18.032-7.68Z" transform="translate(356.713 256)" fill="#0b4b53"/>
    <path id="Pfad_4049" data-name="Pfad 4049" d="M4089.134,1621l-43.517-34.785H3978.65" transform="translate(-3585.287 -1491)" fill="none" stroke="#0b4b53" stroke-linecap="round" stroke-width="1"/>
    <path id="Pfad_4123" data-name="Pfad 4123" d="M8.432-5.872c0-3.088-1.536-4.544-3.888-4.544A3.534,3.534,0,0,0,.8-6.672C.8-4.416,2.048-3.04,4.112-3.04a3.184,3.184,0,0,0,2.112-.736C5.776-1.7,4.608-1.008,2.4-.368A.505.505,0,0,0,2.048.24l.128.48a.53.53,0,0,0,.608.368C6.768.24,8.432-1.92,8.432-5.872ZM2.8-6.672c0-1.456.56-2.24,1.728-2.24,1.248,0,1.9.72,1.9,2.816,0,.32-.016.624-.032.9a2.817,2.817,0,0,1-1.888.688C3.344-4.512,2.8-5.184,2.8-6.672ZM22.192-2.56a2.493,2.493,0,0,0-2.56-2.784,2.475,2.475,0,0,0-2.56,2.752A2.493,2.493,0,0,0,19.632.192,2.483,2.483,0,0,0,22.192-2.56ZM15.216-7.616a2.493,2.493,0,0,0-2.56-2.784A2.488,2.488,0,0,0,10.1-7.632a2.488,2.488,0,0,0,2.56,2.768A2.483,2.483,0,0,0,15.216-7.616ZM13.328,0a.893.893,0,0,0,.752-.416l5.728-9.376a.274.274,0,0,0-.24-.416H18.96a.893.893,0,0,0-.752.416L12.48-.416A.274.274,0,0,0,12.72,0Zm5.344-2.64c0-1.1.272-1.552.96-1.552.672,0,.944.384.944,1.664,0,1.088-.272,1.552-.944,1.552S18.672-1.376,18.672-2.64Zm-6.96-5.04c0-1.12.256-1.568.944-1.568.672,0,.944.384.944,1.664,0,1.1-.272,1.552-.944,1.552S11.712-6.416,11.712-7.68Z" transform="translate(391.713 90)" fill="#0b4b53"/>
    <path id="Pfad_4050" data-name="Pfad 4050" d="M4259.479,1706.157l55.969,13.992h30.84" transform="translate(-3585.287 -1491)" fill="none" stroke="#0b4b53" stroke-linecap="round" stroke-width="1"/>
    <path id="Pfad_4051" data-name="Pfad 4051" d="M4065,1676l-57.395-8.073h-65.867" transform="translate(-3585.287 -1491)" fill="none" stroke="#0b4b53" stroke-linecap="round" stroke-width="1"/>
    <path id="Pfad_4121" data-name="Pfad 4121" d="M8.5-3.584c0-2.288-1.312-3.584-3.344-3.584a3.149,3.149,0,0,0-2.08.72c.416-2.08,1.488-2.736,3.664-3.424a.505.505,0,0,0,.352-.608l-.112-.464a.555.555,0,0,0-.608-.368c-3.7.832-5.5,2.976-5.5,6.912,0,3.04,1.584,4.608,3.9,4.608A3.527,3.527,0,0,0,8.5-3.584Zm-1.984.032C6.512-2.08,5.9-1.3,4.768-1.3c-1.3,0-1.888-.816-1.888-2.864,0-.288,0-.56.016-.816a2.67,2.67,0,0,1,1.856-.7C5.92-5.68,6.512-4.944,6.512-3.552Zm15.36.992a2.493,2.493,0,0,0-2.56-2.784,2.475,2.475,0,0,0-2.56,2.752A2.493,2.493,0,0,0,19.312.192,2.483,2.483,0,0,0,21.872-2.56ZM14.9-7.616a2.493,2.493,0,0,0-2.56-2.784,2.488,2.488,0,0,0-2.56,2.768,2.488,2.488,0,0,0,2.56,2.768A2.483,2.483,0,0,0,14.9-7.616ZM13.008,0a.893.893,0,0,0,.752-.416l5.728-9.376a.274.274,0,0,0-.24-.416H18.64a.893.893,0,0,0-.752.416L12.16-.416A.274.274,0,0,0,12.4,0Zm5.344-2.64c0-1.1.272-1.552.96-1.552.672,0,.944.384.944,1.664,0,1.088-.272,1.552-.944,1.552S18.352-1.376,18.352-2.64Zm-6.96-5.04c0-1.12.256-1.568.944-1.568.672,0,.944.384.944,1.664,0,1.1-.272,1.552-.944,1.552S11.392-6.416,11.392-7.68Z" transform="translate(356.713 172)" fill="#0b4b53"/>
    <path id="Pfad_4052" data-name="Pfad 4052" d="M4072.056,1650.89l-71.178-27.66h-59.2" transform="translate(-3585.287 -1491)" fill="none" stroke="#0b4b53" stroke-linecap="round" stroke-width="1"/>
    <path id="Pfad_4122" data-name="Pfad 4122" d="M6.848,0a.5.5,0,0,0,.5-.5v-.576a.5.5,0,0,0-.5-.5H2.88C6.24-4.08,7.168-5.392,7.168-7.344c0-2.1-1.328-3.072-3.344-3.072a5.467,5.467,0,0,0-2.752.672.554.554,0,0,0-.24.688l.224.5a.466.466,0,0,0,.64.224,4.01,4.01,0,0,1,1.92-.48c1.008,0,1.536.48,1.536,1.648,0,1.424-.768,2.432-4.064,5.168A1.073,1.073,0,0,0,.7-1.184V-.5a.5.5,0,0,0,.5.5ZM21.04-2.56a2.493,2.493,0,0,0-2.56-2.784,2.475,2.475,0,0,0-2.56,2.752A2.493,2.493,0,0,0,18.48.192,2.483,2.483,0,0,0,21.04-2.56ZM14.064-7.616A2.493,2.493,0,0,0,11.5-10.4a2.488,2.488,0,0,0-2.56,2.768A2.488,2.488,0,0,0,11.5-4.864,2.483,2.483,0,0,0,14.064-7.616ZM12.176,0a.893.893,0,0,0,.752-.416l5.728-9.376a.274.274,0,0,0-.24-.416h-.608a.893.893,0,0,0-.752.416L11.328-.416a.274.274,0,0,0,.24.416ZM17.52-2.64c0-1.1.272-1.552.96-1.552.672,0,.944.384.944,1.664,0,1.088-.272,1.552-.944,1.552S17.52-1.376,17.52-2.64ZM10.56-7.68c0-1.12.256-1.568.944-1.568.672,0,.944.384.944,1.664,0,1.1-.272,1.552-.944,1.552S10.56-6.416,10.56-7.68Z" transform="translate(356.713 127)" fill="#0b4b53"/>
    <rect id="Rechteck_965-2" data-name="Rechteck 965" width="126" height="30" rx="15" transform="translate(50 310)" fill="#ddf2f3"/>
    <path id="Pfad_4119" data-name="Pfad 4119" d="M3.934,0a.436.436,0,0,0,.434-.434v-7.8H6.132a.436.436,0,0,0,.434-.434v-.588a.436.436,0,0,0-.434-.434H.938A.436.436,0,0,0,.5-9.254v.588a.436.436,0,0,0,.434.434H2.7v7.8A.436.436,0,0,0,3.136,0Zm8.988-3.542c0-2.66-1.162-3.724-3-3.724S6.958-6.23,6.958-3.556,8.106.182,9.94.182,12.922-.882,12.922-3.542Zm-4.27,0c0-2.03.35-2.52,1.274-2.52s1.288.476,1.288,2.506c0,2-.35,2.534-1.274,2.534S8.652-1.54,8.652-3.542Zm11.522,0c0-2.66-1.162-3.724-3-3.724S14.21-6.23,14.21-3.556,15.358.182,17.192.182,20.174-.882,20.174-3.542Zm-4.27,0c0-2.03.35-2.52,1.274-2.52s1.288.476,1.288,2.506c0,2-.35,2.534-1.274,2.534S15.9-1.54,15.9-3.542ZM23.968.084A.4.4,0,0,0,24.3-.378l-.042-.294c-.042-.28-.224-.364-.5-.448-.2-.056-.294-.21-.294-.518v-8.12a.436.436,0,0,0-.434-.434H22.3a.436.436,0,0,0-.434.434v7.924c0,1.386.308,1.988,1.512,1.988A2.7,2.7,0,0,0,23.968.084Zm5.222-.7.07.2a.584.584,0,0,0,.56.42H30.2a.436.436,0,0,0,.434-.434v-4.62c0-1.6-.742-2.212-2.324-2.212a4.627,4.627,0,0,0-2.338.6.451.451,0,0,0-.182.6l.182.364a.438.438,0,0,0,.588.182A3.717,3.717,0,0,1,28.14-5.95c.8,0,.9.406.9,1.148V-4.4h-.5c-2.212,0-3.164.714-3.164,2.338A1.951,1.951,0,0,0,27.482.182,2.285,2.285,0,0,0,29.19-.616Zm-2.2-1.456c0-.9.266-1.288,1.792-1.288h.252v1.792a1.715,1.715,0,0,1-1.2.588C27.23-.98,26.992-1.26,26.992-2.072ZM33.824,0a.436.436,0,0,0,.434-.434V-5.306a2.079,2.079,0,0,1,1.358-.63c.518,0,.756.182.756.924V-.434A.436.436,0,0,0,36.806,0h.728a.436.436,0,0,0,.434-.434V-5.418c0-1.33-.658-1.848-1.778-1.848a2.893,2.893,0,0,0-2.086.952l-.07-.35a.555.555,0,0,0-.532-.42H33.1a.436.436,0,0,0-.434.434V-.434A.436.436,0,0,0,33.1,0ZM45.738-3.64c0-2.842-.966-3.626-2.394-3.626a2.456,2.456,0,0,0-1.75.8v-3.29a.436.436,0,0,0-.434-.434h-.728A.436.436,0,0,0,40-9.758V-.434A.436.436,0,0,0,40.432,0h.406a.567.567,0,0,0,.546-.42l.07-.238a2.565,2.565,0,0,0,1.862.84C44.94.182,45.738-.826,45.738-3.64ZM41.594-1.666V-5.334a1.826,1.826,0,0,1,1.33-.63c.84,0,1.106.406,1.106,2.408,0,2.044-.308,2.422-1.2,2.422A1.818,1.818,0,0,1,41.594-1.666ZM49.014,0a.436.436,0,0,0,.434-.434V-6.65a.436.436,0,0,0-.434-.434H47.376a.436.436,0,0,0-.434.434v.168a.527.527,0,0,0,.42.518l.5.084V-.434A.436.436,0,0,0,48.3,0Zm.658-9.17a1.013,1.013,0,0,0-1.022-1.036A1.022,1.022,0,0,0,47.628-9.17a1.007,1.007,0,0,0,1.008,1.022A1.013,1.013,0,0,0,49.672-9.17ZM56.364-.378a.431.431,0,0,0,.112-.6l-.266-.378a.444.444,0,0,0-.6-.126,2.25,2.25,0,0,1-1.274.378c-1.008,0-1.4-.364-1.456-1.988h3.738a.248.248,0,0,0,.238-.252v-.266c0-2.59-.9-3.654-2.8-3.654-1.778,0-2.87,1.022-2.87,3.71,0,2.66,1.05,3.738,3.164,3.738A3.571,3.571,0,0,0,56.364-.378Zm-1.148-3.85H52.892c.084-1.484.462-1.848,1.176-1.848C54.95-6.076,55.2-5.6,55.216-4.228ZM58.7-5.852v4.4c0,1.232.756,1.638,1.848,1.638a2.7,2.7,0,0,0,.826-.126A.474.474,0,0,0,61.7-.5l-.084-.364a.325.325,0,0,0-.406-.238,1.533,1.533,0,0,1-.378.056c-.364,0-.546-.168-.546-.7v-4.1h.952a.436.436,0,0,0,.434-.434V-6.65a.436.436,0,0,0-.434-.434h-.952V-8.736a.358.358,0,0,0-.42-.35l-.742.14a.527.527,0,0,0-.42.518v1.344h-.336a.436.436,0,0,0-.434.434v.364a.436.436,0,0,0,.434.434Zm9.31,5.474a.431.431,0,0,0,.112-.6l-.266-.378a.444.444,0,0,0-.6-.126,2.25,2.25,0,0,1-1.274.378c-1.008,0-1.4-.364-1.456-1.988h3.738a.248.248,0,0,0,.238-.252v-.266c0-2.59-.9-3.654-2.8-3.654-1.778,0-2.87,1.022-2.87,3.71C62.832-.9,63.882.182,66,.182A3.571,3.571,0,0,0,68.012-.378Zm-1.148-3.85H64.54c.084-1.484.462-1.848,1.176-1.848C66.6-6.076,66.85-5.6,66.864-4.228ZM71.344,0a.436.436,0,0,0,.434-.434v-4.69a1.807,1.807,0,0,1,1.3-.518,1.93,1.93,0,0,1,.308.028.253.253,0,0,0,.308-.21l.182-1.148A.181.181,0,0,0,73.71-7.2a1.2,1.2,0,0,0-.224-.014,2.35,2.35,0,0,0-1.848,1.022l-.1-.476a.527.527,0,0,0-.518-.42h-.406a.436.436,0,0,0-.434.434V-.434A.436.436,0,0,0,70.616,0Z" transform="translate(86 329)" fill="#0c5e69"/>
    <g id="Ellipse_49-2" data-name="Ellipse 49" transform="translate(55 315)" fill="#a4b700" stroke="#fff" stroke-width="1">
      <circle cx="10" cy="10" r="10" stroke="none"/>
      <circle cx="10" cy="10" r="9.5" fill="none"/>
    </g>
  </g>
</svg>
