<svg xmlns="http://www.w3.org/2000/svg" xmlns:xlink="http://www.w3.org/1999/xlink" width="516" height="905" viewBox="0 0 516 905">
  <defs>
    <clipPath id="clip-path">
      <path id="Pfad_4056" data-name="Pfad 4056" d="M31.43,158.369h64.5V-272.266H31.43Z" transform="translate(-31.43 272.266)" fill="#158b9b"/>
    </clipPath>
    <clipPath id="clip-path-2">
      <path id="Pfad_4074" data-name="Pfad 4074" d="M31.43,140.369h64.5V-272.266H31.43Z" transform="translate(-31.43 272.266)" fill="#158b9b"/>
    </clipPath>
    <clipPath id="clip-path-3">
      <path id="Pfad_4076" data-name="Pfad 4076" d="M31.43,317.369h64.5V-272.266H31.43Z" transform="translate(-31.43 272.266)" fill="#158b9b"/>
    </clipPath>
    <clipPath id="clip-path-4">
      <path id="Pfad_4078" data-name="Pfad 4078" d="M31.43,213.369h64.5V-272.266H31.43Z" transform="translate(-31.43 272.266)" fill="#158b9b"/>
    </clipPath>
    <clipPath id="clip-path-5">
      <path id="Pfad_4080" data-name="Pfad 4080" d="M31.43,167.369h64.5V-272.266H31.43Z" transform="translate(-31.43 272.266)" fill="#158b9b"/>
    </clipPath>
    <clipPath id="clip-Unternehmensgrösse_nach_Mitarbeiteranzahl">
      <rect width="516" height="905"/>
    </clipPath>
  </defs>
  <g id="Unternehmensgrösse_nach_Mitarbeiteranzahl" data-name="Unternehmensgrösse nach Mitarbeiteranzahl" clip-path="url(#clip-Unternehmensgrösse_nach_Mitarbeiteranzahl)">
    <rect width="516" height="905" fill="#fff"/>
    <g id="Gruppe_1444" data-name="Gruppe 1444" transform="translate(50.5 378.633)" clip-path="url(#clip-path)" style="isolation: isolate">
      <g id="Gruppe_1443" data-name="Gruppe 1443" transform="translate(-25.748 597.777) rotate(-90)">
        <path id="Pfad_4055" data-name="Pfad 4055" d="M1051.628,0V611.878H0V0Z" fill="#158b9b"/>
      </g>
    </g>
    <rect id="Rechteck_965" data-name="Rechteck 965" width="65" height="30" rx="15" transform="translate(50 825)" fill="#ddf2f3"/>
    <path id="Pfad_4084" data-name="Pfad 4084" d="M13.444,9.506c0-3.164-1.386-4.62-3.626-4.62-2.2,0-3.626,1.526-3.626,4.676,0,3.178,1.4,4.606,3.64,4.606S13.444,12.712,13.444,9.506Zm-5.474,0c0-2.394.518-3.332,1.848-3.332s1.848.938,1.848,3.374-.518,3.332-1.848,3.332S7.97,11.942,7.97,9.506ZM20.864,10.85a.436.436,0,0,0,.434-.434V9.884a.436.436,0,0,0-.434-.434H15.348a.436.436,0,0,0-.434.434v.532a.436.436,0,0,0,.434.434ZM27.5,14a.436.436,0,0,0,.434-.434v-.448a.436.436,0,0,0-.434-.434H26.422V5.432A.436.436,0,0,0,25.988,5h-.336a1.365,1.365,0,0,0-.784.28L22.992,6.79a.537.537,0,0,0-.14.658l.084.14a.428.428,0,0,0,.588.2l1.246-.616v5.516H23.482a.436.436,0,0,0-.434.434v.448a.436.436,0,0,0,.434.434Z" transform="translate(66 830)" fill="#0c5e69"/>
    <rect id="Rechteck_965-2" data-name="Rechteck 965" width="65" height="30" rx="15" transform="translate(138 825)" fill="#ddf2f3"/>
    <path id="Pfad_4085" data-name="Pfad 4085" d="M23.358,14a.436.436,0,0,0,.434-.434v-.5a.436.436,0,0,0-.434-.434H19.886c2.94-2.2,3.752-3.346,3.752-5.054,0-1.834-1.162-2.688-2.926-2.688a4.784,4.784,0,0,0-2.408.588.485.485,0,0,0-.21.6l.2.434a.408.408,0,0,0,.56.2,3.509,3.509,0,0,1,1.68-.42c.882,0,1.344.42,1.344,1.442,0,1.246-.672,2.128-3.556,4.522a.939.939,0,0,0-.336.714v.6a.436.436,0,0,0,.434.434Zm7.8-3.15a.436.436,0,0,0,.434-.434V9.884a.436.436,0,0,0-.434-.434H25.64a.436.436,0,0,0-.434.434v.532a.436.436,0,0,0,.434.434ZM37.792,14a.436.436,0,0,0,.434-.434v-.448a.436.436,0,0,0-.434-.434H36.714V5.432A.436.436,0,0,0,36.28,5h-.336a1.365,1.365,0,0,0-.784.28L33.284,6.79a.537.537,0,0,0-.14.658l.084.14a.428.428,0,0,0,.588.2l1.246-.616v5.516H33.774a.436.436,0,0,0-.434.434v.448a.436.436,0,0,0,.434.434Zm9.072-4.494c0-3.164-1.386-4.62-3.626-4.62-2.2,0-3.626,1.526-3.626,4.676,0,3.178,1.4,4.606,3.64,4.606S46.864,12.712,46.864,9.506Zm-5.474,0c0-2.394.518-3.332,1.848-3.332s1.848.938,1.848,3.374-.518,3.332-1.848,3.332S41.39,11.942,41.39,9.506Z" transform="translate(138 830)" fill="#0c5e69"/>
    <rect id="Rechteck_965-3" data-name="Rechteck 965" width="65" height="30" rx="15" transform="translate(226 825)" fill="#ddf2f3"/>
    <path id="Pfad_4086" data-name="Pfad 4086" d="M19.494,14a.436.436,0,0,0,.434-.434v-.448a.436.436,0,0,0-.434-.434H18.416V5.432A.436.436,0,0,0,17.982,5h-.336a1.365,1.365,0,0,0-.784.28L14.986,6.79a.537.537,0,0,0-.14.658l.084.14a.428.428,0,0,0,.588.2l1.246-.616v5.516H15.476a.436.436,0,0,0-.434.434v.448a.436.436,0,0,0,.434.434Zm6.538,0a.436.436,0,0,0,.434-.434v-.448a.436.436,0,0,0-.434-.434H24.954V5.432A.436.436,0,0,0,24.52,5h-.336a1.365,1.365,0,0,0-.784.28L21.524,6.79a.537.537,0,0,0-.14.658l.084.14a.428.428,0,0,0,.588.2L23.3,7.168v5.516H22.014a.436.436,0,0,0-.434.434v.448a.436.436,0,0,0,.434.434Zm7.714-3.15a.436.436,0,0,0,.434-.434V9.884a.436.436,0,0,0-.434-.434H28.23a.436.436,0,0,0-.434.434v.532a.436.436,0,0,0,.434.434Zm7.714.616A2.839,2.839,0,0,0,38.31,8.54a3.972,3.972,0,0,0-.756.07l.182-2.128h2.912a.436.436,0,0,0,.434-.434V5.5a.436.436,0,0,0-.434-.434H36.8a.5.5,0,0,0-.476.448l-.336,4.2a.3.3,0,0,0,.378.322,4.957,4.957,0,0,1,1.33-.154c1.358,0,1.988.42,1.988,1.694s-.63,1.932-2.086,1.932a5.725,5.725,0,0,1-1.47-.2.421.421,0,0,0-.518.308l-.112.462a.462.462,0,0,0,.308.546,6.018,6.018,0,0,0,1.89.294C40.214,14.924,41.46,13.65,41.46,11.466Zm8.75-1.96c0-3.164-1.386-4.62-3.626-4.62-2.2,0-3.626,1.526-3.626,4.676,0,3.178,1.4,4.606,3.64,4.606S50.21,12.712,50.21,9.506Zm-5.474,0c0-2.394.518-3.332,1.848-3.332s1.848.938,1.848,3.374-.518,3.332-1.848,3.332S44.736,11.942,44.736,9.506Z" transform="translate(226 830)" fill="#0c5e69"/>
    <rect id="Rechteck_965-4" data-name="Rechteck 965" width="65" height="30" rx="15" transform="translate(313 825)" fill="#ddf2f3"/>
    <path id="Pfad_4087" data-name="Pfad 4087" d="M16.323,11.466a2.839,2.839,0,0,0-3.15-2.926,3.972,3.972,0,0,0-.756.07L12.6,6.482h2.912a.436.436,0,0,0,.434-.434V5.5a.436.436,0,0,0-.434-.434h-3.85a.5.5,0,0,0-.476.448l-.336,4.2a.3.3,0,0,0,.378.322,4.957,4.957,0,0,1,1.33-.154c1.358,0,1.988.42,1.988,1.694s-.63,1.932-2.086,1.932a5.725,5.725,0,0,1-1.47-.2.421.421,0,0,0-.518.308l-.112.462a.462.462,0,0,0,.308.546,6.018,6.018,0,0,0,1.89.294C15.077,14.924,16.323,13.65,16.323,11.466ZM23.057,14a.436.436,0,0,0,.434-.434v-.5a.436.436,0,0,0-.434-.434H19.585c2.94-2.2,3.752-3.346,3.752-5.054,0-1.834-1.162-2.688-2.926-2.688A4.784,4.784,0,0,0,18,5.474a.485.485,0,0,0-.21.6l.2.434a.408.408,0,0,0,.56.2,3.509,3.509,0,0,1,1.68-.42c.882,0,1.344.42,1.344,1.442,0,1.246-.672,2.128-3.556,4.522a.939.939,0,0,0-.336.714v.6a.436.436,0,0,0,.434.434Zm7.8-3.15a.436.436,0,0,0,.434-.434V9.884a.436.436,0,0,0-.434-.434H25.339a.436.436,0,0,0-.434.434v.532a.436.436,0,0,0,.434.434ZM38.009,14a.436.436,0,0,0,.434-.434v-.5a.436.436,0,0,0-.434-.434H34.537c2.94-2.2,3.752-3.346,3.752-5.054,0-1.834-1.162-2.688-2.926-2.688a4.784,4.784,0,0,0-2.408.588.485.485,0,0,0-.21.6l.2.434a.408.408,0,0,0,.56.2,3.509,3.509,0,0,1,1.68-.42c.882,0,1.344.42,1.344,1.442,0,1.246-.672,2.128-3.556,4.522a.939.939,0,0,0-.336.714v.6a.436.436,0,0,0,.434.434Zm7.77-2.534a2.839,2.839,0,0,0-3.15-2.926,3.972,3.972,0,0,0-.756.07l.182-2.128h2.912a.436.436,0,0,0,.434-.434V5.5a.436.436,0,0,0-.434-.434h-3.85a.5.5,0,0,0-.476.448l-.336,4.2a.3.3,0,0,0,.378.322,4.957,4.957,0,0,1,1.33-.154c1.358,0,1.988.42,1.988,1.694s-.63,1.932-2.086,1.932a5.725,5.725,0,0,1-1.47-.2.421.421,0,0,0-.518.308l-.112.462a.462.462,0,0,0,.308.546,6.018,6.018,0,0,0,1.89.294C44.533,14.924,45.779,13.65,45.779,11.466Zm8.75-1.96c0-3.164-1.386-4.62-3.626-4.62-2.2,0-3.626,1.526-3.626,4.676,0,3.178,1.4,4.606,3.64,4.606S54.529,12.712,54.529,9.506Zm-5.474,0c0-2.394.518-3.332,1.848-3.332s1.848.938,1.848,3.374S52.233,12.88,50.9,12.88,49.055,11.942,49.055,9.506Z" transform="translate(313 830)" fill="#0c5e69"/>
    <rect id="Rechteck_965-5" data-name="Rechteck 965" width="65" height="30" rx="15" transform="translate(401 825)" fill="#ddf2f3"/>
    <path id="Pfad_4088" data-name="Pfad 4088" d="M20.943,10.542a.938.938,0,0,0,.322-.686V9.828a.933.933,0,0,0-.322-.672L18.115,6.818a.428.428,0,0,0-.28-.1.447.447,0,0,0-.336.154l-.336.406a.441.441,0,0,0,.056.616l2.352,1.96L17.219,11.8a.441.441,0,0,0-.056.616l.336.406a.441.441,0,0,0,.616.056ZM31.485,14a.436.436,0,0,0,.434-.434v-.5a.436.436,0,0,0-.434-.434H28.013c2.94-2.2,3.752-3.346,3.752-5.054,0-1.834-1.162-2.688-2.926-2.688a4.784,4.784,0,0,0-2.408.588.485.485,0,0,0-.21.6l.2.434a.408.408,0,0,0,.56.2,3.509,3.509,0,0,1,1.68-.42c.882,0,1.344.42,1.344,1.442,0,1.246-.672,2.128-3.556,4.522a.939.939,0,0,0-.336.714v.6a.436.436,0,0,0,.434.434Zm7.77-2.534a2.839,2.839,0,0,0-3.15-2.926,3.972,3.972,0,0,0-.756.07l.182-2.128h2.912a.436.436,0,0,0,.434-.434V5.5a.436.436,0,0,0-.434-.434h-3.85a.5.5,0,0,0-.476.448l-.336,4.2a.3.3,0,0,0,.378.322,4.957,4.957,0,0,1,1.33-.154c1.358,0,1.988.42,1.988,1.694s-.63,1.932-2.086,1.932a5.725,5.725,0,0,1-1.47-.2.421.421,0,0,0-.518.308l-.112.462a.462.462,0,0,0,.308.546,6.018,6.018,0,0,0,1.89.294C38.009,14.924,39.255,13.65,39.255,11.466Zm8.75-1.96c0-3.164-1.386-4.62-3.626-4.62-2.2,0-3.626,1.526-3.626,4.676,0,3.178,1.4,4.606,3.64,4.606S48.005,12.712,48.005,9.506Zm-5.474,0c0-2.394.518-3.332,1.848-3.332s1.848.938,1.848,3.374-.518,3.332-1.848,3.332S42.531,11.942,42.531,9.506Z" transform="translate(401 830)" fill="#0c5e69"/>
    <g id="Gruppe_1494" data-name="Gruppe 1494" transform="translate(138.5 396.633)" clip-path="url(#clip-path-2)" style="isolation: isolate">
      <g id="Gruppe_1493" data-name="Gruppe 1493" transform="translate(-25.748 572.79) rotate(-90)">
        <path id="Pfad_4073" data-name="Pfad 4073" d="M1007.671,0V611.878H0V0Z" fill="#158b9b"/>
      </g>
    </g>
    <g id="Gruppe_1496" data-name="Gruppe 1496" transform="translate(226.5 219.633)" clip-path="url(#clip-path-3)" style="isolation: isolate">
      <g id="Gruppe_1495" data-name="Gruppe 1495" transform="translate(-25.748 818.489) rotate(-90)">
        <path id="Pfad_4075" data-name="Pfad 4075" d="M1439.912,0V611.878H0V0Z" fill="#158b9b"/>
      </g>
    </g>
    <g id="Gruppe_1498" data-name="Gruppe 1498" transform="translate(313.5 323.633)" clip-path="url(#clip-path-4)" style="isolation: isolate">
      <g id="Gruppe_1497" data-name="Gruppe 1497" transform="translate(-25.748 674.124) rotate(-90)">
        <path id="Pfad_4077" data-name="Pfad 4077" d="M1185.94,0V611.878H0V0Z" fill="#158b9b"/>
      </g>
    </g>
    <g id="Gruppe_1500" data-name="Gruppe 1500" transform="translate(400.5 369.633)" clip-path="url(#clip-path-5)" style="isolation: isolate">
      <g id="Gruppe_1499" data-name="Gruppe 1499" transform="translate(-25.748 610.27) rotate(-90)">
        <path id="Pfad_4079" data-name="Pfad 4079" d="M1073.606,0V611.878H0V0Z" fill="#158b9b"/>
      </g>
    </g>
    <path id="Pfad_4093" data-name="Pfad 4093" d="M18.788,25a.779.779,0,0,0,.775-.775v-.8a.779.779,0,0,0-.775-.775H16.863V9.7a.779.779,0,0,0-.775-.775h-.6a2.437,2.437,0,0,0-1.4.5l-3.35,2.7a.959.959,0,0,0-.25,1.175l.15.25a.764.764,0,0,0,1.05.35l2.225-1.1v9.85h-2.3a.779.779,0,0,0-.775.775v.8a.779.779,0,0,0,.775.775Zm15.05-5.6c0-3.575-2.05-5.6-5.225-5.6a4.921,4.921,0,0,0-3.25,1.125c.65-3.25,2.325-4.275,5.725-5.35a.789.789,0,0,0,.55-.95L31.462,7.9a.867.867,0,0,0-.95-.575c-5.775,1.3-8.6,4.65-8.6,10.8,0,4.75,2.475,7.2,6.1,7.2A5.511,5.511,0,0,0,33.838,19.4Zm-3.1.05c0,2.3-.95,3.525-2.725,3.525-2.025,0-2.95-1.275-2.95-4.475,0-.45,0-.875.025-1.275a4.173,4.173,0,0,1,2.9-1.1C29.813,16.125,30.737,17.275,30.737,19.45Zm24,1.55c0-2.725-1.6-4.35-4-4.35s-4,1.6-4,4.3c0,2.725,1.6,4.35,4,4.35C53.113,25.3,54.738,23.7,54.738,21Zm-10.9-7.9c0-2.725-1.6-4.35-4-4.35-2.375,0-4,1.6-4,4.325,0,2.7,1.6,4.325,4,4.325C42.213,17.4,43.838,15.8,43.838,13.1ZM40.888,25a1.4,1.4,0,0,0,1.175-.65L51.013,9.7a.428.428,0,0,0-.375-.65h-.95a1.4,1.4,0,0,0-1.175.65l-8.95,14.65a.428.428,0,0,0,.375.65Zm8.35-4.125c0-1.725.425-2.425,1.5-2.425,1.05,0,1.475.6,1.475,2.6,0,1.7-.425,2.425-1.475,2.425S49.238,22.85,49.238,20.875ZM38.363,13c0-1.75.4-2.45,1.475-2.45,1.05,0,1.475.6,1.475,2.6,0,1.725-.425,2.425-1.475,2.425S38.363,14.975,38.363,13Z" transform="translate(50 336.633)" fill="#22283c"/>
    <path id="Pfad_4092" data-name="Pfad 4092" d="M19.237,25a.779.779,0,0,0,.775-.775v-.8a.779.779,0,0,0-.775-.775H17.313V9.7a.779.779,0,0,0-.775-.775h-.6a2.437,2.437,0,0,0-1.4.5l-3.35,2.7a.959.959,0,0,0-.25,1.175l.15.25a.764.764,0,0,0,1.05.35l2.225-1.1v9.85h-2.3a.779.779,0,0,0-.775.775v.8a.779.779,0,0,0,.775.775Zm13.725-4.525c0-3.425-2.425-5.225-5.625-5.225a7.094,7.094,0,0,0-1.35.125l.325-3.8h5.2a.779.779,0,0,0,.775-.775V9.825a.779.779,0,0,0-.775-.775H24.638a.888.888,0,0,0-.85.8l-.6,7.5a.538.538,0,0,0,.675.575,8.851,8.851,0,0,1,2.375-.275c2.425,0,3.55.75,3.55,3.025s-1.125,3.45-3.725,3.45a10.223,10.223,0,0,1-2.625-.35.752.752,0,0,0-.925.55l-.2.825a.826.826,0,0,0,.55.975,10.746,10.746,0,0,0,3.375.525C30.738,26.65,32.963,24.375,32.963,20.475ZM54.287,21c0-2.725-1.6-4.35-4-4.35s-4,1.6-4,4.3c0,2.725,1.6,4.35,4,4.35C52.662,25.3,54.287,23.7,54.287,21Zm-10.9-7.9c0-2.725-1.6-4.35-4-4.35-2.375,0-4,1.6-4,4.325,0,2.7,1.6,4.325,4,4.325C41.762,17.4,43.387,15.8,43.387,13.1ZM40.438,25a1.4,1.4,0,0,0,1.175-.65L50.563,9.7a.428.428,0,0,0-.375-.65h-.95a1.4,1.4,0,0,0-1.175.65l-8.95,14.65a.428.428,0,0,0,.375.65Zm8.35-4.125c0-1.725.425-2.425,1.5-2.425,1.05,0,1.475.6,1.475,2.6,0,1.7-.425,2.425-1.475,2.425S48.787,22.85,48.787,20.875ZM37.912,13c0-1.75.4-2.45,1.475-2.45,1.05,0,1.475.6,1.475,2.6,0,1.725-.425,2.425-1.475,2.425S37.912,14.975,37.912,13Z" transform="translate(138.5 354.633)" fill="#22283c"/>
    <path id="Pfad_4091" data-name="Pfad 4091" d="M19.1,21.15A4.1,4.1,0,0,0,16.125,17a3.828,3.828,0,0,0,2.425-3.975c0-2.625-1.875-4.3-5-4.3a10.426,10.426,0,0,0-4.225.85.831.831,0,0,0-.425,1.05l.25.7a.786.786,0,0,0,1,.45,8.153,8.153,0,0,1,2.875-.55c1.8,0,2.475.7,2.475,2.15,0,1.725-.7,2.5-2.775,2.5h-.7a.662.662,0,0,0-.65.65v1.1a.566.566,0,0,0,.575.575h.6c2.35,0,3.325.625,3.325,2.75,0,2.25-.85,3.125-3.3,3.125a15.277,15.277,0,0,1-2.925-.35.784.784,0,0,0-.925.6l-.175.825a.826.826,0,0,0,.55.975,13.548,13.548,0,0,0,3.8.525C17.35,26.65,19.1,24.45,19.1,21.15Zm15.625-4.175c0-5.65-2.475-8.25-6.475-8.25-3.925,0-6.475,2.725-6.475,8.35,0,5.675,2.5,8.225,6.5,8.225C32.3,25.3,34.725,22.7,34.725,16.975Zm-9.775,0c0-4.275.925-5.95,3.3-5.95s3.3,1.675,3.3,6.025c0,4.325-.925,5.95-3.3,5.95S24.95,21.325,24.95,16.975ZM56.225,21c0-2.725-1.6-4.35-4-4.35s-4,1.6-4,4.3c0,2.725,1.6,4.35,4,4.35C54.6,25.3,56.225,23.7,56.225,21Zm-10.9-7.9c0-2.725-1.6-4.35-4-4.35-2.375,0-4,1.6-4,4.325,0,2.7,1.6,4.325,4,4.325C43.7,17.4,45.325,15.8,45.325,13.1ZM42.375,25a1.4,1.4,0,0,0,1.175-.65L52.5,9.7a.428.428,0,0,0-.375-.65h-.95A1.4,1.4,0,0,0,50,9.7L41.05,24.35a.428.428,0,0,0,.375.65Zm8.35-4.125c0-1.725.425-2.425,1.5-2.425,1.05,0,1.475.6,1.475,2.6,0,1.7-.425,2.425-1.475,2.425S50.725,22.85,50.725,20.875ZM39.85,13c0-1.75.4-2.45,1.475-2.45,1.05,0,1.475.6,1.475,2.6,0,1.725-.425,2.425-1.475,2.425S39.85,14.975,39.85,13Z" transform="translate(226.5 177.633)" fill="#22283c"/>
    <path id="Pfad_4090" data-name="Pfad 4090" d="M20.737,25a.779.779,0,0,0,.775-.775v-.9a.779.779,0,0,0-.775-.775h-6.2c5.25-3.925,6.7-5.975,6.7-9.025,0-3.275-2.075-4.8-5.225-4.8a8.542,8.542,0,0,0-4.3,1.05.866.866,0,0,0-.375,1.075l.35.775a.729.729,0,0,0,1,.35,6.266,6.266,0,0,1,3-.75c1.575,0,2.4.75,2.4,2.575,0,2.225-1.2,3.8-6.35,8.075a1.677,1.677,0,0,0-.6,1.275v1.075a.779.779,0,0,0,.775.775Zm11.825,0a.779.779,0,0,0,.775-.775v-.8a.779.779,0,0,0-.775-.775H30.638V9.7a.779.779,0,0,0-.775-.775h-.6a2.437,2.437,0,0,0-1.4.5l-3.35,2.7a.959.959,0,0,0-.25,1.175l.15.25a.764.764,0,0,0,1.05.35l2.225-1.1v9.85h-2.3a.779.779,0,0,0-.775.775v.8a.779.779,0,0,0,.775.775Zm21.15-4c0-2.725-1.6-4.35-4-4.35s-4,1.6-4,4.3c0,2.725,1.6,4.35,4,4.35C52.088,25.3,53.713,23.7,53.713,21Zm-10.9-7.9c0-2.725-1.6-4.35-4-4.35-2.375,0-4,1.6-4,4.325,0,2.7,1.6,4.325,4,4.325C41.188,17.4,42.813,15.8,42.813,13.1ZM39.863,25a1.4,1.4,0,0,0,1.175-.65L49.988,9.7a.428.428,0,0,0-.375-.65h-.95a1.4,1.4,0,0,0-1.175.65l-8.95,14.65a.428.428,0,0,0,.375.65Zm8.35-4.125c0-1.725.425-2.425,1.5-2.425,1.05,0,1.475.6,1.475,2.6,0,1.7-.425,2.425-1.475,2.425S48.213,22.85,48.213,20.875ZM37.338,13c0-1.75.4-2.45,1.475-2.45,1.05,0,1.475.6,1.475,2.6,0,1.725-.425,2.425-1.475,2.425S37.338,14.975,37.338,13Z" transform="translate(313 281.633)" fill="#22283c"/>
    <path id="Pfad_4089" data-name="Pfad 4089" d="M19.538,25a.779.779,0,0,0,.775-.775v-.8a.779.779,0,0,0-.775-.775H17.613V9.7a.779.779,0,0,0-.775-.775h-.6a2.437,2.437,0,0,0-1.4.5l-3.35,2.7a.959.959,0,0,0-.25,1.175l.15.25a.764.764,0,0,0,1.05.35l2.225-1.1v9.85h-2.3a.779.779,0,0,0-.775.775v.8a.779.779,0,0,0,.775.775Zm12.6-12.6a2.526,2.526,0,0,0,.5-1.425V9.825a.779.779,0,0,0-.775-.775h-8.85a.779.779,0,0,0-.775.775v1.05a.779.779,0,0,0,.775.775h6.8c-2.225,2.425-4.975,7-5.775,13.825a.786.786,0,0,0,.675.875l1.5.225a.739.739,0,0,0,.825-.675A25.535,25.535,0,0,1,32.138,12.4ZM53.988,21c0-2.725-1.6-4.35-4-4.35s-4,1.6-4,4.3c0,2.725,1.6,4.35,4,4.35C52.363,25.3,53.988,23.7,53.988,21Zm-10.9-7.9c0-2.725-1.6-4.35-4-4.35-2.375,0-4,1.6-4,4.325,0,2.7,1.6,4.325,4,4.325C41.463,17.4,43.088,15.8,43.088,13.1ZM40.138,25a1.4,1.4,0,0,0,1.175-.65L50.263,9.7a.428.428,0,0,0-.375-.65h-.95a1.4,1.4,0,0,0-1.175.65l-8.95,14.65a.428.428,0,0,0,.375.65Zm8.35-4.125c0-1.725.425-2.425,1.5-2.425,1.05,0,1.475.6,1.475,2.6,0,1.7-.425,2.425-1.475,2.425S48.488,22.85,48.488,20.875ZM37.613,13c0-1.75.4-2.45,1.475-2.45,1.05,0,1.475.6,1.475,2.6,0,1.725-.425,2.425-1.475,2.425S37.613,14.975,37.613,13Z" transform="translate(400 328)" fill="#22283c"/>
  </g>
</svg>
